<?xml version="1.0" standalone="no"?>
<!DOCTYPE svg PUBLIC "-//W3C//DTD SVG 20010904//EN"
 "http://www.w3.org/TR/2001/REC-SVG-20010904/DTD/svg10.dtd">
<svg version="1.0" xmlns="http://www.w3.org/2000/svg"
 width="512.000000pt" height="512.000000pt" viewBox="0 0 512.000000 512.000000"
 preserveAspectRatio="xMidYMid meet">
<metadata>
Created by potrace 1.11, written by Peter Selinger 2001-2013
</metadata>
<g transform="translate(0.000000,512.000000) scale(0.100000,-0.100000)"
fill="#000000" stroke="none">
<path d="M3808 3845 c-2 -2 -37 -6 -78 -9 -41 -4 -82 -9 -90 -11 -8 -3 -29 -7
-45 -9 -261 -38 -535 -186 -701 -378 -186 -217 -274 -473 -278 -808 -1 -158 6
-245 30 -354 114 -517 508 -846 1079 -903 126 -12 429 -5 509 12 11 2 37 7 56
10 169 25 382 88 557 167 49 21 53 26 54 58 1 44 1 1078 0 1103 -1 16 -31 17
-481 17 l-480 0 0 -207 0 -208 188 0 187 0 1 -233 0 -233 -54 -15 c-84 -25
-157 -32 -287 -29 -148 4 -180 8 -264 36 -208 68 -354 224 -419 444 -57 191
-53 464 9 650 19 54 66 150 90 179 120 147 255 228 437 260 75 14 346 14 402
2 14 -4 36 -8 50 -11 51 -10 66 -13 110 -25 90 -23 197 -64 307 -116 62 -30
114 -54 115 -54 3 0 2 459 -1 486 -1 6 -16 16 -33 21 -18 6 -64 23 -103 38
-68 25 -268 79 -330 89 -16 2 -48 7 -71 11 -22 3 -58 8 -80 11 -43 5 -382 13
-386 9z"/>
<path d="M347 3795 c-2 -5 -3 -543 -2 -1195 l0 -1185 310 -3 310 -2 -1 411
c-1 292 2 412 10 414 6 2 142 6 301 9 160 2 310 7 333 11 97 14 235 56 311 94
70 34 104 56 179 116 7 5 35 38 62 71 96 119 148 274 154 454 8 281 -80 482
-281 642 -43 34 -211 109 -285 128 -156 39 -226 43 -820 44 -385 1 -579 -2
-581 -9z m1122 -463 c149 -58 210 -154 206 -322 -2 -110 -29 -174 -97 -234
-84 -74 -118 -81 -383 -81 l-230 0 -2 320 c-1 176 0 325 2 331 2 7 73 10 227
9 200 -2 229 -4 277 -23z"/>
</g>
</svg>
