<?xml version="1.0" encoding="UTF-8"?>
<!-- Created with Inkscape (http://www.inkscape.org/) -->
<svg width="889.57" height="139.73" version="1.1" viewBox="0 0 889.57 139.73" xmlns="http://www.w3.org/2000/svg" xmlns:cc="http://creativecommons.org/ns#" xmlns:dc="http://purl.org/dc/elements/1.1/" xmlns:rdf="http://www.w3.org/1999/02/22-rdf-syntax-ns#">
 <metadata>
  <rdf:RDF>
   <cc:Work rdf:about="">
    <dc:format>image/svg+xml</dc:format>
    <dc:type rdf:resource="http://purl.org/dc/dcmitype/StillImage"/>
    <dc:title/>
   </cc:Work>
  </rdf:RDF>
 </metadata>
 <g transform="translate(-55.217 -5.1327)" fill="#fff" aria-label="Partiguiden.nu">
  <path d="m92.188 75.911v35.221h-16.471v-94.792h36.263q15.885 0 25.195 8.2682 9.375 8.2682 9.375 21.875 0 13.932-9.1797 21.68-9.1146 7.7474-25.586 7.7474zm0-13.216h19.792q8.7891 0 13.411-4.1016 4.6224-4.1667 4.6224-11.979 0-7.6823-4.6875-12.24-4.6875-4.6224-12.891-4.7526h-20.247z"/>
  <path d="m200.65 111.13q-1.0417-2.0182-1.8229-6.5755-7.5521 7.8776-18.49 7.8776-10.612 0-17.318-6.0547-6.7057-6.0547-6.7057-14.974 0-11.263 8.3333-17.253 8.3984-6.0547 23.958-6.0547h9.7005v-4.6224q0-5.4687-3.0599-8.724-3.0599-3.3203-9.3099-3.3203-5.4036 0-8.8542 2.7344-3.4505 2.6693-3.4505 6.8359h-15.82q0-5.7943 3.8412-10.807 3.8411-5.0781 10.417-7.9427 6.6406-2.8646 14.779-2.8646 12.37 0 19.727 6.25 7.3568 6.1849 7.5521 17.448v31.771q0 9.5052 2.6693 15.169v1.1068zm-17.383-11.393q4.6875 0 8.7891-2.2786 4.1667-2.2786 6.25-6.1198v-13.281h-8.5286q-8.7891 0-13.216 3.0599t-4.4271 8.6589q0 4.5573 2.9948 7.2917 3.0599 2.6693 8.138 2.6693z"/>
  <path d="m267.58 55.143q-3.125-0.52083-6.4453-0.52083-10.872 0-14.648 8.3333v48.177h-15.82v-70.443h15.104l0.39063 7.8776q5.7292-9.1797 15.885-9.1797 3.3854 0 5.599 0.91146z"/>
  <path d="m300.78 23.568v17.122h12.435v11.719h-12.435v39.323q0 4.0365 1.5625 5.8594 1.6276 1.7578 5.7292 1.7578 2.7344 0 5.5339-0.65104v12.24q-5.4036 1.4974-10.417 1.4974-18.229 0-18.229-20.117v-39.909h-11.589v-11.719h11.589v-17.122z"/>
  <path d="m342.06 111.13h-15.82v-70.443h15.82zm-16.797-88.737q0-3.6458 2.2786-6.0547 2.3438-2.4089 6.6406-2.4089 4.2969 0 6.6406 2.4089 2.3438 2.4089 2.3438 6.0547 0 3.5807-2.3438 5.9896-2.3438 2.3438-6.6406 2.3438-4.2969 0-6.6406-2.3438-2.2786-2.4089-2.2786-5.9896z"/>
  <path d="m356.58 75.391q0-16.406 7.6823-26.172 7.7474-9.8307 20.508-9.8307 12.044 0 18.945 8.3984l0.71614-7.0964h14.258v68.294q0 13.867-8.6589 21.875-8.5938 8.0078-23.242 8.0078-7.7474 0-15.169-3.2552-7.3568-3.1901-11.198-8.3984l7.487-9.5052q7.2917 8.6589 17.969 8.6589 7.8776 0 12.435-4.2969 4.5573-4.2318 4.5573-12.5v-4.7526q-6.8359 7.6172-18.229 7.6172-12.37 0-20.247-9.8307-7.8125-9.8307-7.8125-27.214zm15.755 1.3672q0 10.612 4.2969 16.732 4.362 6.0547 12.044 6.0547 9.5703 0 14.193-8.2031v-30.99q-4.4922-8.0078-14.062-8.0078-7.8125 0-12.174 6.1849-4.2969 6.1849-4.2969 18.229z"/>
  <path d="m477.54 104.23q-6.9661 8.2031-19.792 8.2031-11.458 0-17.383-6.7057-5.8594-6.7057-5.8594-19.401v-45.638h15.82v45.443q0 13.411 11.133 13.411 11.523 0 15.56-8.2682v-50.586h15.82v70.443h-14.909z"/>
  <path d="m525.91 111.13h-15.82v-70.443h15.82zm-16.797-88.737q0-3.6458 2.2786-6.0547 2.3438-2.4089 6.6406-2.4089 4.2969 0 6.6406 2.4089 2.3438 2.4089 2.3438 6.0547 0 3.5807-2.3438 5.9896-2.3438 2.3438-6.6406 2.3438-4.2969 0-6.6406-2.3438-2.2786-2.4089-2.2786-5.9896z"/>
  <path d="m540.23 75.391q0-16.276 7.5521-26.107 7.5521-9.8958 20.247-9.8958 11.198 0 18.099 7.8125v-36.068h15.82v100h-14.323l-0.78125-7.2917q-7.0964 8.5938-18.945 8.5938-12.37 0-20.052-9.9609-7.6172-9.9609-7.6172-27.083zm15.82 1.3672q0 10.742 4.1016 16.797 4.1667 5.9896 11.784 5.9896 9.7005 0 14.193-8.6589v-30.078q-4.362-8.4635-14.062-8.4635-7.6823 0-11.849 6.1198-4.1667 6.0547-4.1667 18.294z"/>
  <path d="m649.48 112.43q-15.039 0-24.414-9.4401-9.3099-9.5052-9.3099-25.26v-1.9531q0-10.547 4.0365-18.815 4.1016-8.3333 11.458-12.956 7.3568-4.6224 16.406-4.6224 14.388 0 22.201 9.1797 7.8776 9.1797 7.8776 25.977v6.3802h-46.029q0.71615 8.724 5.7943 13.802 5.1432 5.0781 12.891 5.0781 10.872 0 17.708-8.7891l8.5286 8.138q-4.2318 6.3151-11.328 9.8307-7.0312 3.4505-15.82 3.4505zm-1.888-60.352q-6.5104 0-10.547 4.5573-3.9714 4.5573-5.0781 12.695h30.143v-1.1719q-0.52084-7.9427-4.2318-11.979-3.7109-4.1016-10.286-4.1016z"/>
  <path d="m704.75 40.69 0.45572 8.138q7.8125-9.4401 20.508-9.4401 22.005 0 22.396 25.195v46.549h-15.82v-45.638q0-6.7057-2.9297-9.8958-2.8646-3.2552-9.4401-3.2552-9.5703 0-14.258 8.6589v50.13h-15.82v-70.443z"/>
  <path d="m765.62 106.45q0-2.2786 1.4323-3.8411 1.4974-1.6276 4.1016-1.6276t4.1016 1.6276q1.4974 1.5625 1.4974 3.8411t-1.4974 3.776q-1.4974 1.4323-4.1016 1.4323t-4.1016-1.4323q-1.4323-1.4974-1.4323-3.776z"/>
  <path d="m805.53 40.69 0.26041 12.044q3.9714-6.5104 9.8958-9.8958 5.9245-3.4505 13.086-3.4505 11.328 0 16.862 6.3802 5.5339 6.3802 5.599 19.141v46.224h-7.7474v-46.289q-0.0651-9.4401-4.0364-14.062-3.9062-4.6224-12.565-4.6224-7.2266 0-12.826 4.5573-5.5338 4.4922-8.2031 12.174v48.242h-7.7474v-70.443z"/>
  <path d="m916.6 102.21q-7.0312 10.221-22.461 10.221-11.263 0-17.122-6.5104-5.8594-6.5755-5.9896-19.401v-45.833h7.7474v44.857q0 20.117 16.276 20.117 16.927 0 21.419-13.997v-50.977h7.8125v70.443h-7.5521z"/>
 </g>
</svg>
