<?xml version="1.0" encoding="UTF-8" standalone="no"?>
<!-- Created with Inkscape (http://www.inkscape.org/) -->

<svg
   xmlns:dc="http://purl.org/dc/elements/1.1/"
   xmlns:cc="http://creativecommons.org/ns#"
   xmlns:rdf="http://www.w3.org/1999/02/22-rdf-syntax-ns#"
   xmlns:svg="http://www.w3.org/2000/svg"
   xmlns="http://www.w3.org/2000/svg"
   xmlns:sodipodi="http://sodipodi.sourceforge.net/DTD/sodipodi-0.dtd"
   xmlns:inkscape="http://www.inkscape.org/namespaces/inkscape"
   width="44.180386mm"
   height="45.615448mm"
   viewBox="0 0 44.180386 45.615448"
   version="1.1"
   id="svg68"
   inkscape:version="0.92.3 (2405546, 2018-03-11)"
   sodipodi:docname="C.svg">
  <defs
     id="defs62" />
  <sodipodi:namedview
     id="base"
     pagecolor="#ffffff"
     bordercolor="#666666"
     borderopacity="1.0"
     inkscape:pageopacity="0.0"
     inkscape:pageshadow="2"
     inkscape:zoom="1.979899"
     inkscape:cx="203.51845"
     inkscape:cy="156.786"
     inkscape:document-units="mm"
     inkscape:current-layer="layer1-6"
     showgrid="false"
     inkscape:pagecheckerboard="true"
     inkscape:window-width="1920"
     inkscape:window-height="1017"
     inkscape:window-x="-8"
     inkscape:window-y="-8"
     inkscape:window-maximized="1" />
  <metadata
     id="metadata65">
    <rdf:RDF>
      <cc:Work
         rdf:about="">
        <dc:format>image/svg+xml</dc:format>
        <dc:type
           rdf:resource="http://purl.org/dc/dcmitype/StillImage" />
        <dc:title></dc:title>
      </cc:Work>
    </rdf:RDF>
  </metadata>
  <g
     inkscape:label="Layer 1"
     inkscape:groupmode="layer"
     id="layer1"
     transform="translate(-79.97821,-57.808036)">
    <g
       transform="translate(14.363094,-48.380959)"
       id="layer1-6"
       inkscape:label="Layer 1">
      <g
         id="g3842">
        <path
           inkscape:connector-curvature="0"
           id="path3850"
           d="m 89.849477,151.65369 c -0.1397,-0.0466 -0.556592,-0.15111 -0.926426,-0.23224 -0.369837,-0.0811 -1.152177,-0.54833 -1.738533,-1.03822 -0.586358,-0.48988 -1.155742,-0.8907 -1.265299,-0.8907 -0.109557,0 -0.860939,0.39848 -1.669737,0.88551 -1.803771,1.08618 -2.813766,1.29457 -4.373796,0.90246 -1.606569,-0.40381 -2.590925,-1.20041 -3.462783,-2.8023 -0.998252,-1.83412 -1.154242,-3.95168 -0.430476,-5.84367 1.182113,-3.09015 7.698333,-12.954 8.557628,-12.954 0.458352,0 0.593571,0.59951 0.3644,1.61563 -0.262853,1.16545 -0.774505,2.01096 -3.010421,4.97472 -0.995563,1.31964 -2.286638,3.33914 -2.869056,4.48779 -0.896578,1.76824 -1.03724,2.25025 -0.917401,3.14372 0.266056,1.98359 2.094143,3.81214 3.811182,3.81214 0.345679,0 1.294692,-0.29462 2.108918,-0.65471 0.814225,-0.36009 1.714273,-0.59921 2.000105,-0.53138 0.285833,0.0678 1.352016,0.37011 2.369298,0.67173 2.132424,0.63227 3.071028,0.47571 4.184932,-0.69801 1.711396,-1.80331 1.909386,-4.75553 0.518071,-7.72491 -0.784443,-1.67418 -1.46083,-2.44493 -5.085275,-5.79472 -1.503343,-1.38942 -2.134411,-2.60952 -1.617219,-3.12671 0.329954,-0.32996 3.493163,2.05737 6.00533,4.53232 2.172482,2.14029 3.472508,4.03225 4.173979,6.07449 0.845968,2.46291 0.910309,3.89032 0.27033,5.9973 -0.476732,1.56954 -0.775426,2.05791 -2.019551,3.30204 -1.675156,1.67516 -3.522739,2.37724 -4.9782,1.89172 z m -3.935054,-7.11182 c -0.17284,-0.20826 -0.403718,-1.15123 -0.513061,-2.0955 -0.109342,-0.94426 -0.332229,-2.28834 -0.495303,-2.98684 -0.469967,-2.01303 0.05963,-5.461 0.83879,-5.461 0.875049,0 1.448764,5.2628 1.020445,9.36074 -0.169126,1.61811 -0.317865,1.82484 -0.850871,1.1826 z M 69.318015,139.7426 c -2.353818,-0.65618 -3.669857,-2.29158 -3.70258,-4.60107 -0.01947,-1.37438 0.856022,-3.61078 1.813655,-4.63287 l 0.532991,-0.56886 -0.676802,-1.24351 c -1.795842,-3.29955 0.370205,-8.29848 3.819907,-8.81579 1.319886,-0.19793 3.498506,0.31977 5.369162,1.27585 2.27142,1.16091 7.15213,4.91266 7.15213,5.49777 0,0.33053 -1.452344,0.2881 -2.112199,-0.0617 -0.305141,-0.16176 -1.229682,-0.90306 -2.054536,-1.64733 -0.824854,-0.74427 -2.018802,-1.6045 -2.653216,-1.91161 -2.639739,-1.27788 -5.610678,-0.70859 -6.619244,1.26836 -0.767802,1.50501 -0.922714,2.89084 -0.432904,3.87268 0.59896,1.20065 0.514795,1.80606 -0.510357,3.6711 -0.769749,1.40038 -0.897618,1.84483 -0.780972,2.7145 0.225216,1.67911 1.07334,2.32167 3.224842,2.44325 1.534975,0.0867 1.973682,0.007 3.156206,-0.57122 1.605293,-0.7854 3.8122,-3.03735 5.526101,-5.63888 1.169726,-1.77554 1.97515,-2.52013 2.898857,-2.67993 0.326198,-0.0564 0.47387,0.0556 0.452117,0.34286 -0.05402,0.7134 -4.4266,6.77955 -6.03654,8.37458 -2.602458,2.57835 -5.698117,3.65573 -8.366618,2.91183 z m 31.453465,-1.02022 c -2.660226,-0.84352 -7.078322,-4.03159 -11.432322,-8.24948 -3.221476,-3.12078 -3.433158,-3.65014 -1.238648,-3.09756 1.534005,0.38627 2.240884,0.88332 5.059151,3.55739 3.299722,3.13089 6.361458,4.81308 8.094309,4.4472 0.43313,-0.0915 1.37434,-0.60484 2.09157,-1.14085 1.65037,-1.23336 2.37894,-2.65913 2.37894,-4.65544 0,-1.59473 -0.2285,-2.20399 -1.22862,-3.27598 l -0.65854,-0.70586 0.83969,-1.5274 c 2.01873,-3.67208 0.43356,-6.30187 -3.85824,-6.40081 -3.188269,-0.0735 -4.119057,0.4096 -7.77383,4.03475 -2.966154,2.94212 -5.54973,4.81359 -6.009909,4.35341 -0.234198,-0.2342 -0.07306,-0.44188 4.118828,-5.3085 3.865519,-4.48771 4.759426,-5.18492 7.594498,-5.92336 1.928813,-0.50239 4.790223,-0.49751 6.281783,0.0107 2.42996,0.82797 4.53209,3.47967 4.56657,5.7604 0.02,1.32161 -0.49063,2.8706 -1.26204,3.82852 -0.7126,0.88489 -0.72848,1.43544 -0.0657,2.278 2.4843,3.15827 1.87148,7.82095 -1.36586,10.39231 -2.39686,1.90377 -3.94923,2.31456 -6.13161,1.62255 z m -29.274769,-9.86355 c 0.05751,-0.17254 0.438512,-0.39192 0.846667,-0.48753 0.408155,-0.0956 1.454749,-0.35449 2.325765,-0.5753 2.078763,-0.52698 5.225007,-0.53898 5.654424,-0.0216 0.266031,0.32055 0.141917,0.45857 -0.794399,0.88342 -0.932553,0.42315 -1.67057,0.50441 -4.623357,0.5091 -2.677297,0.004 -3.488776,-0.0691 -3.4091,-0.30812 z m 19.767562,-1.99712 c -0.528437,-0.21116 -0.564967,-0.29492 -0.254,-0.58241 0.809348,-0.74824 3.352561,-1.15583 7.399693,-1.18593 2.193674,-0.0163 4.125514,0.055 4.292974,0.15852 0.43273,0.26744 -0.45177,0.87181 -1.28151,0.87564 -0.35747,0.002 -1.564353,0.2289 -2.681953,0.505 -2.192799,0.54173 -6.372326,0.66986 -7.475204,0.22918 z m -5.997965,-1.5637 c -0.282653,-0.73658 0.957586,-2.57404 3.558953,-5.27272 3.172317,-3.29098 4.362495,-5.38858 4.089692,-7.20777 -0.373561,-2.49107 -2.161053,-3.77337 -4.462333,-3.20114 -0.628729,0.15634 -1.764863,0.63312 -2.524743,1.05952 -1.205179,0.67627 -1.546485,0.75589 -2.672851,0.6235 -1.771149,-0.20816 -3.120253,0.22307 -4.258322,1.36114 -0.918079,0.91808 -0.958226,1.0297 -0.958226,2.66422 0,1.01996 0.159457,2.04203 0.396531,2.54162 0.218092,0.4596 1.593059,2.12412 3.055482,3.69894 1.462423,1.57482 2.617538,2.98772 2.566921,3.13976 -0.226261,0.67966 -1.049618,0.29024 -3.417828,-1.61653 -3.969536,-3.19607 -5.362777,-5.30307 -5.382541,-8.14002 -0.01248,-1.79119 0.302881,-2.89892 1.250838,-4.39369 1.112296,-1.75391 2.758634,-2.71831 4.640453,-2.71831 1.259227,0 1.576343,0.0971 2.074898,0.635 0.323674,0.34925 0.673829,0.635 0.778122,0.635 0.104293,0 0.719836,-0.44138 1.367873,-0.98084 1.980963,-1.64907 2.714562,-1.93265 5.009967,-1.93661 1.842542,-0.003 2.16008,0.0702 3.08811,0.71328 1.745216,1.20944 2.715851,4.19371 2.019683,6.20962 -0.837054,2.42387 -2.439225,4.54454 -7.304631,9.66855 -2.024232,2.13182 -2.805286,2.80612 -2.916048,2.51748 z m -0.902266,-3.5092 c -0.236868,-0.42344 -0.346532,-1.57445 -0.349212,-3.66528 -0.0045,-3.49837 0.263933,-5.53971 0.708993,-5.39196 0.390849,0.12974 0.586894,0.85202 0.959104,3.53354 0.321912,2.31917 0.04041,4.75426 -0.660398,5.71267 -0.28586,0.39094 -0.343304,0.37445 -0.658487,-0.18897 z"
           style="fill:#6ba88e;stroke-width:0.25400001" />
        <path
           inkscape:connector-curvature="0"
           id="path3848"
           d="m 89.849477,151.27827 c -1.198755,-0.19181 -2.058974,-0.62076 -2.892136,-1.44216 -0.783075,-0.77202 -1.116619,-0.75329 -2.575995,0.14467 -1.70962,1.05194 -2.878462,1.3283 -4.284917,1.0131 -3.495201,-0.78329 -5.261931,-5.19266 -3.552938,-8.86735 1.627704,-3.4999 7.195182,-11.938 7.876723,-11.938 0.400785,0 0.232789,1.38488 -0.285242,2.35142 -0.279128,0.52079 -1.282253,1.96735 -2.229167,3.21458 -3.73777,4.92319 -4.72568,7.50193 -3.664602,9.56571 1.317504,2.56252 3.231994,3.22804 5.874542,2.04214 l 1.499376,-0.67288 1.9591,0.63952 c 1.077504,0.35173 2.293087,0.63951 2.701291,0.63951 2.753377,0 4.78346,-3.71 3.905443,-7.13724 -0.745381,-2.9095 -1.917688,-4.53133 -5.546299,-7.67304 -1.531218,-1.32576 -2.280357,-2.48021 -1.87347,-2.88709 0.235892,-0.2359 4.907975,3.67877 6.560776,5.49717 2.598654,2.85901 4.01778,6.69418 3.500875,9.46105 -0.473987,2.53712 -1.629817,4.38294 -3.362468,5.36973 -1.265428,0.72069 -2.224265,0.90104 -3.610892,0.67916 z m -4.204546,-9.21524 c -0.542589,-3.4118 -0.452295,-8.10701 0.144432,-7.51028 0.351156,0.35115 0.885115,3.21962 0.885115,4.75491 0,2.23924 -0.275292,4.85087 -0.51133,4.85087 -0.101729,0 -0.334927,-0.94298 -0.518217,-2.0955 z m -16.877453,-2.78288 c -1.787876,-0.62477 -3.046174,-2.61955 -2.861929,-4.53703 0.122209,-1.27185 0.877725,-2.94227 1.857312,-4.10644 l 0.594304,-0.70629 -0.772284,-1.45843 c -0.668613,-1.26265 -0.75394,-1.64142 -0.635633,-2.8216 0.293693,-2.92978 2.029797,-5.11417 4.35823,-5.48359 1.295488,-0.20554 3.900823,0.57478 5.971983,1.78865 1.543935,0.90488 5.1365,3.64888 5.457706,4.16861 0.684025,1.10677 -1.410787,0.13445 -3.297978,-1.53079 -2.643529,-2.33262 -5.356931,-3.1152 -7.580229,-2.18625 -2.270757,0.94878 -3.249222,3.85788 -2.173427,6.46186 0.328951,0.79624 0.297984,0.92851 -0.60315,2.57628 -0.644793,1.17904 -0.949905,2.05998 -0.949905,2.74261 0,3.30998 4.177213,4.37336 7.780778,1.98073 1.390637,-0.92333 3.186882,-2.92096 4.91585,-5.46697 0.960984,-1.41512 1.868224,-2.29097 2.373063,-2.29097 0.382792,0 0.01107,0.6421 -2.163982,3.738 -3.873018,5.51274 -6.458964,7.45861 -9.857709,7.41775 -0.90805,-0.0109 -1.9939,-0.13968 -2.413,-0.28613 z m 32.215522,-0.8313 c -2.542826,-0.70745 -7.638871,-4.37263 -11.544896,-8.30332 -2.375154,-2.39014 -2.448796,-2.497 -1.72087,-2.497 1.175951,0 2.153234,0.63521 4.678604,3.04101 2.454219,2.33801 5.994712,4.72069 7.408806,4.98597 1.594886,0.2992 2.517616,-0.0816 4.244776,-1.75169 1.44657,-1.39879 1.66238,-1.73639 1.91657,-2.99809 0.19082,-0.9472 0.20695,-1.77558 0.0483,-2.48164 -0.25952,-1.15504 -0.91804,-2.31956 -1.31168,-2.31956 -0.43223,0 -0.26944,-0.91357 0.36769,-2.06351 1.25445,-2.26411 1.0845,-4.14101 -0.50101,-5.53311 -1.79849,-1.57909 -5.010195,-1.70018 -7.861668,-0.29641 -1.241318,0.6111 -2.17997,1.38774 -3.98686,3.2987 -2.334806,2.4693 -4.00417,3.83233 -4.693615,3.83233 -0.314564,0 3.843698,-5.12881 6.24731,-7.70545 2.240161,-2.40141 7.007393,-3.57561 10.412033,-2.56455 2.43671,0.72363 4.59398,3.2827 4.59398,5.44965 0,1.33894 -0.67083,3.38911 -1.29324,3.95238 -0.67051,0.6068 -0.60607,1.70083 0.15334,2.60333 2.25917,2.68487 1.66248,7.10225 -1.30281,9.64483 -2.20892,1.89404 -3.65975,2.31683 -5.85477,1.70613 z m -27.897522,-9.75629 c 2.024512,-0.88781 6.465411,-1.42525 6.835045,-0.82717 0.31727,0.51335 -1.372808,0.89547 -4.295045,0.97108 -1.896022,0.0491 -2.856004,-0.005 -2.54,-0.14391 z m 18.795999,-2.04991 c -0.466554,-0.19119 -0.445831,-0.23267 0.254,-0.5084 0.4191,-0.16513 1.320526,-0.40632 2.003169,-0.53598 1.46747,-0.27872 8.198694,-0.31994 7.927284,-0.0485 -0.10296,0.10296 -0.95068,0.32874 -1.88383,0.50172 -0.933142,0.17298 -2.210973,0.42665 -2.839623,0.56372 -1.376898,0.30023 -4.753958,0.31721 -5.461,0.0275 z m -10.667999,-3.4453 c -2.495072,-2.00659 -4.292398,-3.90593 -4.989884,-5.27312 -2.10113,-4.11855 0.800057,-9.8337 4.991893,-9.8337 0.916664,0 1.290792,0.13546 1.753745,0.635 0.78905,0.8514 1.301228,0.80073 2.456515,-0.243 1.667169,-1.50619 2.928956,-2.02696 4.93173,-2.03546 2.328091,-0.01 3.483377,0.65695 4.345341,2.50811 1.244597,2.6729 0.701429,4.94151 -1.988459,8.30502 -2.184258,2.73126 -7.152233,7.80797 -6.934545,7.08633 0.2844,-0.9428 1.992197,-3.07705 3.437155,-4.29546 0.699196,-0.58957 1.716822,-1.72806 2.261393,-2.52997 1.921332,-2.82929 2.219812,-4.39109 1.214722,-6.35603 -1.1801,-2.30709 -3.333207,-2.60921 -6.638543,-0.93151 -1.62176,0.82316 -2.006691,0.92311 -2.988365,0.77589 -2.347555,-0.35203 -4.763741,0.99953 -5.291654,2.96005 -0.352964,1.31081 -0.08359,3.13478 0.651,4.40803 0.322395,0.5588 1.6245,2.10151 2.893565,3.42825 2.057521,2.15103 2.699726,3.07245 2.116891,3.03724 -0.104775,-0.006 -1.1049,-0.74688 -2.2225,-1.64567 z m 3.25256,-2.30658 c -0.273174,-0.98185 -0.176419,-6.15746 0.13008,-6.95824 0.231758,-0.6055 0.250737,-0.58781 0.408568,0.381 0.09104,0.5588 0.282278,1.67904 0.42498,2.48942 0.391975,2.22595 -0.467383,5.87145 -0.963628,4.08782 z"
           style="fill:#3d8d6b;stroke-width:0.25400001" />
        <path
           inkscape:connector-curvature="0"
           id="path3846"
           d="m 89.199687,150.9896 c -0.497083,-0.13997 -1.346523,-0.64838 -1.887639,-1.12978 -0.541118,-0.48141 -1.148161,-0.87529 -1.348984,-0.87529 -0.200824,0 -1.034864,0.40684 -1.853422,0.90409 -1.773558,1.07738 -2.779667,1.28128 -4.30234,0.87194 -2.306446,-0.62005 -4.012021,-3.46634 -3.727726,-6.22089 0.07535,-0.73006 0.445922,-1.94316 0.823496,-2.69576 2.212105,-4.40933 7.267788,-11.89589 7.444399,-11.02382 0.173348,0.85596 -0.255767,1.66734 -2.37385,4.48852 -2.516464,3.3518 -4.445733,6.88564 -4.437565,8.12827 0.0077,1.16883 0.773324,2.71414 1.854042,3.74205 1.285005,1.22223 2.866066,1.36041 4.734167,0.41377 0.783199,-0.39687 1.578157,-0.62925 1.88801,-0.55188 0.294361,0.0735 1.335303,0.37353 2.313202,0.66675 1.080379,0.32395 2.098962,0.47577 2.596023,0.38694 1.93993,-0.3467 3.620025,-2.90169 3.624496,-5.51193 0.0053,-3.1066 -1.71542,-6.14874 -5.005951,-8.85013 -1.82877,-1.50134 -2.819019,-2.65914 -2.525434,-2.95272 0.258046,-0.25805 2.955499,1.91977 5.288882,4.27003 3.452968,3.47795 5.02047,7.28274 4.30939,10.46018 -0.893801,3.99393 -4.147762,6.39918 -7.413196,5.47966 z m -3.371508,-9.31227 c -0.08142,-0.66099 -0.262256,-1.71615 -0.401868,-2.3448 -0.235686,-1.06125 -0.156582,-3.17849 0.151838,-4.064 0.304874,-0.87533 0.834815,2.04498 0.838473,4.62051 0.004,2.83425 -0.333331,3.85948 -0.588443,1.78829 z m -16.171318,-2.36744 c -3.706497,-0.73447 -4.708525,-4.99527 -1.944657,-8.26903 0.82298,-0.9748 0.841483,-1.40847 0.102774,-2.40882 -0.468728,-0.63475 -0.570756,-1.10108 -0.567363,-2.59321 0.0035,-1.52707 0.122712,-2.03452 0.742339,-3.15918 2.109862,-3.82951 6.290749,-3.29896 12.540872,1.59142 1.004108,0.78566 1.825652,1.54027 1.825652,1.6769 0,0.38997 -0.988495,-0.22824 -2.751495,-1.72079 -2.077837,-1.75909 -3.349947,-2.39228 -5.130586,-2.55375 -1.878815,-0.17036 -3.052362,0.23915 -4.142167,1.44544 -1.234786,1.36676 -1.681274,3.36472 -1.094987,4.89989 0.568369,1.48825 0.539454,1.74262 -0.363139,3.19459 -0.966572,1.55489 -1.180997,2.91984 -0.656056,4.1762 0.579321,1.38651 1.699131,1.96288 3.815876,1.96403 1.472317,7.6e-4 1.977584,-0.12438 3.259195,-0.80747 1.688413,-0.89991 3.680118,-2.94345 5.430505,-5.57181 0.615799,-0.92468 1.295021,-1.82679 1.509382,-2.0047 0.71325,-0.59194 0.723706,-0.0123 0.01722,0.9544 -0.383271,0.52444 -1.340527,1.86793 -2.127233,2.98553 -3.477513,4.94017 -6.823195,6.92223 -10.466128,6.20036 z m 31.172589,-1.11816 c -2.371044,-0.65219 -7.236221,-4.17364 -11.088606,-8.02602 -1.654035,-1.65404 -2.128596,-2.26318 -1.763159,-2.26318 0.906613,0 2.034962,0.78042 4.533362,3.13548 3.842337,3.62189 7.302959,5.42026 9.174673,4.76778 1.47674,-0.51479 3.25867,-2.10066 3.95147,-3.5167 0.55615,-1.13671 0.63809,-1.59553 0.55322,-3.09748 -0.0857,-1.51702 -0.21105,-1.90177 -0.89789,-2.75646 l -0.79827,-0.99334 0.60436,-1.01346 c 1.32465,-2.22135 1.26557,-4.35063 -0.16157,-5.82307 -1.07055,-1.10452 -2.1962,-1.47042 -4.55869,-1.48182 -2.870095,-0.0138 -4.576479,0.90766 -7.651253,4.13191 -2.331682,2.44504 -3.901532,3.80291 -4.13113,3.57331 -0.106812,-0.10681 1.849547,-2.48384 5.340561,-6.48893 2.027062,-2.32557 4.611377,-3.3875 8.231952,-3.38263 2.93183,0.004 5.17026,1.26883 6.37226,3.60079 0.82877,1.60789 0.45831,4.39363 -0.79641,5.98875 -0.69059,0.87795 -0.62025,1.60548 0.26263,2.71644 1.37316,1.7279 1.69486,4.63741 0.74473,6.73543 -0.96237,2.12504 -4.21106,4.60273 -5.96491,4.54929 -0.40992,-0.0125 -1.29071,-0.17274 -1.95733,-0.35609 z m -25.472925,-9.91628 c 0.339462,-0.25675 1.091116,-0.36649 2.413,-0.35229 1.835616,0.0197 1.886481,0.036 1.157953,0.36954 -0.4191,0.19191 -1.50495,0.35044 -2.413,0.3523 -1.505859,0.003 -1.607656,-0.0294 -1.157953,-0.36955 z m 16.905952,-1.87587 c 0,-0.42235 2.520094,-0.78348 5.283002,-0.75705 2.754061,0.0263 2.758001,0.0421 0.177998,0.7135 -1.259245,0.32768 -5.461,0.36119 -5.461,0.0435 z m -11.520118,-3.87299 c -2.498238,-2.00598 -4.269805,-4.0906 -4.701882,-5.53274 -1.24625,-4.15961 1.440007,-8.64932 5.17501,-8.64932 0.916664,0 1.290792,0.13546 1.753745,0.635 0.803181,0.86665 1.279165,0.80148 2.593022,-0.35503 1.540958,-1.3564 2.745814,-1.88615 4.541223,-1.99668 3.07084,-0.18904 5.095997,1.82294 5.051585,5.01871 -0.03209,2.30908 -1.272281,4.24629 -5.871301,9.17113 -1.644656,1.76118 -3.034797,3.16446 -3.089204,3.11842 -0.190858,-0.16153 1.358516,-1.98819 3.407733,-4.0176 1.529578,-1.51479 2.31156,-2.53792 2.999567,-3.92458 1.093947,-2.2048 1.143185,-2.99112 0.300624,-4.80094 -0.507129,-1.0893 -0.830084,-1.43563 -1.712021,-1.83592 -0.59784,-0.27134 -1.347013,-0.49586 -1.664827,-0.49893 -0.831782,-0.008 -3.215097,0.87325 -4.137113,1.52978 -0.665325,0.47376 -0.997781,0.537 -2.125966,0.4044 -2.38767,-0.28062 -4.500237,0.70915 -5.447041,2.55204 -0.156769,0.30514 -0.285035,1.26918 -0.285035,2.14231 0,2.00602 0.605977,3.30737 2.378999,5.10894 2.039704,2.07256 3.291302,3.49931 3.173262,3.61736 -0.05884,0.0588 -1.11201,-0.70002 -2.34038,-1.68635 z m 3.808966,-2.50932 c -0.208772,-1.04386 -0.185136,-3.13262 0.05017,-4.43374 0.183305,-1.01358 0.184535,-1.01162 0.516048,0.82337 0.31845,1.76267 0.240146,3.38337 -0.197695,4.09181 -0.140689,0.22764 -0.257133,0.0755 -0.368525,-0.48144 z"
           style="fill:#107349;stroke-width:0.25400001" />
        <path
           inkscape:connector-curvature="0"
           id="path3844"
           d="m 89.220835,150.71755 c -0.485455,-0.13924 -1.31446,-0.64328 -1.842233,-1.12009 -0.527773,-0.47681 -1.144332,-0.86693 -1.37013,-0.86693 -0.225799,0 -1.080272,0.40684 -1.89883,0.90409 -0.818557,0.49724 -1.866338,0.96543 -2.328401,1.04041 -2.1176,0.34364 -4.35119,-1.14249 -5.123434,-3.4089 -0.601923,-1.76655 -0.505187,-3.25997 0.324692,-5.0126 1.686439,-3.56161 6.880851,-11.48138 7.099728,-10.82475 0.127874,0.38362 -0.56596,1.58368 -1.791981,3.09942 -1.528462,1.88965 -2.999908,4.11026 -4.025041,6.07433 -1.110288,2.12722 -1.1535,3.68579 -0.149679,5.39868 1.395494,2.38123 3.385193,3.00184 5.943367,1.8538 l 1.517655,-0.68109 2.311963,0.66514 c 2.733927,0.78652 3.776972,0.64426 5.067013,-0.69112 1.819821,-1.88378 2.310366,-4.61095 1.337841,-7.43764 -0.921441,-2.67822 -1.85718,-3.84736 -5.548399,-6.93236 -0.719668,-0.60148 -1.308488,-1.2008 -1.308488,-1.33183 0,-0.74986 5.812558,4.6073 7.087692,6.5324 2.603873,3.93114 2.582865,8.44968 -0.0522,11.22754 -1.49801,1.57918 -3.253468,2.08448 -5.251132,1.5115 z m -3.560556,-11.24934 c -0.167473,-0.80672 -0.21775,-1.89355 -0.115495,-2.49665 0.170522,-1.00574 0.194895,-1.03099 0.417876,-0.43303 0.238953,0.6408 0.327532,4.02495 0.111019,4.24146 -0.06425,0.0643 -0.250282,-0.52605 -0.4134,-1.31178 z m -16.456351,-0.49514 c -1.385928,-0.45074 -1.750109,-0.76258 -2.356639,-2.01796 -0.922569,-1.90949 -0.417569,-4.13036 1.441619,-6.33988 0.581785,-0.69141 0.597765,-0.78158 0.227501,-1.28367 -1.299419,-1.76208 -1.492826,-3.8579 -0.542065,-5.87403 0.937446,-1.9879 2.235151,-2.921 4.06235,-2.921 0.736268,0 3.969784,0.93505 3.969784,1.14797 0,0.0469 -0.600075,0.0238 -1.3335,-0.0513 -2.927674,-0.29993 -4.89275,0.95472 -5.66707,3.61829 -0.367171,1.26302 -0.387895,1.66799 -0.129077,2.52231 0.617545,2.03842 0.602776,2.25689 -0.244737,3.62025 -1.468599,2.36248 -1.181437,4.54653 0.770384,5.85925 0.776055,0.52195 1.131024,0.58694 2.794,0.51153 2.349142,-0.10652 3.603528,-0.70329 5.690742,-2.70733 1.002804,-0.96284 1.32054,-1.17748 0.958914,-0.64778 -0.867534,1.27076 -3.438645,3.52023 -4.702707,4.11441 -1.523042,0.71591 -3.551677,0.90029 -4.939499,0.44893 z m 31.559192,-1.01145 c -2.128126,-0.66674 -7.514066,-4.58952 -10.653684,-7.75947 -1.114323,-1.12509 -1.914423,-2.04519 -1.778,-2.04467 0.536893,0.002 1.880093,1.02905 3.715726,2.84101 3.656291,3.60914 7.462639,5.61116 9.582808,5.04026 1.55395,-0.41844 3.5274,-2.11732 4.24178,-3.65161 1.02656,-2.20476 0.74987,-5.14524 -0.597,-6.34446 l -0.51983,-0.46285 0.73878,-1.40444 c 0.90805,-1.72624 1.0139,-3.81956 0.25599,-5.06247 -1.47668,-2.42165 -5.967487,-2.97777 -9.550213,-1.18267 -0.805688,0.40369 -2.232261,1.62326 -3.901996,3.3358 -3.029709,3.10739 -2.917876,2.80283 0.42717,-1.16332 2.522745,-2.99116 3.747429,-3.88467 6.230775,-4.54589 1.898404,-0.50547 4.890374,-0.44694 6.134054,0.11999 3.76687,1.71715 4.77804,5.23421 2.4845,8.64164 -0.7899,1.17353 -0.73418,1.6713 0.36585,3.2685 0.82412,1.19658 0.95819,1.59971 1.04542,3.14342 0.13058,2.31089 -0.36792,3.60471 -2.02876,5.26555 -2.15837,2.15837 -3.85727,2.69757 -6.19337,1.96568 z M 76.323978,128.2286 c 0.384175,-0.0582 1.012825,-0.0582 1.397,0 0.384175,0.0582 0.06985,0.10581 -0.6985,0.10581 -0.76835,0 -1.082675,-0.0476 -0.6985,-0.10581 z m 17.17745,-1.88413 c -0.332173,-0.0931 -0.489651,-0.18423 -0.349951,-0.20246 0.1397,-0.0182 1.065497,-0.13865 2.057327,-0.26757 1.036553,-0.13473 2.116559,-0.14068 2.54,-0.014 0.840536,0.25149 0.878103,0.241 -1.707376,0.47677 -1.064826,0.0971 -2.207826,0.10037 -2.54,0.007 z m -12.701349,-1.17244 c -0.315944,-0.40286 -0.30696,-0.41184 0.0959,-0.0959 0.244475,0.19173 0.4445,0.39176 0.4445,0.4445 0,0.20905 -0.208582,0.0745 -0.540399,-0.3486 z m -0.791634,-3.59159 c -1.746065,-1.44286 -3.372197,-3.44586 -3.708324,-4.56775 -0.63582,-2.12218 -0.222293,-4.70258 1.025246,-6.39751 1.424581,-1.93546 4.33648,-2.66179 5.539111,-1.38165 0.832913,0.8866 1.514231,0.79518 2.814399,-0.37764 1.492645,-1.34645 2.603697,-1.85388 4.346955,-1.98532 2.071345,-0.15617 3.525281,0.58066 4.316877,2.18773 1.018769,2.06826 0.678506,4.49449 -0.915116,6.52523 -0.362415,0.46182 -0.362679,0.4041 -0.0029,-0.635 0.459008,-1.3257 0.329303,-2.63404 -0.403538,-4.07052 -0.581947,-1.14071 -1.275923,-1.68358 -2.614874,-2.04553 -1.164283,-0.31472 -3.156221,0.1816 -5.128798,1.27793 -1.08218,0.60147 -1.398709,0.67055 -2.140304,0.46711 -1.804061,-0.49488 -4.660095,0.7747 -5.439999,2.41823 -0.57503,1.21179 -0.545319,3.81702 0.05848,5.12778 0.257411,0.5588 1.179426,1.78752 2.048924,2.7305 0.869498,0.94297 1.540109,1.7145 1.490247,1.7145 -0.04986,0 -0.628732,-0.44464 -1.286379,-0.98809 z m 4.651885,-3.63242 c 0.01224,-1.27301 0.08646,-1.69683 0.236148,-1.34849 0.306018,0.71214 0.306018,2.85887 0,3.048 -0.161057,0.0995 -0.247468,-0.52234 -0.236148,-1.69951 z"
           style="fill:#016b3e;stroke-width:0.25400001" />
      </g>
    </g>
  </g>
</svg>
