<?xml version="1.0" encoding="UTF-8" standalone="no"?>
<!-- Created with Inkscape (http://www.inkscape.org/) -->

<svg
   xmlns:dc="http://purl.org/dc/elements/1.1/"
   xmlns:cc="http://creativecommons.org/ns#"
   xmlns:rdf="http://www.w3.org/1999/02/22-rdf-syntax-ns#"
   xmlns:svg="http://www.w3.org/2000/svg"
   xmlns="http://www.w3.org/2000/svg"
   xmlns:sodipodi="http://sodipodi.sourceforge.net/DTD/sodipodi-0.dtd"
   xmlns:inkscape="http://www.inkscape.org/namespaces/inkscape"
   width="20.87888mm"
   height="25.205027mm"
   viewBox="0 0 20.878879 25.205026"
   version="1.1"
   id="svg8"
   inkscape:version="0.92.3 (2405546, 2018-03-11)"
   sodipodi:docname="L.svg">
  <defs
     id="defs2" />
  <sodipodi:namedview
     id="base"
     pagecolor="#ffffff"
     bordercolor="#666666"
     borderopacity="1.0"
     inkscape:pageopacity="0.0"
     inkscape:pageshadow="2"
     inkscape:zoom="3.959798"
     inkscape:cx="3.8014644"
     inkscape:cy="32.810146"
     inkscape:document-units="mm"
     inkscape:current-layer="g4022"
     showgrid="false"
     inkscape:pagecheckerboard="true"
     inkscape:window-width="1920"
     inkscape:window-height="1017"
     inkscape:window-x="-8"
     inkscape:window-y="-8"
     inkscape:window-maximized="1" />
  <metadata
     id="metadata5">
    <rdf:RDF>
      <cc:Work
         rdf:about="">
        <dc:format>image/svg+xml</dc:format>
        <dc:type
           rdf:resource="http://purl.org/dc/dcmitype/StillImage" />
        <dc:title></dc:title>
      </cc:Work>
    </rdf:RDF>
  </metadata>
  <g
     inkscape:label="Layer 1"
     inkscape:groupmode="layer"
     id="layer1"
     transform="translate(-66.692585,-31.837553)">
    <g
       id="layer1-4"
       transform="translate(-47.625,-139.85118)">
      <g
         id="g4022">
        <path
           style="fill:#dbebf3;stroke-width:0.16933332"
           d="m 116.94281,196.70518 c -0.84788,-0.3347 -1.72502,-1.07513 -2.16971,-1.83154 l -0.45496,-0.77388 v -9.82133 c 0,-10.87307 -0.0616,-10.2417 1.1137,-11.41698 0.71192,-0.71192 1.3624,-1.02738 2.36277,-1.14586 1.64982,-0.1954 3.29396,0.68906 4.10704,2.20936 0.37009,0.69199 0.37636,0.82169 0.46416,9.59148 0.049,4.8895 0.1061,8.75411 0.127,8.58803 0.0866,-0.68804 0.92888,-2.01394 1.57816,-2.48428 1.01603,-0.736 2.03953,-0.89512 5.31784,-0.82674 2.55391,0.0533 2.95508,0.1011 3.556,0.42401 1.30341,0.70038 2.08325,1.86611 2.23555,3.34177 0.11632,1.12701 -0.40493,2.40128 -1.32069,3.22861 -1.18653,1.07195 -1.3859,1.10593 -6.48967,1.10593 -3.08821,0 -4.66268,-0.0606 -4.78621,-0.18409 -0.13256,-0.13256 -0.21593,-0.13256 -0.29786,0 -0.145,0.23461 -4.74722,0.23074 -5.34312,-0.004 z"
           id="path4036"
           inkscape:connector-curvature="0" />
        <path
           style="fill:#a9cce2;stroke-width:0.16933332"
           d="m 116.64309,196.36869 c -0.88245,-0.43978 -1.84441,-1.52803 -2.07068,-2.34253 -0.23757,-0.85522 -0.22412,-18.68856 0.0147,-19.54887 0.24266,-0.87396 1.54725,-2.16684 2.45996,-2.43788 2.16664,-0.64342 4.40774,0.56248 4.97747,2.67829 0.1077,0.39997 0.15411,4.53742 0.1265,11.27691 l -0.0436,10.64515 -2.37067,0.0446 c -2.13165,0.0401 -2.44357,0.008 -3.09372,-0.3157 z m 5.95306,-0.0843 c -0.0607,-0.24204 -0.0737,-1.32789 -0.0288,-2.413 0.0948,-2.28928 0.36522,-3.00508 1.50366,-3.97954 0.9887,-0.8463 1.87256,-1.00056 5.33168,-0.93059 2.8794,0.0582 2.89635,0.0608 3.72086,0.571 1.65986,1.02698 2.35362,3.07089 1.61167,4.74818 -0.46635,1.05428 -0.91071,1.52784 -1.9118,2.03743 -0.7858,0.40001 -0.87398,0.40658 -5.45777,0.40658 h -4.65908 z"
           id="path4034"
           inkscape:connector-curvature="0" />
        <path
           style="fill:#86b7d9;stroke-width:0.16933332"
           d="m 117.44971,196.56873 c -1.15974,-0.35966 -2.07965,-1.12414 -2.60424,-2.16423 -0.24194,-0.4797 -0.27333,-1.64214 -0.27333,-10.12441 0,-9.09685 0.0164,-9.61433 0.32316,-10.21074 0.74152,-1.44159 1.94911,-2.1305 3.57362,-2.03871 1.35421,0.0765 2.27444,0.59633 3.00211,1.69579 l 0.46711,0.70578 v 11.10377 11.10378 l -2.032,0.0303 c -1.1176,0.0167 -2.22299,-0.0289 -2.45643,-0.10133 z m 5.45363,-0.0475 c -0.25847,-0.25848 -0.2748,-3.85014 -0.0216,-4.76179 0.22952,-0.82655 1.23344,-1.9424 2.10445,-2.3391 0.57724,-0.26289 1.14028,-0.30848 3.81,-0.30848 2.78787,0 3.2162,0.0379 3.89162,0.34426 0.99336,0.45058 1.31069,0.7534 1.79935,1.71701 1.02341,2.01813 0.0765,4.40233 -2.06687,5.20428 -0.8432,0.31549 -1.30847,0.34702 -5.12058,0.34702 -3.03554,0 -4.24921,-0.0561 -4.39632,-0.2032 z"
           id="path4032"
           inkscape:connector-curvature="0" />
        <path
           style="fill:#609fca;stroke-width:0.16933332"
           d="m 116.59279,196.08665 c -0.66855,-0.34925 -1.05218,-0.70011 -1.42537,-1.30361 l -0.51061,-0.82574 -0.0464,-9.51133 -0.0464,-9.51134 0.47721,-0.91349 c 0.82181,-1.57312 2.53459,-2.31518 4.274,-1.85172 1.12535,0.29985 2.27527,1.54278 2.53146,2.7362 0.13782,0.64205 0.17949,3.9166 0.14298,11.23547 l -0.0515,10.32934 -2.2153,0.0471 c -2.1454,0.0456 -2.24416,0.032 -3.13005,-0.43083 z m 6.30682,-2.04239 c 0.0523,-2.40663 0.0737,-2.53976 0.51641,-3.20797 0.25403,-0.38343 0.82553,-0.91091 1.27,-1.17217 l 0.80812,-0.47503 h 3.302 c 2.89906,0 3.37433,0.0386 3.89467,0.31614 1.18639,0.63285 1.87791,1.56899 2.12264,2.8735 0.25958,1.38366 -0.78382,3.2147 -2.19786,3.85698 -0.61177,0.27787 -1.18286,0.31235 -5.22865,0.31566 l -4.54186,0.004 z"
           id="path4030"
           inkscape:connector-curvature="0" />
        <path
           style="fill:#3d8cc4;stroke-width:0.16933332"
           d="m 117.04632,196.21862 c -1.02335,-0.40296 -1.57929,-0.90159 -1.9848,-1.78019 -0.292,-0.6327 -0.31285,-1.30329 -0.31632,-10.1757 l -0.004,-9.49837 0.394,-0.7463 c 0.2167,-0.41047 0.71856,-0.9749 1.11525,-1.2543 0.65125,-0.45869 0.84862,-0.508 2.03348,-0.508 1.16994,0 1.38849,0.0528 2.01561,0.48745 0.45013,0.31194 0.85693,0.80127 1.1298,1.35899 l 0.42641,0.87155 -0.0436,10.74834 -0.0436,10.74834 -1.94733,0.0371 c -1.58427,0.0302 -2.10168,-0.0237 -2.77516,-0.28889 z m 5.94374,0.23128 c -0.19609,-0.19609 -0.13742,-3.94797 0.0727,-4.6493 0.26517,-0.88506 1.01828,-1.75002 1.89197,-2.17297 0.65946,-0.31924 1.03291,-0.35387 3.81565,-0.35387 3.35847,0 3.90042,0.11024 4.83078,0.98265 1.76996,1.65971 1.34239,4.67307 -0.82049,5.78242 -0.82943,0.42542 -0.90464,0.43231 -5.25575,0.48163 -2.42785,0.0275 -4.46854,-0.004 -4.53486,-0.0706 z"
           id="path4028"
           inkscape:connector-curvature="0" />
        <path
           style="fill:#3684bc;stroke-width:0.16933332"
           d="m 116.85814,196.06473 c -0.37253,-0.17248 -0.88284,-0.53276 -1.13401,-0.80062 -0.99752,-1.06378 -0.98299,-0.90016 -0.97893,-11.02258 0.003,-8.66796 0.0243,-9.32087 0.31731,-9.95377 1.11188,-2.40155 4.25586,-2.84052 5.91743,-0.8262 0.298,0.36128 0.61604,0.92357 0.70674,1.24953 0.0988,0.35518 0.16529,4.81664 0.16585,11.13367 l 9.5e-4,10.541 -2.159,-0.004 c -1.73917,-0.003 -2.29072,-0.0647 -2.83634,-0.31731 z m 6.06764,0.0542 c -0.0563,-0.14677 -0.064,-1.13787 -0.017,-2.20245 0.10661,-2.41584 0.47156,-3.26759 1.73468,-4.04851 l 0.82411,-0.50951 h 3.31528 c 3.10994,0 3.35925,0.0235 4.02514,0.37943 2.01741,1.07836 2.5122,3.70734 1.01802,5.40911 -1.02627,1.16887 -1.34504,1.23089 -6.34752,1.23507 -3.89717,0.003 -4.46305,-0.0294 -4.55272,-0.26314 z"
           id="path4026"
           inkscape:connector-curvature="0" />
        <path
           style="fill:#0268b2;stroke-width:0.16933332"
           d="m 117.23185,196.12617 c -1.01083,-0.37099 -1.58292,-0.86371 -2.01017,-1.73126 l -0.39554,-0.80315 v -9.31333 -9.31334 l 0.39554,-0.80315 c 1.25859,-2.55564 4.96321,-2.48069 6.14666,0.12437 0.28773,0.63335 0.30861,1.39561 0.31208,11.38912 l 0.004,10.71033 -1.905,-0.0119 c -1.17827,-0.007 -2.15002,-0.10186 -2.54729,-0.24766 z m 5.91985,0.1467 c -0.0621,-0.0621 -0.11215,-0.99554 -0.11124,-2.07433 0.002,-2.41569 0.37067,-3.42045 1.53878,-4.19421 0.71465,-0.47339 0.74044,-0.47694 3.86518,-0.53136 1.95932,-0.0341 3.38233,0.0155 3.77309,0.13152 2.43187,0.72213 3.11917,4.01197 1.21192,5.80102 -0.9337,0.87584 -1.57977,0.98025 -6.06569,0.98025 -2.25453,0 -4.14995,-0.0508 -4.21204,-0.11289 z"
           id="path4024"
           inkscape:connector-curvature="0" />
      </g>
    </g>
  </g>
</svg>
