<?xml version="1.0" encoding="UTF-8" standalone="no"?>
<svg
   xmlns:dc="http://purl.org/dc/elements/1.1/"
   xmlns:cc="http://creativecommons.org/ns#"
   xmlns:rdf="http://www.w3.org/1999/02/22-rdf-syntax-ns#"
   xmlns:svg="http://www.w3.org/2000/svg"
   xmlns="http://www.w3.org/2000/svg"
   id="svg4114"
   version="1.1"
   viewBox="0 0 44.988269 46.282257"
   height="46.282257mm"
   width="44.98827mm">
  <defs
     id="defs4108" />
  <metadata
     id="metadata4111">
    <rdf:RDF>
      <cc:Work
         rdf:about="">
        <dc:format>image/svg+xml</dc:format>
        <dc:type
           rdf:resource="http://purl.org/dc/dcmitype/StillImage" />
        <dc:title></dc:title>
      </cc:Work>
    </rdf:RDF>
  </metadata>
  <g
     transform="translate(-69.49448,-150.89114)"
     id="layer1">
    <g
       transform="translate(5.6126601,3.4745043)"
       id="g4127">
      <path
         id="path4141"
         d="m 80.414435,193.19964 c -1.164166,-0.29256 -3.455471,-1.18573 -5.091789,-1.9848 -2.616823,-1.2779 -3.119356,-1.63572 -4.172761,-2.97114 -1.479268,-1.87528 -3.825847,-6.51851 -4.017888,-7.95028 l -0.142501,-1.06242 2.05512,-1.14757 c 1.130316,-0.63116 3.108685,-1.83948 4.396375,-2.68515 1.431398,-0.94005 2.470167,-1.45962 2.672974,-1.33697 0.182447,0.11033 0.862828,0.78811 1.511959,1.50618 l 1.180239,1.30558 2.224905,-0.17103 c 1.223698,-0.0941 2.3297,-0.23578 2.457782,-0.31494 0.128082,-0.0792 0.234737,-0.52385 0.23701,-0.98821 0.0063,-1.2916 0.692027,-3.92486 1.093501,-4.19929 0.69402,-0.4744 3.716002,-0.0717 5.230493,0.69694 1.399455,0.71029 4.059796,2.98919 4.54257,3.89126 0.34915,0.65239 -0.0926,1.61005 -1.393902,3.02179 -2.17452,2.35908 -4.989955,3.28565 -9.983653,3.28565 -3.248648,0 -3.341659,-0.0167 -5.352642,-0.96039 -2.351714,-1.10359 -3.391914,-1.08261 -2.330698,0.047 2.472699,2.63207 10.099884,3.32865 15.269289,1.39453 1.032161,-0.38618 1.949987,-1.00904 2.927863,-1.98692 2.225046,-2.22505 2.487277,-1.60815 1.596054,3.75474 -0.349374,2.10234 -1.794248,5.06775 -3.149806,6.46456 -0.601271,0.61957 -1.872671,1.49124 -2.825332,1.93704 -2.311987,1.08191 -5.74256,1.25616 -8.935162,0.45384 z m 16.158538,-9.05388 c 0.120791,-1.05503 0.235106,-3.46604 0.254037,-5.35781 0.02159,-2.15699 0.197377,-4.13022 0.47143,-5.29167 0.779671,-3.30428 0.458946,-7.27655 -0.537777,-6.66054 -0.14878,0.092 -0.330059,1.4496 -0.402846,3.01699 -0.200779,4.32366 -0.416372,4.51591 -2.887287,2.57465 -2.406647,-1.89077 -4.179125,-2.58707 -6.925642,-2.72067 -1.741388,-0.0847 -2.374463,-0.21331 -2.486437,-0.50511 -0.215611,-0.56187 0.419436,-7.70841 0.737844,-8.30336 0.146832,-0.27436 0.396113,-0.49884 0.553959,-0.49884 0.157845,0 3.894732,-1.42875 8.304193,-3.175 4.409461,-1.74625 8.311913,-3.175 8.672123,-3.175 0.8543,0 2.04359,1.35973 3.19311,3.65073 3.64048,7.25547 4.40002,16.00605 1.85607,21.38352 -0.87934,1.85877 -3.13363,4.29072 -4.83628,5.21741 -1.79234,0.97552 -4.144983,1.76293 -5.267309,1.76293 h -0.918808 z m 2.869822,-22.05487 c 0.238075,-0.0914 0.415978,-0.4621 0.412631,-0.8599 -0.0109,-1.29705 -1.757008,-2.77749 -2.52457,-2.14047 -0.619543,0.51418 -0.438144,1.30362 0.519621,2.26138 0.975212,0.97522 0.975894,0.97553 1.592318,0.73899 z m -31.51537,12.66216 c -0.504192,-0.5457 -1.621578,-2.04179 -2.483081,-3.32463 -1.807156,-2.691 -1.956592,-3.56978 -0.910562,-5.3547 0.634158,-1.0821 2.763307,-2.7639 3.499096,-2.7639 0.684857,0 2.267588,0.79903 3.923892,1.98094 1.478325,1.05491 1.683888,1.31202 1.850755,2.31487 0.103245,0.62048 0.467444,1.90206 0.809332,2.84794 0.587071,1.62422 0.596345,1.74416 0.166888,2.15819 -0.635147,0.61234 -5.114507,3.13348 -5.567313,3.13348 -0.204762,0 -0.784815,-0.44649 -1.289007,-0.99219 z m 11.003165,0.16778 c -2.138246,-2.289 -4.025646,-5.98358 -4.054117,-7.93593 -0.04284,-2.93784 3.098896,-4.75075 6.005127,-3.46518 2.058129,0.91041 2.1244,1.14727 1.860871,6.65093 -0.125659,2.62432 -0.343685,4.88039 -0.484503,5.01351 -0.140818,0.13312 -0.763764,0.32457 -1.384324,0.42545 -1.042314,0.16945 -1.190376,0.11697 -1.943054,-0.68878 z m 1.351554,-5.7313 c 0,-1.21002 -1.105769,-2.92514 -1.90892,-2.96088 -0.477426,-0.0212 -0.75124,1.08812 -0.496389,2.01111 0.338282,1.22516 1.001295,1.94923 1.784858,1.94923 0.541379,0 0.620451,-0.12738 0.620451,-0.99946 z m -9.083484,-7.1512 c -1.576176,-1.2709 -2.969061,-2.49529 -3.0953,-2.72086 -1.024177,-1.83011 7.134721,-7.08697 12.273386,-7.90788 2.031579,-0.32455 3.270725,-0.12763 3.487114,0.55416 0.144866,0.45643 -0.479628,8.48752 -0.8154,10.48617 -0.173447,1.03244 -0.395948,1.05351 -2.083553,0.19733 -2.25644,-1.14476 -4.396803,-0.8034 -5.651622,0.90137 -0.331778,0.45074 -0.748497,0.81524 -0.926041,0.80998 -0.177545,-0.005 -1.612407,-1.04937 -3.188584,-2.32027 z m 13.898624,-3.29529 c -0.279066,-0.33625 0.525621,-10.48092 0.876377,-11.04845 0.534971,-0.8656 3.670113,0.39793 5.722282,2.30621 1.680223,1.56241 3.402867,3.69831 3.402867,4.21921 0,0.21323 -0.625078,0.66544 -1.389062,1.00493 -0.763985,0.33948 -2.921326,1.34496 -4.794094,2.2344 -1.872767,0.88943 -3.435766,1.61715 -3.473332,1.61715 -0.03757,0 -0.192833,-0.15005 -0.345038,-0.33345 z"
         style="fill:#f7cfd3;stroke-width:0.26458335" />
      <path
         id="path4139"
         d="m 80.420707,192.93229 c -3.141006,-0.7958 -7.179401,-2.82065 -8.497808,-4.26079 -1.782907,-1.94752 -4.605338,-7.25034 -4.605338,-8.65256 0,-0.6395 0.117387,-0.73033 3.307291,-2.55891 1.455209,-0.83419 3.220604,-1.93538 3.923101,-2.44708 l 1.277268,-0.93037 1.548528,1.53237 1.548529,1.53237 2.201287,-0.18283 c 1.210708,-0.10055 2.331498,-0.32672 2.490644,-0.5026 0.159145,-0.17588 0.42845,-1.26178 0.598453,-2.41312 0.170003,-1.15134 0.45304,-2.26678 0.628971,-2.47877 0.503246,-0.60637 3.467477,-0.29241 5.109735,0.54121 1.40281,0.71208 3.918286,2.82046 4.368337,3.66139 0.566687,1.05887 -1.385385,3.54471 -3.718097,4.73477 -1.884995,0.96166 -3.908906,1.32328 -7.405955,1.32328 -3.255907,0 -3.365645,-0.0193 -5.257638,-0.92604 -2.141698,-1.02638 -2.480593,-1.0918 -2.919053,-0.56349 -0.237062,0.28565 -0.0768,0.56501 0.755459,1.31691 1.31878,1.19144 2.362806,1.63288 4.730661,2.00027 5.531147,0.85818 10.359469,-0.12754 13.159441,-2.68655 1.176861,-1.07559 1.527257,-1.27388 1.720207,-0.97351 0.13327,0.20746 0.190407,0.67486 0.12697,1.03866 -0.06343,0.36381 -0.192082,1.3559 -0.285882,2.20467 -0.487989,4.41563 -2.710455,7.79605 -6.165456,9.37781 -2.049283,0.93819 -5.656122,1.06882 -8.639655,0.31291 z m 16.421837,-8.78653 c 0.123523,-0.90951 0.237307,-3.20146 0.252854,-5.09323 0.0173,-2.10668 0.199853,-4.24322 0.471049,-5.51338 0.495532,-2.32086 0.579405,-5.33761 0.177771,-6.39399 -0.195861,-0.51515 -0.420236,-0.67498 -0.859896,-0.61254 -0.563602,0.08 -0.603687,0.23755 -0.76222,2.99491 -0.167174,2.90772 -0.354306,3.83646 -0.773004,3.83646 -0.122245,0 -0.972711,-0.56792 -1.889921,-1.26204 -2.382486,-1.803 -4.136758,-2.4919 -6.827033,-2.68096 l -2.248959,-0.15804 0.07762,-2.77813 c 0.118709,-4.24862 0.331395,-5.34328 1.11498,-5.73859 1.694315,-0.85477 15.517875,-6.18923 16.407015,-6.33141 0.9627,-0.15394 1.04456,-0.10663 1.94811,1.12601 1.28429,1.75206 2.96385,5.64426 3.78067,8.76132 0.89383,3.41096 1.1371,8.85971 0.51396,11.5116 -0.81439,3.46579 -2.62867,6.19328 -5.24414,7.88374 -1.6957,1.09598 -4.36947,2.10191 -5.586892,2.10191 h -0.77655 z m 2.771577,-21.90358 c 0.335076,-0.17933 0.511769,-0.55387 0.511769,-1.08479 0,-1.03819 -1.555752,-2.69065 -2.413248,-2.56326 -1.317294,0.19569 -1.30425,1.83264 0.02519,3.16209 0.82863,0.82863 1.103137,0.89973 1.876279,0.48596 z m -31.430773,12.37858 c -0.454034,-0.47294 -1.548953,-1.92402 -2.433152,-3.22461 -1.728537,-2.54254 -1.958138,-3.46606 -1.217698,-4.89791 0.473308,-0.91528 2.419976,-2.62395 3.217475,-2.82411 0.74186,-0.18619 2.512396,0.63057 4.197796,1.93649 1.191786,0.92344 1.36494,1.1946 1.746878,2.73556 0.233179,0.94078 0.614364,2.15774 0.847078,2.70434 0.400593,0.94092 0.395754,1.01931 -0.09091,1.47271 -0.597471,0.55663 -4.807245,2.95742 -5.185817,2.95742 -0.140874,0 -0.627617,-0.38695 -1.081652,-0.85989 z m 10.618986,-0.27428 c -2.292888,-2.61174 -4.041096,-6.4802 -3.677206,-8.13699 0.246089,-1.12043 1.304341,-2.28045 2.41469,-2.6469 1.623265,-0.53573 4.244162,0.18591 4.860963,1.33841 0.365337,0.68264 0.03776,9.37482 -0.373348,9.90657 -0.159545,0.20637 -0.71787,0.45198 -1.240724,0.5458 -0.880411,0.15799 -1.027012,0.0836 -1.984375,-1.00689 z m 1.697351,-4.91647 c 0.04689,-0.4902 -0.05853,-1.23838 -0.234252,-1.66262 -0.34835,-0.84099 -1.425271,-1.81174 -2.009894,-1.81174 -0.61171,0 -0.924909,1.24605 -0.608527,2.421 0.368615,1.36893 1.142859,2.13223 2.055847,2.0268 0.594506,-0.0686 0.725602,-0.2288 0.796826,-0.97344 z m -9.056647,-7.52165 c -1.441768,-1.19373 -2.745958,-2.37102 -2.898198,-2.61621 -0.433507,-0.69818 0.254083,-1.68074 2.201952,-3.14659 4.100553,-3.08582 10.165915,-5.29391 12.306359,-4.48011 0.727189,0.27647 0.737459,0.31037 0.584116,1.928 -0.08585,0.90562 -0.301634,3.281 -0.479526,5.27862 -0.177892,1.99763 -0.409072,3.77061 -0.513735,3.93995 -0.135839,0.2198 -0.591594,0.10793 -1.592611,-0.3909 -2.38801,-1.18999 -4.768878,-0.78614 -5.94468,1.00836 -0.242924,0.37075 -0.576815,0.66851 -0.74198,0.66169 -0.165165,-0.007 -1.479928,-0.98909 -2.921697,-2.18281 z m 13.772919,-3.56249 c -0.06848,-0.11079 -0.02015,-1.21212 0.107401,-2.44739 0.127546,-1.23527 0.348524,-3.48354 0.491061,-4.99615 0.142537,-1.51261 0.383263,-2.8743 0.534946,-3.02598 0.432172,-0.43217 2.866983,0.46327 4.367136,1.60609 1.557067,1.18617 4.190433,4.21552 4.045511,4.65383 -0.117423,0.35513 -0.135867,0.36491 -5.058043,2.68145 -3.638196,1.71226 -4.246269,1.9193 -4.488012,1.52815 z"
         style="fill:#f39da6;stroke-width:0.26458335" />
      <path
         id="path4137"
         d="m 80.282144,192.69548 c -2.233011,-0.60312 -5.396193,-1.93856 -6.795965,-2.86915 -1.862739,-1.23838 -3.738023,-4.01469 -5.426954,-8.03447 -0.915575,-2.17914 -0.918344,-2.17297 1.598628,-3.55989 0.968412,-0.53362 2.754181,-1.62408 3.968374,-2.42324 l 2.207625,-1.45303 1.537968,1.52192 1.537968,1.52192 2.07524,-0.19329 c 1.141382,-0.1063 2.272552,-0.29821 2.51371,-0.42644 0.294584,-0.15665 0.537702,-0.86389 0.740868,-2.15522 0.498888,-3.17095 0.51439,-3.18926 2.598708,-3.06853 1.173203,0.0679 2.228303,0.32183 3.101121,0.7462 1.473002,0.71619 4.365625,3.37422 4.365625,4.01157 0,0.65161 -1.48763,2.53074 -2.697054,3.40685 -1.912397,1.38533 -4.347712,1.97249 -8.190838,1.97483 l -3.347267,0.002 -2.114524,-1.03095 c -2.116345,-1.03184 -2.825182,-1.0954 -3.137561,-0.28135 -0.225447,0.5875 1.061579,1.85277 2.700038,2.6544 1.005401,0.49189 2.128751,0.73879 4.373688,0.96126 5.147484,0.51011 9.601431,-0.60522 12.073465,-3.02336 1.399397,-1.36889 1.584312,-1.06044 1.149011,1.91661 -0.796491,5.44723 -2.970278,8.50994 -7.007653,9.87329 -1.719962,0.58071 -5.537391,0.5456 -7.824221,-0.072 z m 16.604879,-7.21998 c -0.05938,-0.17814 -0.01495,-0.80322 0.09872,-1.38906 0.113679,-0.58584 0.213437,-2.61297 0.221687,-4.50474 0.01024,-2.34687 0.180901,-4.23811 0.537213,-5.95313 0.875516,-4.21406 0.543107,-7.40833 -0.770941,-7.40833 -0.803082,0 -1.081143,0.80361 -1.081143,3.12453 0,2.30174 -0.211344,3.75463 -0.546163,3.75463 -0.118489,0 -1.1259,-0.65323 -2.23869,-1.45162 -2.41554,-1.73307 -4.846368,-2.58923 -7.00473,-2.46715 l -1.455208,0.0823 0.06838,-3.3073 c 0.07394,-3.57622 0.274081,-4.73883 0.871287,-5.06115 1.259187,-0.6796 15.584245,-6.13551 16.394915,-6.24424 0.87618,-0.11752 1.05531,-0.0346 1.67192,0.7738 1.13596,1.48933 3.0271,5.76291 3.73053,8.43021 2.08835,7.91884 1.23032,14.03501 -2.5433,18.12891 -1.13824,1.23484 -3.82196,2.74772 -6.020396,3.39386 -1.725761,0.50721 -1.796627,0.51081 -1.934078,0.0985 z m 3.317297,-23.51379 c 0.68364,-1.09263 -0.968755,-3.41439 -2.430014,-3.41439 -1.503389,0 -1.64995,1.72371 -0.271986,3.19883 0.588216,0.62969 0.935413,0.7867 1.594908,0.72127 0.463653,-0.046 0.961842,-0.27357 1.107092,-0.50571 z m -32.156898,12.2369 c -1.041344,-1.15264 -2.805786,-3.69675 -3.498755,-5.04477 -0.385709,-0.75031 -0.414399,-1.06883 -0.169807,-1.8852 0.338516,-1.12987 2.280712,-3.05625 3.352563,-3.32527 0.875881,-0.21983 2.36202,0.46407 4.243105,1.95262 1.183618,0.93663 1.370306,1.21856 1.517364,2.29146 0.09223,0.67289 0.428182,1.82896 0.74656,2.56905 l 0.578869,1.34562 -0.63831,0.48148 c -0.832576,0.62801 -4.596986,2.63247 -4.943831,2.63247 -0.1477,0 -0.682191,-0.45786 -1.187758,-1.01746 z m 10.777748,-0.10702 c -1.534854,-1.78105 -3.023958,-4.48218 -3.363567,-6.10127 -0.269143,-1.28315 -0.250605,-1.61862 0.134012,-2.42517 0.682272,-1.43074 1.855077,-2.04033 3.697897,-1.92205 1.010331,0.0649 1.769238,0.28185 2.248958,0.64306 l 0.724049,0.54518 -0.08371,4.86164 c -0.09136,5.30571 -0.156932,5.52309 -1.666031,5.52309 -0.521679,0 -0.991973,-0.31262 -1.691605,-1.12448 z m 1.740978,-3.93889 c 0.633026,-1.18282 -0.235381,-3.3555 -1.629276,-4.07631 -0.650773,-0.33653 -0.786198,-0.33272 -1.151334,0.0324 -0.851277,0.85127 -0.304609,3.65517 0.842954,4.32356 0.767913,0.44727 1.613962,0.32516 1.937656,-0.27967 z m -8.618379,-8.06787 c -3.079271,-2.52874 -3.571875,-2.98176 -3.571875,-3.28484 0,-0.52601 2.458909,-2.65453 4.561003,-3.94817 2.961495,-1.82252 6.191568,-2.96232 8.535872,-3.01207 l 1.852083,-0.0393 0.08469,1.03527 c 0.108902,1.3313 -0.718238,9.48073 -0.99066,9.76052 -0.113776,0.11685 -0.628043,-0.036 -1.142815,-0.33976 -2.096605,-1.23703 -4.81971,-0.89266 -6.044855,0.76443 -0.332656,0.44994 -0.731266,0.8145 -0.8858,0.81012 -0.154535,-0.004 -1.233472,-0.79017 -2.397639,-1.7462 z m 13.52074,-3.75842 c -0.140475,-0.2273 0.530964,-8.7418 0.770218,-9.76711 0.402345,-1.72423 4.599723,0.56645 7.315763,3.99251 0.558335,0.70429 1.015154,1.38186 1.015154,1.50571 0,0.12385 -1.63711,1.01868 -3.638021,1.98851 -4.785037,2.31927 -5.304952,2.53629 -5.463114,2.28038 z"
         style="fill:#f07786;stroke-width:0.26458335" />
      <path
         id="path4135"
         d="m 82.795685,193.04215 c -0.291041,-0.0573 -1.18401,-0.23462 -1.984375,-0.39401 -1.883378,-0.37507 -5.504117,-1.86737 -7.267221,-2.99522 -1.576989,-1.00879 -3.294582,-3.38083 -4.787014,-6.61101 -1.564626,-3.38642 -1.593459,-3.26315 1.118951,-4.78384 1.284979,-0.72041 3.096233,-1.81863 4.025007,-2.4405 0.928775,-0.62187 1.758469,-1.13067 1.843764,-1.13067 0.08529,0 0.777976,0.61516 1.53929,1.36702 1.007928,0.99541 1.58558,1.36617 2.124987,1.36393 1.696754,-0.007 4.296207,-0.41005 4.51337,-0.69973 0.128406,-0.17128 0.385667,-1.26392 0.57169,-2.42809 0.186023,-1.16417 0.471841,-2.27965 0.635151,-2.47884 0.427643,-0.52161 2.922414,-0.24073 4.516301,0.50849 1.709473,0.80355 4.394891,3.2955 4.394891,4.07826 0,0.96213 -2.040861,3.03808 -3.808582,3.87408 -2.262836,1.07016 -4.035739,1.36234 -7.540772,1.24278 -2.933638,-0.10008 -3.156944,-0.14909 -5.012056,-1.10017 -1.841558,-0.94414 -1.9745,-0.97389 -2.579687,-0.57736 -0.896472,0.58739 -0.800955,1.01898 0.465416,2.10294 1.815302,1.55383 3.538194,2.05945 7.495473,2.1997 5.312392,0.18827 8.444375,-0.65798 10.955498,-2.96015 l 1.165916,-1.0689 -0.162655,2.11667 c -0.44672,5.81331 -3.373128,9.68767 -8.069178,10.68303 -1.363437,0.28899 -3.078918,0.34333 -4.154165,0.13159 z m 14.296433,-8.36722 c 0.114051,-0.47295 0.234471,-2.58819 0.267596,-4.70055 0.03702,-2.36054 0.236202,-4.70342 0.516848,-6.0794 1.021559,-5.00859 0.343509,-8.63719 -1.43601,-7.68482 -0.395237,0.21153 -0.494702,0.7314 -0.611529,3.19621 -0.14973,3.15898 -0.377822,3.74776 -1.21575,3.13823 -3.864924,-2.81142 -5.226634,-3.39884 -7.899369,-3.40767 -1.046437,-0.003 -1.96267,-0.10345 -2.036072,-0.22222 -0.253966,-0.41092 0.390316,-7.32034 0.711539,-7.63069 0.3677,-0.35525 15.340179,-6.29896 16.520319,-6.55816 0.6739,-0.14801 0.89922,-0.0472 1.50589,0.67379 1.7122,2.03483 3.77594,7.28338 4.50283,11.45172 1.37159,7.86525 -0.76814,14.26701 -5.65818,16.92851 -1.51308,0.82352 -4.089658,1.75494 -4.854663,1.75494 -0.453739,0 -0.49411,-0.11075 -0.313449,-0.85989 z m 2.63553,-22.06265 c 1.289802,-0.49495 0.812702,-2.86476 -0.771202,-3.83062 -0.994889,-0.60669 -1.572734,-0.62936 -2.118945,-0.0831 -0.751197,0.7512 -0.515707,1.9278 0.611431,3.05494 1.021932,1.02193 1.441548,1.18008 2.278716,0.85883 z M 68.33906,174.36503 c -0.449314,-0.47781 -1.529201,-1.94031 -2.399749,-3.25 -1.383757,-2.08178 -1.566507,-2.50343 -1.453149,-3.35276 0.149854,-1.12278 0.696035,-1.92789 1.994432,-2.93991 1.381397,-1.07673 2.287577,-0.95766 4.628685,0.60817 1.828026,1.22266 1.998541,1.41502 2.169374,2.44739 0.101973,0.61625 0.409727,1.71575 0.683898,2.44336 0.274171,0.7276 0.498553,1.45482 0.498626,1.61604 1.37e-4,0.30053 -2.157953,1.71013 -4.173878,2.72624 l -1.131303,0.57023 z m 10.110557,-0.92231 c -2.785282,-3.72714 -3.620313,-6.89063 -2.249016,-8.52032 1.324219,-1.57375 4.069951,-1.64822 5.567165,-0.15101 0.725189,0.72519 0.731275,0.86464 0.276825,6.34364 l -0.307239,3.70417 -1.070713,0.0787 c -1.027341,0.0755 -1.117148,0.0166 -2.217022,-1.45521 z M 80.426165,170.61 c 1.085888,-0.79402 0.243475,-3.80976 -1.294075,-4.63263 -0.95222,-0.50962 -1.712195,-0.15066 -1.909674,0.90199 -0.335543,1.7886 0.954902,3.85771 2.546137,4.08249 0.08133,0.0115 0.377253,-0.14684 0.657612,-0.35185 z m -9.005899,-9.14866 c -1.454294,-1.16066 -2.685878,-2.23541 -2.736854,-2.38834 -0.321116,-0.96335 2.833973,-3.45936 6.70394,-5.30353 2.919922,-1.39145 4.939705,-1.92832 6.746875,-1.79336 l 1.190625,0.0889 -0.09304,1.98437 c -0.116896,2.49323 -0.723756,8.18103 -0.890685,8.34796 -0.06882,0.0688 -0.697767,-0.12818 -1.397664,-0.43778 -2.273824,-1.00582 -4.836622,-0.58565 -5.848633,0.95887 -0.236388,0.36078 -0.564931,0.65533 -0.730096,0.65456 -0.165165,-7.6e-4 -1.490176,-0.95102 -2.944469,-2.11167 z m 14.154624,-3.90621 c 0.002,-1.37182 0.768977,-9.07417 0.929379,-9.33371 0.219151,-0.35459 1.329846,-0.0606 2.866566,0.75886 1.437682,0.76661 5.000464,4.41326 4.879882,4.99476 -0.06103,0.29432 -8.027474,4.3077 -8.550663,4.3077 -0.06943,0 -0.125758,-0.32742 -0.125164,-0.72761 z"
         style="fill:#ee5668;stroke-width:0.26458335" />
      <path
         id="path4133"
         d="m 80.414435,192.40472 c -3.184437,-0.80203 -7.284154,-2.89143 -8.405079,-4.28362 -1.634155,-2.02961 -4.16483,-6.92161 -4.160883,-8.04332 0.0012,-0.34718 0.696139,-0.88699 2.315104,-1.79839 1.272347,-0.71626 2.991435,-1.75806 3.820195,-2.3151 0.82876,-0.55704 1.632052,-1.0128 1.785092,-1.0128 0.15304,0 0.85206,0.59531 1.553377,1.32291 1.402578,1.45515 1.807621,1.54191 5.049058,1.0815 1.72268,-0.24469 2.017677,-0.59243 2.230581,-2.62939 0.08911,-0.85259 0.281776,-1.86513 0.428138,-2.25009 0.242113,-0.63681 0.394125,-0.69993 1.685609,-0.69993 1.888247,0 4.100831,1.11303 5.959872,2.9981 1.403253,1.42291 1.410343,1.43836 1.012503,2.2077 -0.660787,1.27783 -2.627887,2.88544 -4.292947,3.50842 -3.590713,1.34346 -8.952226,1.24619 -11.643057,-0.21123 -1.776542,-0.96221 -2.495704,-1.03318 -3.149478,-0.31076 -0.611084,0.67524 -0.440077,1.05244 1.019265,2.24826 3.959483,3.2445 14.197402,2.90379 18.194251,-0.60549 0.518123,-0.45492 0.997363,-0.7718 1.06498,-0.70419 0.242305,0.24231 -0.320159,3.77664 -0.845283,5.31146 -1.015175,2.96712 -2.814349,4.9885 -5.419214,6.08849 -1.661897,0.7018 -5.616033,0.74879 -8.202084,0.0975 z m 16.975098,-8.65584 c 0.116671,-0.83674 0.18919,-2.83104 0.16115,-4.43177 -0.03598,-2.05384 0.10187,-3.62936 0.468365,-5.35319 0.947346,-4.45591 0.546582,-8.00827 -0.903462,-8.00827 -1.196708,0 -1.48726,0.60942 -1.491221,3.12776 -0.0039,2.46968 -0.172505,3.48683 -0.57803,3.48683 -0.140438,0 -0.758388,-0.41221 -1.373219,-0.91602 -1.946799,-1.59525 -4.460766,-2.59956 -6.853992,-2.7381 l -2.102498,-0.12171 0.182943,-2.80844 c 0.225075,-3.45524 0.438956,-4.54756 0.944507,-4.8237 1.072905,-0.58605 15.883664,-6.31912 16.324754,-6.31912 1.56241,0 4.32869,5.79252 5.49348,11.50324 0.5521,2.70678 0.55992,7.67518 0.0153,9.73402 -1.13886,4.30555 -3.83669,7.24595 -7.94504,8.65943 -2.483651,0.8545 -2.59389,0.80788 -2.343068,-0.99096 z m 3.057657,-21.58009 c 0.92912,-1.46123 -1.393412,-4.47017 -3.116593,-4.03768 -0.796044,0.1998 -1.302747,1.18796 -1.074819,2.0961 0.211177,0.84139 1.412012,2.27686 2.128744,2.54468 0.604597,0.22592 1.748128,-0.10844 2.062668,-0.6031 z m -32.656846,11.26134 c -2.014685,-2.56967 -3.118617,-4.4741 -3.118617,-5.38002 0,-1.7985 2.422931,-4.18292 3.894871,-3.83296 1.314685,0.31258 4.297428,2.51762 4.449916,3.28967 0.0758,0.38379 0.372358,1.48015 0.659016,2.43636 0.286659,0.95621 0.521197,1.86999 0.521197,2.03063 0,0.29323 -4.465531,2.97768 -4.953306,2.97768 -0.143165,0 -0.797049,-0.68461 -1.453077,-1.52136 z m 11.553417,0.82158 c -1.963261,-2.11839 -3.640034,-5.45212 -3.670904,-7.29842 -0.01797,-1.0746 0.101236,-1.37352 0.844063,-2.11666 0.781808,-0.78214 1.015281,-0.86535 2.427993,-0.86535 1.182612,0 1.744813,0.13678 2.310016,0.562 l 0.747006,0.56201 -0.08847,4.59737 c -0.07385,3.83769 -0.158715,4.65202 -0.513591,4.9281 -0.66349,0.51617 -1.349907,0.39296 -2.056117,-0.36905 z m 1.316359,-3.68475 c 0.974258,-0.97425 0.09886,-3.79466 -1.46441,-4.71811 -1.016303,-0.60034 -1.761435,-0.33765 -2.039226,0.71893 -0.67806,2.579 1.937881,5.56494 3.503636,3.99918 z m -9.076476,-9.18586 c -1.563163,-1.24174 -2.678583,-2.32052 -2.678583,-2.59059 0,-1.03715 4.214935,-4.00659 7.862383,-5.53908 1.966828,-0.82638 5.309111,-1.49897 6.045166,-1.21652 0.393694,0.15108 0.42992,0.43699 0.28108,2.21844 -0.391235,4.68265 -0.789324,7.99814 -0.960333,7.99814 -0.100327,0 -0.565047,-0.19089 -1.03271,-0.42419 -2.1094,-1.0523 -4.364027,-0.79279 -5.827594,0.67078 l -1.010825,1.01082 z m 14.107698,-3.95826 c 0.07019,-0.32742 0.256696,-2.32172 0.414463,-4.43177 0.321492,-4.29978 0.410791,-4.7625 0.919108,-4.7625 0.655165,0 2.637369,0.98462 3.708272,1.842 1.69277,1.35527 3.582662,3.77932 3.25465,4.17455 -0.152204,0.1834 -0.395856,0.33345 -0.541448,0.33345 -0.145595,0 -1.874084,0.77391 -3.841091,1.71979 -1.967006,0.94589 -3.681043,1.71979 -3.808971,1.71979 -0.127928,0 -0.17517,-0.26789 -0.104983,-0.59531 z"
         style="fill:#ed3148;stroke-width:0.26458335" />
      <path
         id="path4131"
         d="m 79.81577,192.004 c -1.202391,-0.35552 -3.258005,-1.18471 -4.568032,-1.84265 -2.081226,-1.04525 -2.53472,-1.40388 -3.592876,-2.84128 -1.100754,-1.49527 -3.267644,-5.6216 -3.653097,-6.95645 -0.133703,-0.46303 0.25387,-0.77487 2.689196,-2.16377 1.564978,-0.89253 3.321415,-1.97253 3.903194,-2.4 l 1.05778,-0.77721 1.501713,1.41963 c 1.094282,1.03447 1.704447,1.41821 2.248958,1.41439 1.347263,-0.009 4.403091,-0.52882 4.735734,-0.80489 0.179083,-0.14862 0.477047,-1.28815 0.662143,-2.53228 0.295221,-1.98434 0.413633,-2.29137 0.964499,-2.50081 0.771819,-0.29344 2.615819,0.0885 4.111609,0.85157 1.226627,0.62578 3.899303,3.05052 3.899303,3.53758 0,0.17668 -0.501209,0.89064 -1.113798,1.58658 -2.094069,2.37899 -5.808471,3.52238 -10.453132,3.21775 -2.08177,-0.13653 -2.710234,-0.29664 -4.292874,-1.09365 -2.215512,-1.11571 -2.716025,-1.15131 -3.429752,-0.24395 -0.63792,0.81098 -0.481066,1.25884 0.828904,2.36672 1.506318,1.27394 3.311305,1.91753 6.31412,2.25137 4.616151,0.5132 9.282388,-0.39554 11.766119,-2.29141 0.648309,-0.49486 1.234964,-0.89975 1.303681,-0.89975 0.202743,0 -0.144475,2.39738 -0.573166,3.95745 -0.926659,3.37224 -2.974311,5.82022 -5.731223,6.85171 -2.163204,0.80936 -5.62664,0.76631 -8.579003,-0.10665 z m 17.848303,-11.19099 c 0.07239,-2.93716 0.291383,-5.36783 0.656804,-7.29013 1.055529,-5.55262 -0.04747,-9.1106 -2.311601,-7.45663 -0.439547,0.3211 -0.526344,0.7693 -0.602049,3.10886 -0.04865,1.50352 -0.183531,2.83283 -0.29973,2.95402 -0.116198,0.1212 -0.780315,-0.21401 -1.475815,-0.74489 -2.474235,-1.88863 -5.743877,-3.0271 -7.818998,-2.72254 l -0.845041,0.12402 0.167112,-3.10792 c 0.190193,-3.53719 0.419963,-4.36416 1.283795,-4.62056 0.335758,-0.0997 3.73719,-1.42724 7.558736,-2.95017 3.821547,-1.52294 7.347694,-2.8338 7.835874,-2.91302 0.7766,-0.12602 0.97113,-0.0329 1.55538,0.74472 1.54943,2.0622 3.24807,6.32821 4.01657,10.08732 1.99766,9.77155 -1.09571,16.62963 -8.478282,18.79658 l -1.351359,0.39665 z m 2.726407,-18.29694 c 0.67519,-0.67519 0.67349,-1.68839 -0.005,-2.78566 -0.7454,-1.20609 -1.688126,-1.75837 -2.835701,-1.66126 -0.787709,0.0667 -1.016492,0.22419 -1.270812,0.87505 -0.414028,1.05957 -0.08189,2.18365 0.960152,3.24947 0.997468,1.02024 2.318062,1.15536 3.151021,0.3224 z M 68.205667,173.6752 c -1.290149,-1.55461 -3.534093,-5.09318 -3.532584,-5.57068 0.004,-1.26078 2.38906,-3.73637 3.599757,-3.73637 0.323339,0 1.477242,0.59484 2.564229,1.32186 1.889148,1.26354 1.984559,1.37666 2.162629,2.56412 0.102459,0.68324 0.40927,1.80797 0.681803,2.49939 l 0.495516,1.25713 -2.305249,1.33795 c -1.267887,0.73587 -2.424312,1.33588 -2.569832,1.33335 -0.145521,-0.003 -0.638842,-0.45556 -1.096269,-1.00675 z m 10.506175,-0.50965 c -1.57775,-2.12414 -2.666226,-4.38052 -2.846196,-5.90009 -0.143812,-1.21427 -0.09719,-1.34696 0.782411,-2.22655 0.814059,-0.81406 1.101723,-0.93521 2.218566,-0.93435 0.828068,6.3e-4 1.599981,0.1941 2.176243,0.54542 l 0.893013,0.54443 -0.192826,4.54781 c -0.106054,2.50129 -0.247046,4.63711 -0.313316,4.74625 -0.06627,0.10914 -0.450652,0.19843 -0.854184,0.19843 -0.585786,0 -0.961496,-0.30669 -1.863711,-1.52135 z m 2.099468,-2.4474 c 1.455215,-1.45521 -0.43877,-5.35781 -2.60022,-5.35781 -0.898671,0 -1.36853,0.72588 -1.36853,2.11423 0,2.712 2.476412,4.73592 3.96875,3.24358 z m -9.192713,-9.56083 c -3.093869,-2.49341 -3.082661,-2.4185 -0.650534,-4.34819 2.92255,-2.3188 8.370501,-4.61181 10.957169,-4.61181 h 1.002745 l -0.0055,1.12448 c -0.0073,1.4969 -0.713881,8.41434 -0.876021,8.57648 -0.0702,0.0702 -0.493841,-0.0617 -0.941419,-0.29318 -2.096446,-1.08411 -4.944744,-0.65238 -6.189553,0.93819 l -0.610005,0.77945 z m 14.331988,-4.49159 c 0.149907,-1.11861 0.673235,-7.16411 0.678829,-7.84185 0.0043,-0.51705 0.834606,-0.3918 2.324485,0.35064 1.445962,0.72055 5.283563,4.53951 4.90075,4.87694 -0.174056,0.15343 -6.51281,3.13926 -7.707232,3.63045 -0.274893,0.11305 -0.318199,-0.11053 -0.196832,-1.01618 z"
         style="fill:#ec223b;stroke-width:0.26458335" />
      <path
         id="path4129"
         d="m 81.277714,192.2696 c -1.955482,-0.43836 -5.365293,-1.80134 -7.207828,-2.88114 -1.47027,-0.86164 -3.189151,-3.22793 -4.772008,-6.56937 -0.652612,-1.37768 -1.18545,-2.61016 -1.184084,-2.73884 0.0014,-0.12869 1.268565,-0.9471 2.815997,-1.81871 1.547432,-0.8716 3.242955,-1.90703 3.767829,-2.30096 l 0.954315,-0.71622 1.322917,1.29254 c 1.49166,1.45742 1.782009,1.53175 4.827862,1.23604 2.365244,-0.22964 2.977346,-0.57612 2.977346,-1.68537 0,-0.37301 0.139643,-1.43606 0.310317,-2.36235 l 0.310318,-1.68415 h 1.002674 c 1.707656,0 3.815569,0.97759 5.529591,2.56447 0.868092,0.80371 1.57835,1.65008 1.57835,1.88083 0,0.76928 -2.735003,3.12197 -4.390633,3.77688 -1.378206,0.54517 -2.01675,0.61944 -5.413984,0.62972 l -3.851491,0.0116 -1.896019,-0.99219 c -2.199692,-1.1511 -2.397259,-1.17743 -3.329899,-0.44382 -1.006664,0.79184 -0.891552,1.59567 0.394953,2.75795 2.184226,1.97331 5.045735,2.66408 10.126804,2.44458 3.71254,-0.16037 6.012473,-0.77713 8.075742,-2.1656 1.307793,-0.88008 1.342861,-0.88798 1.342861,-0.30244 0,1.12488 -1.056527,4.73736 -1.713257,5.85798 -0.910868,1.55428 -3.078149,3.42681 -4.572132,3.95031 -1.781218,0.62415 -4.866827,0.73787 -7.006541,0.25821 z m 16.344377,-7.71353 c 0.11493,-0.26205 0.241509,-2.32193 0.281289,-4.5775 0.04297,-2.43643 0.240221,-4.88667 0.485961,-6.03657 0.227499,-1.06454 0.413636,-2.9436 0.413636,-4.17568 0,-3.5046 -0.857576,-4.84416 -2.57543,-4.02291 -0.71537,0.342 -0.735508,0.41409 -0.893625,3.1989 -0.08897,1.56696 -0.226097,2.91336 -0.304729,2.99199 -0.07863,0.0786 -0.684644,-0.2705 -1.346689,-0.77585 -2.153939,-1.64414 -4.025125,-2.36993 -6.454045,-2.50336 l -2.18181,-0.11986 0.169091,-2.28197 c 0.261366,-3.52729 0.456608,-4.58775 0.887237,-4.81908 0.562833,-0.30234 13.072271,-5.23316 14.781563,-5.82642 0.78106,-0.27108 1.53708,-0.42058 1.68006,-0.33222 0.60014,0.37091 2.2882,3.36516 3.05707,5.42257 1.9089,5.10804 2.60032,10.18513 1.92857,14.16146 -0.86151,5.09951 -4.30177,8.76479 -9.37604,9.98931 -0.664946,0.16046 -0.734677,0.12348 -0.552109,-0.29281 z m 2.485359,-21.58088 c 2.10437,-1.0696 0.1747,-5.21709 -2.428952,-5.22063 -1.705367,-0.002 -2.294933,1.93179 -1.160259,3.80629 0.973233,1.60779 2.232406,2.10397 3.589211,1.41434 z m -32.156099,10.04555 c -1.679722,-2.12911 -3.01504,-4.36575 -3.01504,-5.05017 0,-0.65273 0.741695,-1.74746 1.852083,-2.73364 1.034737,-0.91899 2.044342,-0.76866 3.976871,0.59215 1.676724,1.18069 1.706314,1.2231 2.261044,3.24115 0.309148,1.12464 0.640895,2.22378 0.737216,2.44253 0.1287,0.29229 -0.380472,0.7307 -1.920578,1.65365 -1.15264,0.69075 -2.255432,1.25028 -2.450651,1.24339 -0.195219,-0.007 -0.843645,-0.63196 -1.440945,-1.38906 z m 10.504147,-0.57089 c -1.776834,-2.57029 -2.393748,-3.97132 -2.400877,-5.45251 -0.0048,-1.00602 0.129465,-1.33681 0.805682,-1.98437 0.68365,-0.65468 1.018161,-0.77404 2.123339,-0.75764 1.922523,0.0285 2.731089,0.71366 2.831767,2.39947 0.04293,0.71886 -0.03882,1.59978 -0.181667,1.95759 -0.258846,0.64836 -0.25978,0.64851 -0.276494,0.0447 -0.06203,-2.24096 -3.100652,-4.48332 -4.230511,-3.12192 -0.4864,0.58608 -0.626838,2.05835 -0.308951,3.23889 0.690725,2.56516 3.508006,3.56607 4.433002,1.57494 0.381352,-0.82089 0.381518,-0.82056 0.235655,0.47223 -0.08028,0.71153 -0.145966,1.81286 -0.145966,2.44739 0,1.09436 -0.03913,1.1537 -0.760704,1.1537 -0.64792,0 -0.962872,-0.29245 -2.124275,-1.97247 z m -6.680191,-11.40449 c -1.360354,-1.10286 -2.508436,-2.10222 -2.551293,-2.2208 -0.142914,-0.39543 2.606381,-2.57223 4.795161,-3.79664 2.691653,-1.50573 5.811256,-2.56602 7.549756,-2.56602 h 1.325777 l -0.105727,0.8599 c -0.05815,0.47294 -0.245955,2.55654 -0.417343,4.63021 -0.171389,2.07367 -0.339911,3.77031 -0.374493,3.77031 -0.03458,0 -0.490312,-0.17859 -1.012733,-0.39687 -1.188755,-0.4967 -3.616292,-0.51302 -4.767384,-0.0321 -0.480216,0.20065 -1.119547,0.6781 -1.420735,1.061 l -0.547615,0.69617 z m 14.32767,-3.81596 c 0,-0.61217 0.56081,-7.09135 0.680285,-7.85951 0.127912,-0.8224 0.151976,-0.8359 0.982191,-0.55105 1.445825,0.49608 2.635384,1.3772 4.386182,3.24891 l 1.683033,1.79926 -3.772664,1.81099 c -2.074967,0.99604 -3.814598,1.81099 -3.865847,1.81099 -0.05125,0 -0.09318,-0.11682 -0.09318,-0.25959 z"
         style="fill:#ec1c36;stroke-width:0.26458335" />
    </g>
  </g>
</svg>
