<?xml version="1.0" encoding="UTF-8" standalone="no"?>
<svg
   xmlns:dc="http://purl.org/dc/elements/1.1/"
   xmlns:cc="http://creativecommons.org/ns#"
   xmlns:rdf="http://www.w3.org/1999/02/22-rdf-syntax-ns#"
   xmlns:svg="http://www.w3.org/2000/svg"
   xmlns="http://www.w3.org/2000/svg"
   id="svg189"
   version="1.1"
   viewBox="0 0 31.615421 33.83086"
   height="33.83086mm"
   width="31.615421mm">
  <defs
     id="defs183" />
  <metadata
     id="metadata186">
    <rdf:RDF>
      <cc:Work
         rdf:about="">
        <dc:format>image/svg+xml</dc:format>
        <dc:type
           rdf:resource="http://purl.org/dc/dcmitype/StillImage" />
        <dc:title></dc:title>
      </cc:Work>
    </rdf:RDF>
  </metadata>
  <g
     transform="translate(-73.641263,-11.314079)"
     id="layer1">
    <g
       transform="translate(27.529366,-89.151721)"
       id="layer1-1">
      <g
         transform="translate(-31.822766,1.0305251)"
         id="g4162">
        <path
           id="path4176"
           d="m 92.298767,132.97802 c -0.325966,-0.1403 -0.774962,-0.41983 -0.997769,-0.62119 -0.751075,-0.67879 -1.668,-2.29067 -1.963438,-3.45156 -0.16067,-0.63134 -0.328839,-1.26219 -0.37371,-1.40189 -0.04721,-0.14699 -0.224928,0.1258 -0.42184,0.64753 -0.424816,1.12557 -1.047563,1.55228 -2.266745,1.55317 -0.472359,3.4e-4 -1.206425,-0.1178 -1.631257,-0.26256 -2.683876,-0.91448 -3.997748,-4.37186 -2.699207,-7.1028 0.552677,-1.16233 1.810651,-2.4273 2.977767,-2.99432 0.803408,-0.39033 0.989224,-0.64635 0.469109,-0.64635 -0.652419,0 -2.380446,-0.54183 -3.551589,-1.11362 -1.340082,-0.65427 -2.72362,-1.90092 -3.23783,-2.91748 -0.962776,-1.90335 -0.870777,-4.85081 0.208914,-6.69317 1.227836,-2.09514 3.013047,-2.82477 4.79768,-1.96084 0.897721,0.43458 1.577504,1.209 3.224804,3.67374 0.702328,1.05085 1.310078,1.87751 1.350556,1.83704 0.04048,-0.0405 -0.04166,-0.4617 -0.182526,-0.93605 -1.352946,-4.55586 -0.0525,-8.78921 3.197511,-10.40886 2.494227,-1.243012 5.410326,-0.840636 6.114062,0.84364 0.380692,0.91113 0.284424,2.55908 -0.276598,4.73494 -0.281291,1.09096 -0.479022,2.01598 -0.439401,2.0556 0.03962,0.0396 0.410477,-0.44778 0.824123,-1.08312 0.926916,-1.42368 2.402634,-2.83308 3.470927,-3.31494 2.82274,-1.27321 6.30779,0.9994 6.30779,4.11332 0,1.43727 -0.71783,2.72318 -2.63066,4.71255 -0.86267,0.89719 -1.87918,1.85985 -2.25891,2.13925 -0.37973,0.2794 -0.69223,0.557 -0.69443,0.61689 -0.002,0.0599 0.56186,-0.11084 1.25346,-0.37939 1.52038,-0.59037 3.34708,-0.92578 4.18462,-0.76838 0.91125,0.17127 1.70439,0.77476 2.14607,1.63291 0.32262,0.62685 0.38178,0.96913 0.33636,1.94597 -0.0707,1.52097 -0.49799,2.36814 -1.55628,3.08577 -1.12459,0.76259 -1.75081,0.91644 -4.13934,1.0169 l -2.08912,0.0879 1.15778,0.62632 c 1.92613,1.04196 2.63064,2.57008 2.09757,4.54974 -0.23046,0.85588 -1.22039,2.01999 -1.99268,2.3433 -1.28098,0.53626 -3.194741,0.16127 -4.583746,-0.89818 -0.311449,-0.23755 -0.604374,-0.39381 -0.650944,-0.34724 -0.04657,0.0466 -0.0039,0.38473 0.09487,0.75146 0.301361,1.11917 -0.350647,2.73182 -1.510914,3.73703 -0.967151,0.83789 -2.859567,1.11582 -4.06504,0.59701 z m 3.31842,-13.73018 c -0.127123,-0.96622 -0.658486,-1.96533 -1.280977,-2.40858 -0.550709,-0.39214 -1.698776,-0.65908 -1.698776,-0.39499 0,0.0887 0.332786,0.50851 0.739524,0.933 0.650259,0.67865 1.355905,1.88775 1.709656,2.92945 l 0.115007,0.33866 0.25516,-0.33866 c 0.177511,-0.23561 0.226326,-0.55784 0.160406,-1.05888 z"
           style="fill:#5ec3ef;stroke-width:0.16933332" />
        <path
           id="path4174"
           d="m 92.383434,132.94426 c -1.763576,-0.80458 -3.281369,-3.53896 -3.30209,-5.94888 -0.0028,-0.32596 -0.07421,-0.70188 -0.158683,-0.83537 -0.119028,-0.1881 -0.205196,-0.11624 -0.38294,0.31936 l -0.229352,0.56208 -1.434801,-1.25732 c -0.78914,-0.69153 -1.699433,-1.502 -2.022872,-1.80104 -0.323439,-0.29904 -0.678615,-0.54371 -0.789281,-0.54371 -0.110665,0 -0.402775,-0.23954 -0.649134,-0.53232 -0.546163,-0.64908 -0.704938,-0.52859 -0.970252,0.7363 -0.53169,2.53485 1.217989,5.10923 3.72835,5.48568 1.089453,0.16337 0.605513,0.46415 -0.605824,0.37653 -2.304701,-0.16671 -4.105121,-2.34557 -4.105121,-4.96801 0,-2.14002 1.730376,-4.49577 3.838346,-5.22557 0.897359,-0.31068 0.875006,-0.55479 -0.06334,-0.69179 -1.257411,-0.18359 -3.202862,-0.88655 -4.169182,-1.50646 -2.400965,-1.54028 -3.519486,-4.0736 -3.012779,-6.8236 0.398964,-2.16526 1.946295,-4.29209 3.122613,-4.29209 h 0.50136 l -0.770026,0.6778 c -2.012753,1.7717 -2.697032,4.89482 -1.574955,7.18826 0.708885,1.44891 0.814616,1.4732 1.7987,0.41313 0.466255,-0.50225 1.11345,-1.30917 1.438211,-1.79314 0.324762,-0.48397 0.699024,-0.98849 0.831694,-1.12116 0.132671,-0.13267 0.637966,-0.7654 1.122878,-1.40606 0.484913,-0.64065 0.958603,-1.16483 1.052645,-1.16483 0.169289,0 1.187589,1.27771 2.303597,2.89043 0.317766,0.4592 0.608308,0.74433 0.645648,0.63362 0.03734,-0.1107 -0.142153,-0.8346 -0.398872,-1.60866 -0.406056,-1.22434 -0.468006,-1.68269 -0.476316,-3.52406 -0.0074,-1.64259 0.06256,-2.33647 0.312398,-3.09807 0.638291,-1.94573 2.176012,-3.54709 3.8853,-4.04609 0.386879,-0.112939 0.745781,-0.26583 0.797559,-0.339754 0.05178,-0.07392 0.547079,-0.163992 1.100667,-0.200153 0.553588,-0.03616 0.833782,-0.03135 0.622653,0.01069 -0.211129,0.04204 -0.342832,0.142837 -0.292673,0.223995 0.05016,0.08116 -0.0438,0.14148 -0.208796,0.134048 -0.67045,-0.0302 -2.284317,0.770094 -3.151817,1.562934 -0.86873,0.79397 -1.595449,2.053 -1.868467,3.23708 -0.162159,0.70329 -0.365155,0.67167 5.703347,0.88833 1.006347,0.0359 1.876525,0.11213 1.933729,0.16933 0.08987,0.0899 -0.302307,2.28556 -0.574148,3.21454 -0.182575,0.62392 0.227638,0.10388 1.13665,-1.44096 0.507859,-0.8631 1.353298,-2.01085 1.878753,-2.55057 1.490789,-1.53127 3.428439,-2.24292 4.303929,-1.58073 0.31277,0.23657 0.30408,0.24895 -0.17931,0.25565 -1.02182,0.0142 -3.170652,1.32685 -3.655733,2.23323 -0.144116,0.26929 -0.01019,0.48166 0.839583,1.33145 0.55609,0.55608 1.08188,1.01105 1.16844,1.01105 0.0866,0 0.82068,0.64273 1.63139,1.42829 0.81071,0.78555 1.56514,1.4587 1.6765,1.49587 0.48507,0.16192 -1.689,2.55039 -3.51521,3.86188 -0.66521,0.47772 -0.95989,0.83396 -0.68984,0.83396 0.0439,0 0.70958,-0.22984 1.47933,-0.51077 0.76975,-0.28092 1.485,-0.47797 1.58946,-0.43788 0.17297,0.0664 0.4262,0.82357 0.48716,1.45665 0.0134,0.1397 0.0817,0.4826 0.15166,0.762 0.07,0.2794 0.29416,1.18298 0.49823,2.00795 l 0.37103,1.49994 0.79276,-0.0936 c 0.43601,-0.0515 1.10074,-0.25072 1.47717,-0.44276 0.73518,-0.37507 1.96583,-1.88081 2.09421,-2.56237 0.0667,-0.35395 0.0797,-0.34061 0.0964,0.0988 0.0229,0.60213 -0.52097,1.87031 -1.04207,2.42977 -0.20377,0.21876 -0.75149,0.59818 -1.21715,0.84313 -0.79175,0.41649 -1.03338,0.4511 -3.72534,0.53357 l -2.87866,0.0882 0.97366,0.47796 c 0.53552,0.26288 0.97194,0.52958 0.96982,0.59267 -0.003,0.10245 -0.28453,0.63279 -1.58659,2.99337 -0.20548,0.37253 -0.58388,1.03459 -0.84089,1.47123 l -0.467278,0.79389 0.426848,0.27969 c 0.92682,0.60728 2.51936,0.52955 3.5554,-0.17352 0.74814,-0.5077 0.78466,-0.29634 0.0862,0.49912 -0.61964,0.70573 -1.5819,1.01742 -2.72462,0.88253 -0.97128,-0.11465 -1.778879,-0.51566 -3.089177,-1.53394 -0.551796,-0.42882 -1.068102,-0.77967 -1.147348,-0.77967 -0.07925,0 -0.02221,0.23568 0.126751,0.52374 0.148959,0.28805 0.246165,0.54161 0.216015,0.56345 -0.03015,0.0218 -0.51202,0.13726 -1.07082,0.25647 -0.5588,0.11921 -1.6256,0.39343 -2.370666,0.60938 -0.745067,0.21595 -1.716617,0.49109 -2.159,0.61143 -0.442384,0.12034 -0.804334,0.26345 -0.804334,0.31801 0,0.0546 0.224935,0.4539 0.499856,0.88741 1.168219,1.84209 2.765433,2.30121 4.533765,1.30322 0.75871,-0.42819 0.882874,-0.45984 0.737359,-0.18794 -0.09624,0.17982 -0.532743,0.56393 -0.970011,0.85356 -0.946445,0.6269 -2.11082,0.70355 -3.192302,0.21015 z m 3.233753,-13.69642 c -0.127123,-0.96622 -0.658486,-1.96533 -1.280977,-2.40858 -0.550709,-0.39214 -1.698776,-0.65908 -1.698776,-0.39499 0,0.0887 0.332786,0.50851 0.739524,0.933 0.650259,0.67865 1.355905,1.88775 1.709656,2.92945 l 0.115007,0.33866 0.25516,-0.33866 c 0.177511,-0.23561 0.226326,-0.55784 0.160406,-1.05888 z"
           style="fill:#4eb9e9;stroke-width:0.16933332" />
        <path
           id="path4172"
           d="m 92.383434,132.94426 c -2.062516,-0.94097 -3.294199,-3.54556 -3.299497,-6.97732 l -0.0025,-1.62112 -1.735667,-1.51516 c -0.954616,-0.83333 -2.013431,-1.72087 -2.352921,-1.9723 l -0.617256,-0.45714 -0.568078,0.37608 c -0.347504,0.23006 -0.765325,0.77058 -1.076078,1.39208 -0.43887,0.87774 -0.507555,1.20035 -0.504726,2.37067 0.0027,1.13823 0.07607,1.49367 0.458896,2.22468 0.552238,1.05449 1.586116,1.97283 2.742348,2.43588 l 0.859482,0.3442 -0.871653,-0.0629 c -2.161469,-0.15586 -3.954347,-2.39762 -3.954347,-4.94439 0,-2.14002 1.730376,-4.49577 3.838346,-5.22557 0.897359,-0.31068 0.875006,-0.55479 -0.06334,-0.69179 -1.257411,-0.18359 -3.202862,-0.88655 -4.169182,-1.50646 -1.736121,-1.11377 -2.686836,-2.52513 -3.023518,-4.48851 -0.374838,-2.18589 0.459671,-4.76775 1.954631,-6.04738 0.981568,-0.84019 1.304986,-0.72892 0.480663,0.16537 -1.767946,1.91799 -2.368489,4.95231 -1.409308,7.12069 0.455985,1.03083 1.577267,2.19552 2.608359,2.70934 1.185628,0.59082 1.464176,0.55008 2.1107,-0.30872 0.302142,-0.40135 0.695838,-0.89863 0.874883,-1.10507 0.179044,-0.20643 0.84524,-1.05681 1.480437,-1.88971 0.635196,-0.8329 1.238395,-1.51437 1.340444,-1.51437 0.102048,0 0.434544,0.30985 0.738881,0.68856 0.304336,0.37871 0.580876,0.66102 0.614532,0.62736 0.03366,-0.0336 -0.211965,-0.89595 -0.545825,-1.91622 -1.531244,-4.67944 -0.540867,-9.01583 2.421877,-10.60426 1.23023,-0.659567 1.835588,-0.792131 0.992091,-0.21725 -1.986785,1.35408 -2.892896,2.84959 -3.310541,5.46394 -0.176356,1.10394 -0.0857,2.65274 0.180492,3.08344 0.129647,0.20978 3.116526,0.45315 6.039271,0.49208 0.77649,0.0103 0.883472,0.0554 0.931637,0.39269 0.04121,0.28854 0.250395,0.0152 0.862027,-1.12652 1.604196,-2.99445 3.073728,-4.62327 4.748026,-5.26269 0.75832,-0.2896 2.25605,-0.30517 1.55576,-0.0162 -2.19243,0.90478 -3.469886,1.89881 -4.49679,3.49911 -0.608174,0.94775 -1.246484,2.52527 -1.021801,2.52527 0.08398,0 0.788524,0.60115 1.565642,1.33589 0.777118,0.73473 1.863189,1.75058 2.413499,2.25743 l 1.00055,0.92154 -0.65226,0.5789 c -0.35875,0.3184 -0.9233,0.83081 -1.25456,1.13871 l -0.602286,0.5598 0.681046,-0.1025 0.68105,-0.10249 0.48311,2.29353 0.48311,2.29353 0.69851,0.18971 c 1.02821,0.27926 3.42465,0.10205 4.38908,-0.32456 0.88602,-0.39193 1.91685,-1.39022 2.18478,-2.1158 0.0963,-0.26087 0.2108,-0.43866 0.25438,-0.39508 0.13085,0.13086 -0.61528,1.68216 -1.01567,2.11171 -0.205,0.21992 -0.75373,0.60187 -1.21939,0.84877 -0.83135,0.44079 -0.90564,0.44891 -4.10641,0.44891 -3.00066,0 -3.543314,0.0587 -3.09657,0.33476 0.0958,0.0592 0.035,0.32508 -0.147622,0.64499 -0.170849,0.29934 -0.739507,1.28316 -1.263685,2.18627 -0.524178,0.90311 -0.953052,1.75066 -0.953052,1.88343 0,0.34365 1.428149,1.6154 2.169226,1.93168 1.332573,0.56872 2.344733,0.55771 3.842113,-0.0418 0.29814,-0.11936 0.28933,-0.0815 -0.0736,0.31677 -0.85165,0.93437 -2.71386,1.00413 -4.292782,0.16082 -0.485605,-0.25936 -1.587767,-1.17019 -2.449251,-2.02406 -1.307791,-1.29623 -1.566333,-1.48745 -1.566333,-1.15846 0,0.35535 -0.145413,0.42894 -1.481667,0.74976 -0.814916,0.19565 -1.989851,0.50027 -2.610966,0.67692 -0.621114,0.17665 -1.173564,0.27692 -1.227666,0.22282 -0.0541,-0.0541 -0.09837,0.16892 -0.09837,0.49561 0,2.13345 1.952333,4.77546 3.782596,5.11882 0.308778,0.0579 0.90828,-0.002 1.349787,-0.13483 0.436856,-0.13148 0.794283,-0.20728 0.794283,-0.16846 0,0.0388 -0.24765,0.22158 -0.550333,0.40613 -0.701402,0.42765 -2.008282,0.43676 -2.921,0.0204 z m 3.233753,-13.69642 c -0.127123,-0.96622 -0.658486,-1.96533 -1.280977,-2.40858 -0.550709,-0.39214 -1.698776,-0.65908 -1.698776,-0.39499 0,0.0887 0.332786,0.50851 0.739524,0.933 0.650259,0.67865 1.355905,1.88775 1.709656,2.92945 l 0.115007,0.33866 0.25516,-0.33866 c 0.177511,-0.23561 0.226326,-0.55784 0.160406,-1.05888 z m -2.55642,-19.684456 c 0.2794,-0.07109 0.8128,-0.128742 1.185333,-0.128104 l 0.677334,0.0012 -0.762,0.135587 c -0.4191,0.07457 -0.9525,0.132219 -1.185333,0.128104 -0.38364,-0.0068 -0.375701,-0.0196 0.08467,-0.136748 z"
           style="fill:#edcb13;stroke-width:0.16933332" />
        <path
           id="path4170"
           d="m 92.383434,132.94426 c -2.062516,-0.94097 -3.294199,-3.54556 -3.299497,-6.97732 l -0.0025,-1.62112 -1.735667,-1.51516 c -0.954616,-0.83333 -2.013431,-1.72087 -2.352921,-1.9723 l -0.617256,-0.45714 -0.568078,0.37608 c -0.347504,0.23006 -0.765325,0.77058 -1.076078,1.39208 -0.43887,0.87774 -0.507555,1.20035 -0.504726,2.37067 0.0027,1.13823 0.07607,1.49367 0.458896,2.22468 0.552238,1.05449 1.586116,1.97283 2.742348,2.43588 l 0.859482,0.3442 -0.871653,-0.0629 c -2.161469,-0.15586 -3.954347,-2.39762 -3.954347,-4.94439 0,-2.14002 1.730376,-4.49577 3.838346,-5.22557 0.897359,-0.31068 0.875006,-0.55479 -0.06334,-0.69179 -1.257411,-0.18359 -3.202862,-0.88655 -4.169182,-1.50646 -1.736121,-1.11377 -2.686836,-2.52513 -3.023518,-4.48851 -0.374838,-2.18589 0.459671,-4.76775 1.954631,-6.04738 0.981568,-0.84019 1.304986,-0.72892 0.480663,0.16537 -1.767946,1.91799 -2.368489,4.95231 -1.409308,7.12069 0.455985,1.03083 1.577267,2.19552 2.608359,2.70934 1.185628,0.59082 1.464176,0.55008 2.1107,-0.30872 0.302142,-0.40135 0.695838,-0.89863 0.874883,-1.10507 0.179044,-0.20643 0.84524,-1.05681 1.480437,-1.88971 0.635196,-0.8329 1.238395,-1.51437 1.340444,-1.51437 0.102048,0 0.434544,0.30985 0.738881,0.68856 0.304336,0.37871 0.580876,0.66102 0.614532,0.62736 0.03366,-0.0336 -0.211965,-0.89595 -0.545825,-1.91622 -1.531244,-4.67944 -0.540867,-9.01583 2.421877,-10.60426 1.23023,-0.659567 1.835588,-0.792131 0.992091,-0.21725 -1.986785,1.35408 -2.892896,2.84959 -3.310541,5.46394 -0.176356,1.10394 -0.0857,2.65274 0.180492,3.08344 0.129647,0.20978 3.116526,0.45315 6.039271,0.49208 0.77649,0.0103 0.883472,0.0554 0.931637,0.39269 0.04121,0.28854 0.250395,0.0152 0.862027,-1.12652 1.604196,-2.99445 3.073728,-4.62327 4.748026,-5.26269 0.75832,-0.2896 2.25605,-0.30517 1.55576,-0.0162 -2.19243,0.90478 -3.469886,1.89881 -4.49679,3.49911 -0.608174,0.94775 -1.246484,2.52527 -1.021801,2.52527 0.08398,0 0.788524,0.60115 1.565642,1.33589 0.777118,0.73473 1.863189,1.75058 2.413499,2.25743 l 1.00055,0.92154 -0.65226,0.5789 c -0.35875,0.3184 -0.9233,0.83081 -1.25456,1.13871 l -0.602286,0.5598 0.681046,-0.1025 0.68105,-0.10249 0.48311,2.29353 0.48311,2.29353 0.69851,0.18971 c 1.02821,0.27926 3.42465,0.10205 4.38908,-0.32456 0.88602,-0.39193 1.91685,-1.39022 2.18478,-2.1158 0.0963,-0.26087 0.2108,-0.43866 0.25438,-0.39508 0.13085,0.13086 -0.61528,1.68216 -1.01567,2.11171 -0.205,0.21992 -0.75373,0.60187 -1.21939,0.84877 -0.83135,0.44079 -0.90564,0.44891 -4.10641,0.44891 -3.00066,0 -3.543314,0.0587 -3.09657,0.33476 0.0958,0.0592 0.035,0.32508 -0.147622,0.64499 -0.170849,0.29934 -0.739507,1.28316 -1.263685,2.18627 -0.524178,0.90311 -0.953052,1.75066 -0.953052,1.88343 0,0.34365 1.428149,1.6154 2.169226,1.93168 1.332573,0.56872 2.344733,0.55771 3.842113,-0.0418 0.29814,-0.11936 0.28933,-0.0815 -0.0736,0.31677 -0.85165,0.93437 -2.71386,1.00413 -4.292782,0.16082 -0.485605,-0.25936 -1.587767,-1.17019 -2.449251,-2.02406 -1.307791,-1.29623 -1.566333,-1.48745 -1.566333,-1.15846 0,0.35535 -0.145413,0.42894 -1.481667,0.74976 -0.814916,0.19565 -1.989851,0.50027 -2.610966,0.67692 -0.621114,0.17665 -1.173564,0.27692 -1.227666,0.22282 -0.0541,-0.0541 -0.09837,0.16892 -0.09837,0.49561 0,2.13345 1.952333,4.77546 3.782596,5.11882 0.308778,0.0579 0.90828,-0.002 1.349787,-0.13483 0.436856,-0.13148 0.794283,-0.20728 0.794283,-0.16846 0,0.0388 -0.24765,0.22158 -0.550333,0.40613 -0.701402,0.42765 -2.008282,0.43676 -2.921,0.0204 z m 2.377672,-10.66983 c 1.769023,-0.80356 2.349065,-2.62609 1.41715,-4.4528 -1.371612,-2.68858 -4.150315,-3.31861 -5.555654,-1.25966 -1.496535,2.19255 -1.326572,4.91862 0.358444,5.74913 0.789583,0.38917 2.887373,0.36882 3.78006,-0.0367 z M 93.060767,99.563384 c 0.2794,-0.07109 0.8128,-0.128742 1.185333,-0.128104 l 0.677334,0.0012 -0.762,0.135587 c -0.4191,0.07457 -0.9525,0.132219 -1.185333,0.128104 -0.38364,-0.0068 -0.375701,-0.0196 0.08467,-0.136748 z"
           style="fill:#179ed8;stroke-width:0.16933332" />
        <path
           id="path4168"
           d="m 92.383434,132.94426 c -3.009296,-1.37291 -4.243407,-6.50132 -2.424036,-10.0732 0.329765,-0.64741 0.329786,-0.65609 0.0025,-1.016 -0.51687,-0.56836 -0.772481,-1.14579 -0.8728,-1.97168 l -0.09256,-0.762 -1.346757,0.0425 c -2.330398,0.0736 -4.083789,1.15932 -4.988805,3.0891 -0.632652,1.34901 -0.622122,3.27671 0.02465,4.51171 0.552239,1.05449 1.586117,1.97283 2.742349,2.43588 l 0.859482,0.3442 -0.871653,-0.0629 c -2.161469,-0.15586 -3.954347,-2.39762 -3.954347,-4.94439 0,-2.14002 1.730376,-4.49577 3.838346,-5.22557 0.897359,-0.31068 0.875006,-0.55479 -0.06334,-0.69179 -1.257411,-0.18359 -3.202862,-0.88655 -4.169182,-1.50646 -1.736121,-1.11377 -2.686836,-2.52513 -3.023518,-4.48851 -0.374838,-2.18589 0.459671,-4.76775 1.954631,-6.04738 0.981568,-0.84019 1.304986,-0.72892 0.480663,0.16537 -1.841576,1.99787 -2.392854,5.08696 -1.304723,7.31102 1.199846,2.4524 4.703271,4.13892 8.587655,4.13405 l 1.404139,-0.002 0.465666,-1.00091 c 0.256117,-0.5505 0.465667,-1.06637 0.465667,-1.14637 0,-0.08 -0.258708,-0.75889 -0.574906,-1.50863 -1.154647,-2.73777 -1.83097,-5.12578 -1.923804,-6.79271 -0.187918,-3.37426 0.965083,-6.03428 3.115286,-7.18708 1.320271,-0.707841 1.785984,-0.758664 0.813679,-0.0888 -1.668304,1.14937 -2.569265,2.57168 -3.041821,4.802 -0.134871,0.63654 -0.246543,1.59872 -0.24816,2.13816 -0.0057,1.91514 0.805909,4.74731 1.934413,6.74993 0.600083,1.0649 0.793828,1.20695 1.355073,0.99357 0.250224,-0.0951 0.899041,-0.17297 1.441813,-0.17297 0.78044,0 1.010443,-0.0615 1.099608,-0.29382 0.06201,-0.1616 0.45749,-1.28555 0.878839,-2.49767 1.974982,-5.68152 4.994602,-9.30181 7.526759,-9.02398 0.4836,0.0531 0.52229,0.0853 0.23856,0.19878 -3.101778,1.24051 -4.682521,3.01739 -6.404225,7.19883 -0.362481,0.88034 -0.83546,2.29165 -1.051064,3.13624 l -0.392006,1.53562 0.699235,0.71966 c 0.384578,0.39582 0.834237,0.71967 0.999241,0.71967 0.165003,0 1.065069,-0.3048 2.000146,-0.67733 0.935078,-0.37254 1.748523,-0.67734 1.807653,-0.67734 0.3302,0 -0.62945,0.70092 -1.970626,1.43934 -1.405263,0.7737 -1.529716,0.88315 -1.444079,1.27 0.05154,0.23283 0.139322,0.74717 0.195068,1.14298 0.09689,0.68795 0.137223,0.73029 0.91577,0.9615 2.918347,0.86665 7.412587,1.01974 9.005067,0.30675 0.89465,-0.40056 1.92465,-1.39817 2.1925,-2.12354 0.0963,-0.26087 0.2108,-0.43866 0.25438,-0.39508 0.13085,0.13086 -0.61528,1.68216 -1.01567,2.11171 -0.205,0.21992 -0.75373,0.60044 -1.21939,0.84559 -0.78557,0.41355 -1.03106,0.45006 -3.40177,0.50591 -2.024,0.0477 -2.98755,-0.0132 -4.635563,-0.29314 -1.144248,-0.19434 -2.136975,-0.35335 -2.206059,-0.35335 -0.06909,0 -0.323331,0.29878 -0.564988,0.66395 -0.241659,0.36517 -0.670885,0.8007 -0.953836,0.96784 -0.295365,0.17447 -0.514457,0.44558 -0.514457,0.63658 0,0.56448 1.323828,2.40062 2.615281,3.62737 2.019962,1.91876 3.897732,2.5337 5.581052,1.82771 0.84145,-0.35291 0.92968,-0.2609 0.27668,0.28856 -0.5822,0.48989 -1.67853,0.71455 -2.66976,0.54708 -1.570249,-0.26529 -3.667561,-1.97782 -5.75102,-4.6959 l -1.273846,-1.66186 H 92.21684 90.647166 l -0.389721,0.889 c -0.554785,1.26554 -0.646501,3.5557 -0.199062,4.97064 0.653385,2.06622 2.183419,3.75448 3.652341,4.03005 0.308778,0.0579 0.90828,-0.002 1.349787,-0.13483 0.436856,-0.13148 0.794283,-0.20728 0.794283,-0.16846 0,0.0388 -0.24765,0.22158 -0.550333,0.40613 -0.701402,0.42765 -2.008282,0.43676 -2.921,0.0204 z m 2.377672,-10.66983 c 1.769023,-0.80356 2.349065,-2.62609 1.41715,-4.4528 -1.371612,-2.68858 -4.150315,-3.31861 -5.555654,-1.25966 -1.496535,2.19255 -1.326572,4.91862 0.358444,5.74913 0.789583,0.38917 2.887373,0.36882 3.78006,-0.0367 z M 93.060767,99.563384 c 0.2794,-0.07109 0.8128,-0.128742 1.185333,-0.128104 l 0.677334,0.0012 -0.762,0.135587 c -0.4191,0.07457 -0.9525,0.132219 -1.185333,0.128104 -0.38364,-0.0068 -0.375701,-0.0196 0.08467,-0.136748 z"
           style="fill:#586c96;stroke-width:0.16933332" />
        <path
           id="path4166"
           d="m 92.891434,133.09138 c -0.225335,-0.0968 0.114663,-0.14386 1.016,-0.14055 0.923822,0.003 1.220028,0.0481 0.931333,0.14055 -0.563206,0.18037 -1.527589,0.18037 -1.947333,0 z m -1.017307,-0.65053 c -0.657255,-0.40081 -1.348328,-1.31395 -1.890217,-2.49759 -0.321949,-0.70323 -0.4674,-1.39415 -0.574081,-2.727 -0.07859,-0.98183 -0.178547,-1.82081 -0.222139,-1.8644 -0.114152,-0.11415 0.382352,-1.71639 0.764181,-2.46604 0.29686,-0.58284 0.357708,-0.6207 0.700987,-0.43626 0.20675,0.11108 0.604509,0.25713 0.883909,0.32456 0.476572,0.11501 0.464767,0.12367 -0.190814,0.13993 -0.676085,0.0168 -0.711386,0.0463 -1.085332,0.90633 -0.751463,1.72838 -0.60479,4.94247 0.301538,6.60769 0.242111,0.44484 0.80483,1.14986 1.250484,1.56672 0.864997,0.80911 0.884105,0.94773 0.06148,0.44606 z m 7.79064,-3.815 c -0.465667,-0.21903 -1.044294,-0.61833 -1.285838,-0.88735 -0.241545,-0.26901 -0.955177,-0.93995 -1.58585,-1.49096 -1.065076,-0.93055 -2.970312,-3.06517 -2.970312,-3.32794 0,-0.0634 0.20955,-0.15989 0.465667,-0.21448 0.720278,-0.15353 1.508298,-0.71255 2.040932,-1.44783 1.225208,-1.69135 0.299173,-4.39334 -1.962739,-5.7269 -0.608739,-0.35889 -0.884305,-0.41667 -1.704407,-0.35735 -1.171197,0.0847 -1.871415,0.52373 -2.473194,1.55058 -0.551654,0.94133 -0.99633,2.7206 -0.885828,3.54445 0.04864,0.36261 0.04083,0.61169 -0.01734,0.55351 -0.05817,-0.0582 -0.147071,-0.46451 -0.197552,-0.90298 l -0.09179,-0.79722 -1.344662,0.0424 c -1.163046,0.0367 -1.302508,0.0116 -1.032557,-0.18582 0.423473,-0.30965 0.2029,-0.4136 -1.330028,-0.62681 -1.483746,-0.20637 -2.902803,-0.66109 -3.915882,-1.25479 -0.96926,-0.56803 -2.545727,-2.30964 -2.797235,-3.09027 -0.113772,-0.35312 -0.283189,-0.73817 -0.376483,-0.85566 -0.223045,-0.28091 -0.235897,-2.83018 -0.01572,-3.11836 0.09414,-0.12321 0.304588,-0.58518 0.46766,-1.0266 0.459513,-1.24386 0.590472,-1.09506 0.156601,0.17794 -0.891977,2.61709 -0.145495,5.53955 1.749485,6.8492 1.918647,1.326 4.701934,2.15882 7.204264,2.15568 l 1.404139,-0.002 0.489041,-1.05067 c 0.434509,-0.9335 0.465976,-1.10797 0.282186,-1.56457 -0.988345,-2.45543 -2.09181,-6.58675 -2.17254,-8.13391 -0.116366,-2.2301 0.648277,-4.66842 1.78948,-5.70633 0.441698,-0.40172 0.413864,-0.31619 -0.238507,0.73296 -1.722063,2.76941 -1.356299,7.76157 0.85636,11.68811 0.600083,1.0649 0.793828,1.20695 1.355073,0.99357 0.250224,-0.0951 0.899986,-0.17297 1.443916,-0.17297 h 0.988962 l 0.500877,-1.397 c 0.275482,-0.76835 0.633029,-1.80102 0.794549,-2.29481 0.161519,-0.49379 0.430672,-1.02719 0.598121,-1.18533 0.167447,-0.15814 0.421493,-0.57011 0.564547,-0.91548 0.830829,-2.00587 2.51934,-4.24404 3.827767,-5.07382 1.14771,-0.72785 1.19113,-0.57192 0.0705,0.25307 -0.546868,0.40258 -1.208634,0.98668 -1.470593,1.298 -1.069961,1.27157 -3.175784,6.08822 -3.714276,8.49567 l -0.252227,1.12763 0.705812,0.6927 c 0.388195,0.38098 0.833455,0.6927 0.989465,0.6927 0.156011,0 0.686527,-0.15991 1.178924,-0.35535 0.492398,-0.19545 1.276269,-0.50628 1.741936,-0.69075 l 0.846669,-0.3354 -0.677336,0.59158 c -0.372533,0.32537 -1.157182,0.84576 -1.743664,1.15642 -0.957025,0.50693 -1.056286,0.60823 -0.968336,0.98817 0.0539,0.23283 0.143693,0.74796 0.199547,1.14473 0.09855,0.70006 0.127183,0.72853 0.968336,0.96292 1.332781,0.37138 2.703053,0.61815 4.311303,0.77641 l 1.46615,0.14429 -1.88401,-0.062 c -1.03621,-0.0341 -1.95061,0.004 -2.032004,0.084 -0.08293,0.0818 -0.706274,0.039 -1.417989,-0.0973 -1.675912,-0.32102 -1.585032,-0.33932 -2.087707,0.42028 -0.241659,0.36517 -0.670885,0.8007 -0.953836,0.96784 -0.678305,0.40068 -0.653537,0.78208 0.127031,1.95607 1.397078,2.10124 3.646838,4.10265 5.115845,4.55112 0.34428,0.10511 0.36009,0.13165 0.0847,0.14214 -0.18627,0.007 -0.71967,-0.1663 -1.185336,-0.38532 z m -16.581992,-0.50688 c -0.912453,-0.86055 -1.346637,-1.97783 -1.357905,-3.49425 -0.0052,-0.6985 0.07984,-1.4213 0.188953,-1.60623 0.158769,-0.26908 0.180612,-0.0662 0.109374,1.016 -0.10658,1.61907 0.269267,2.82468 1.230787,3.948 0.729681,0.85246 0.652876,0.91369 -0.171209,0.13648 z m 2.009357,-8.48024 c 0.180784,-0.14484 0.403034,-0.26335 0.493889,-0.26335 0.215145,0 0.119081,0.0782 -0.399254,0.32507 -0.399164,0.19011 -0.404567,0.18658 -0.09463,-0.0617 z"
           style="fill:#1e69a1;stroke-width:0.16933332" />
        <path
           id="path4164"
           d="m 92.891434,133.09138 c -0.225335,-0.0968 0.114663,-0.14386 1.016,-0.14055 0.923822,0.003 1.220028,0.0481 0.931333,0.14055 -0.563206,0.18037 -1.527589,0.18037 -1.947333,0 z m -1.017307,-0.65053 c -1.055615,-0.64375 -2.212758,-2.688 -2.371295,-4.1892 l -0.08796,-0.83293 0.306629,1.016 c 0.441947,1.46437 1.162965,2.69187 2.091145,3.56007 0.864997,0.80911 0.884105,0.94773 0.06148,0.44606 z m 7.79064,-3.81445 c -0.465667,-0.21873 -0.999067,-0.56931 -1.185333,-0.77908 -0.274356,-0.30897 -0.173513,-0.27884 0.531051,0.15866 0.478346,0.29703 1.164145,0.64501 1.524005,0.7733 0.37745,0.13455 0.51098,0.23568 0.31561,0.23902 -0.18627,0.003 -0.71967,-0.17318 -1.185333,-0.3919 z m -16.581992,-0.50743 c -0.912453,-0.86055 -1.346637,-1.97783 -1.357905,-3.49425 -0.0052,-0.6985 0.07984,-1.4213 0.188953,-1.60623 0.158769,-0.26908 0.180612,-0.0662 0.109374,1.016 -0.10658,1.61907 0.269267,2.82468 1.230787,3.948 0.729681,0.85246 0.652876,0.91369 -0.171209,0.13648 z m 3.712659,-9.42092 c -0.05756,-0.0931 0.01414,-0.16933 0.15934,-0.16933 0.145196,0 0.263993,0.0762 0.263993,0.16933 0,0.0931 -0.0717,0.16933 -0.15934,0.16933 -0.08764,0 -0.206433,-0.0762 -0.263993,-0.16933 z m -1.979083,-0.45434 c 0.122237,-0.0489 0.268287,-0.0429 0.324555,0.0134 0.05627,0.0563 -0.04374,0.0963 -0.22225,0.0889 -0.197263,-0.008 -0.237388,-0.0483 -0.102305,-0.10231 z m -1.928587,-0.45388 c -0.565952,-0.21041 -1.303166,-0.55201 -1.638254,-0.75911 -0.906606,-0.56031 -2.437387,-2.29223 -2.673354,-3.02463 -0.113772,-0.35312 -0.283189,-0.73817 -0.376483,-0.85566 -0.223045,-0.28091 -0.235897,-2.83018 -0.01572,-3.11836 0.09414,-0.12321 0.304588,-0.58518 0.46766,-1.0266 0.474985,-1.28574 0.581684,-1.07306 0.131903,0.26291 -0.342129,1.01622 -0.395968,1.44049 -0.326339,2.57167 0.170755,2.77406 1.696847,4.58591 4.941141,5.86639 1.422571,0.56146 0.972881,0.63492 -0.510553,0.0834 z m 13.479008,-8.49912 c 0.94353,-2.20117 2.540479,-4.33546 3.879158,-5.18443 1.16265,-0.73733 1.18505,-0.56745 0.0366,0.27796 -1.272444,0.93671 -2.280331,2.20345 -3.315835,4.16739 -0.86597,1.64241 -1.122802,1.95879 -0.599973,0.73908 z m -8.447295,-0.35757 c -0.53354,-2.65669 0.205248,-5.90683 1.637107,-7.20209 l 0.430759,-0.38967 -0.389228,0.64654 c -1.228311,2.04031 -1.600062,3.56222 -1.486225,6.08446 0.04519,1.00119 0.06374,1.82034 0.04123,1.82034 -0.02251,0 -0.12765,-0.43181 -0.233641,-0.95958 z"
           style="fill:#3e4976;stroke-width:0.16933332" />
      </g>
    </g>
  </g>
</svg>
