<?xml version="1.0" encoding="UTF-8" standalone="no"?>
<svg
   xmlns:dc="http://purl.org/dc/elements/1.1/"
   xmlns:cc="http://creativecommons.org/ns#"
   xmlns:rdf="http://www.w3.org/1999/02/22-rdf-syntax-ns#"
   xmlns:svg="http://www.w3.org/2000/svg"
   xmlns="http://www.w3.org/2000/svg"
   id="svg94"
   version="1.1"
   viewBox="0 0 53.360249 53.295589"
   height="53.295589mm"
   width="53.360249mm">
  <defs
     id="defs88" />
  <metadata
     id="metadata91">
    <rdf:RDF>
      <cc:Work
         rdf:about="">
        <dc:format>image/svg+xml</dc:format>
        <dc:type
           rdf:resource="http://purl.org/dc/dcmitype/StillImage" />
        <dc:title></dc:title>
      </cc:Work>
    </rdf:RDF>
  </metadata>
  <g
     transform="translate(-111.28707,-98.690643)"
     id="layer1">
    <g
       id="layer1-1"
       transform="translate(-8.5915765,-31.46767)">
      <g
         transform="translate(46.103994,-11.559407)"
         id="g4057">
        <path
           style="fill:#8cd7f7;stroke-width:0.16933334"
           d="m 96.223675,194.74156 c -7.177688,-1.14984 -13.587824,-5.113 -17.75746,-10.97881 -2.015479,-2.83536 -3.770343,-6.94863 -4.411563,-10.34036 -0.373684,-1.9766 -0.373228,-8.23461 7.43e-4,-10.20726 0.955931,-5.0424 3.540806,-9.89197 7.259483,-13.61974 2.328641,-2.33434 4.450574,-3.86029 7.288797,-5.24162 4.036874,-1.96469 6.982971,-2.6219 11.732335,-2.61722 4.94737,0.005 8.13561,0.72982 12.19075,2.77195 7.31731,3.68494 12.68591,10.83794 14.21998,18.9464 0.41973,2.2185 0.41071,7.73197 -0.0161,9.85305 -2.18293,10.84795 -10.38403,19.07336 -21.20324,21.26607 -2.52899,0.51254 -6.683121,0.58735 -9.303718,0.16754 z"
           id="path4071" />
        <path
           style="fill:#9ba9ce;stroke-width:0.16933334"
           d="m 96.223675,194.7414 c -10.118817,-1.57692 -18.514921,-8.87198 -21.496452,-18.67745 -0.78328,-2.576 -0.940155,-3.85757 -0.940186,-7.68068 -3.2e-5,-3.89364 0.190469,-5.47662 0.947443,-7.87287 1.334373,-4.22404 3.612144,-7.96344 6.756434,-11.09199 3.913138,-3.89355 8.663824,-6.38332 14.020289,-7.34783 2.607828,-0.46958 7.111747,-0.47071 9.699857,-0.002 8.24683,1.49214 15.41496,6.86693 19.11816,14.33512 4.98163,10.04639 3.22094,22.07373 -4.41903,30.18668 -3.95399,4.19878 -9.20656,7.05968 -14.79651,8.05918 -2.44072,0.43641 -6.416917,0.47768 -8.890005,0.0923 z m -7.438352,-15.49557 c 0.859972,-0.35816 1.700126,-1.21962 2.103148,-2.15647 0.553537,-1.28673 0.423712,-2.91591 -0.315981,-3.96532 -0.291216,-0.41315 -0.529482,-0.89253 -0.529482,-1.0653 0,-0.36146 3.310828,-8.47321 3.5601,-8.72248 0.107423,-0.10742 0.227038,-0.10343 0.341884,0.0114 0.229533,0.22954 3.718016,8.19689 3.718016,8.49159 0,0.12358 -0.225577,0.50597 -0.501284,0.84976 -0.901739,1.12442 -1.210261,2.48319 -0.854554,3.76358 0.525455,1.89141 2.088303,3.08702 4.0487,3.09733 3.44324,0.0181 5.41474,-3.85537 3.387,-6.65458 -0.27052,-0.37344 -0.49186,-0.74095 -0.49186,-0.81668 0,-0.0757 0.8001,-2.07249 1.778,-4.43724 0.9779,-2.36476 1.778,-4.32834 1.778,-4.36353 0,-0.0352 0.11983,-0.0393 0.26629,-0.009 0.16715,0.0344 0.95514,1.62615 2.11667,4.27579 1.0177,2.32157 1.85037,4.29066 1.85037,4.37575 0,0.0851 -0.267,0.46665 -0.59334,0.8479 -1.72352,2.01355 -1.02406,5.23614 1.39018,6.40485 2.19507,1.06261 5.11068,-0.12964 5.77997,-2.36356 0.77267,-2.57891 -0.53251,-4.84608 -3.16976,-5.50606 l -0.76156,-0.19058 -1.74719,-3.97933 c -2.36788,-5.39298 -2.22473,-4.91761 -1.69139,-5.61686 0.68123,-0.89314 0.96243,-1.72472 0.96243,-2.84622 0,-2.54767 -1.89642,-4.22834 -4.5542,-4.03609 -3.25145,0.23519 -4.84826,3.9292 -2.87381,6.64819 0.26694,0.3676 0.48534,0.77163 0.48534,0.89784 0,0.12621 -0.77876,2.1305 -1.73057,4.45397 -1.2437,3.03597 -1.80673,4.2245 -2.00124,4.2245 -0.1916,0 -0.826252,-1.27068 -2.172891,-4.3505 l -1.902235,-4.35049 0.346741,-0.43317 c 0.83853,-1.04754 1.100135,-1.75455 1.100135,-2.97317 0,-1.34901 -0.34746,-2.18073 -1.287436,-3.08175 -0.776553,-0.74438 -1.6385,-1.06692 -2.851173,-1.06692 -1.212672,0 -2.074619,0.32254 -2.851172,1.06692 -1.596268,1.53012 -1.769227,3.88304 -0.415774,5.65616 l 0.587534,0.76972 -0.269826,0.6986 c -0.148405,0.38423 -0.979377,2.40809 -1.846606,4.49748 l -1.576779,3.79887 -0.920022,0.1895 c -2.225189,0.45832 -3.544688,1.96048 -3.544688,4.03538 0,1.51909 0.506192,2.58795 1.632421,3.44697 1.124547,0.85773 2.849087,1.05522 4.221894,0.48347 z"
           id="path4069" />
        <path
           style="fill:#699dd1;stroke-width:0.16933334"
           d="m 96.393008,194.57386 c -1.1176,-0.17833 -2.703576,-0.52094 -3.524392,-0.76137 -8.306823,-2.43312 -15.015113,-8.88197 -17.712085,-17.02706 -1.044504,-3.1545 -1.26538,-4.62773 -1.269371,-8.46667 -0.0031,-2.96122 0.05146,-3.72384 0.371131,-5.18969 0.808936,-3.70934 2.402407,-7.33001 4.553119,-10.34555 1.331431,-1.86682 4.330307,-4.82284 6.300125,-6.21009 6.661425,-4.69134 15.577305,-6.0061 23.506105,-3.46629 4.23347,1.35611 7.72917,3.56872 10.97404,6.94607 2.83153,2.94714 4.72437,6.07656 6.01854,9.95042 1.02178,3.05847 1.26229,4.66373 1.25857,8.3998 -0.004,3.54239 -0.20849,4.97643 -1.12452,7.86785 -2.2721,7.17185 -7.28162,12.89766 -14.0751,16.08764 -4.63891,2.17828 -10.33236,3.00379 -15.276162,2.21494 z m -7.607685,-15.32803 c 0.859972,-0.35816 1.700126,-1.21962 2.103148,-2.15647 0.553537,-1.28673 0.423712,-2.91591 -0.315981,-3.96532 -0.291216,-0.41315 -0.529482,-0.89253 -0.529482,-1.0653 0,-0.36146 3.310828,-8.47321 3.5601,-8.72248 0.107423,-0.10742 0.227038,-0.10343 0.341884,0.0114 0.229533,0.22954 3.718016,8.19689 3.718016,8.49159 0,0.12358 -0.225577,0.50597 -0.501284,0.84976 -0.901739,1.12442 -1.210261,2.48319 -0.854554,3.76358 0.525455,1.89141 2.088303,3.08702 4.0487,3.09733 3.44324,0.0181 5.41474,-3.85537 3.387,-6.65458 -0.27052,-0.37344 -0.49186,-0.74095 -0.49186,-0.81668 0,-0.0757 0.8001,-2.07249 1.778,-4.43724 0.9779,-2.36476 1.778,-4.32834 1.778,-4.36353 0,-0.0352 0.11983,-0.0393 0.26629,-0.009 0.16715,0.0344 0.95514,1.62615 2.11667,4.27579 1.0177,2.32157 1.85037,4.29066 1.85037,4.37575 0,0.0851 -0.267,0.46665 -0.59334,0.8479 -1.72352,2.01355 -1.02406,5.23614 1.39018,6.40485 2.19507,1.06261 5.11068,-0.12964 5.77997,-2.36356 0.77267,-2.57891 -0.53251,-4.84608 -3.16976,-5.50606 l -0.76156,-0.19058 -1.74719,-3.97933 c -2.36788,-5.39298 -2.22473,-4.91761 -1.69139,-5.61686 0.68123,-0.89314 0.96243,-1.72472 0.96243,-2.84622 0,-2.54767 -1.89642,-4.22834 -4.5542,-4.03609 -3.25145,0.23519 -4.84826,3.9292 -2.87381,6.64819 0.26694,0.3676 0.48534,0.77163 0.48534,0.89784 0,0.12621 -0.77876,2.1305 -1.73057,4.45397 -1.2437,3.03597 -1.80673,4.2245 -2.00124,4.2245 -0.1916,0 -0.826252,-1.27068 -2.172891,-4.3505 l -1.902235,-4.35049 0.346741,-0.43317 c 0.83853,-1.04754 1.100135,-1.75455 1.100135,-2.97317 0,-1.34901 -0.34746,-2.18073 -1.287436,-3.08175 -0.776553,-0.74438 -1.6385,-1.06692 -2.851173,-1.06692 -1.212672,0 -2.074619,0.32254 -2.851172,1.06692 -1.596268,1.53012 -1.769227,3.88304 -0.415774,5.65616 l 0.587534,0.76972 -0.269826,0.6986 c -0.148405,0.38423 -0.979377,2.40809 -1.846606,4.49748 l -1.576779,3.79887 -0.920022,0.1895 c -2.225189,0.45832 -3.544688,1.96048 -3.544688,4.03538 0,1.51909 0.506192,2.58795 1.632421,3.44697 1.124547,0.85773 2.849087,1.05522 4.221894,0.48347 z"
           id="path4067" />
        <path
           style="fill:#4e6eb0;stroke-width:0.16933334"
           d="m 95.715675,194.41486 c -5.618995,-1.03154 -10.658027,-3.74723 -14.595643,-7.86605 -3.484647,-3.645 -5.838186,-8.24246 -6.861595,-13.40359 -0.52724,-2.65892 -0.523613,-7.00196 0.0081,-9.69103 2.499091,-12.63894 13.284669,-21.55158 26.080303,-21.5514 8.48121,1.3e-4 16.23705,3.84803 21.26584,10.55064 5.24126,6.98578 6.69738,16.04226 3.91006,24.31898 -2.97424,8.83175 -10.32679,15.37483 -19.64705,17.48403 -2.23898,0.50668 -7.791363,0.59326 -10.160009,0.15842 z m -6.728273,-15.06923 c 1.682642,-0.85842 2.492264,-2.29353 2.383164,-4.22432 -0.05451,-0.96477 -0.16556,-1.33352 -0.623343,-2.06994 -0.35541,-0.57174 -0.523831,-1.02343 -0.465333,-1.248 0.256472,-0.98456 3.326377,-8.14128 3.492239,-8.14128 0.169962,0 3.719546,7.81438 3.719546,8.18855 0,0.0808 -0.22417,0.42897 -0.498157,0.77373 -1.107982,1.39422 -1.319968,3.2661 -0.542468,4.79012 0.670969,1.31521 2.459289,2.41894 3.91929,2.41894 0.79599,0 2.10125,-0.48552 2.75184,-1.02361 1.8132,-1.49965 2.14086,-3.93255 0.80188,-5.95404 l -0.51462,-0.77695 1.74011,-4.24798 c 0.95707,-2.3364 1.82067,-4.24921 1.91912,-4.25071 0.0984,-0.002 0.99267,1.865 1.98717,4.14775 l 1.80819,4.15047 -0.57459,0.75274 c -0.71301,0.93409 -0.99079,1.75074 -0.98062,2.88284 0.0194,2.16242 1.69605,4.00224 3.88244,4.26034 2.52709,0.29831 4.82362,-1.75074 4.82362,-4.30385 0,-1.10527 -0.45372,-2.36661 -1.10048,-3.05934 -0.53063,-0.56835 -1.61965,-1.16873 -2.36837,-1.30568 -0.76527,-0.13998 -0.5872,0.17332 -2.83138,-4.98181 -1.07578,-2.47117 -1.67457,-4.0461 -1.58397,-4.16612 0.77454,-1.02611 1.10222,-1.6665 1.2634,-2.46909 0.68337,-3.40275 -3.02689,-6.25128 -6.16421,-4.73253 -1.01377,0.49076 -2.04604,1.66411 -2.31774,2.6345 -0.42895,1.53207 -0.11932,2.86905 1.04595,4.51639 0.15874,0.2244 -0.11759,1.03987 -1.46321,4.318 -0.9124,2.22274 -1.7389,4.14141 -1.83666,4.26371 -0.14425,0.18044 -0.20671,0.17064 -0.33131,-0.052 -0.403272,-0.72061 -3.512558,-7.96648 -3.512558,-8.18566 0,-0.13754 0.195729,-0.50669 0.434953,-0.82032 1.400676,-1.83639 1.117984,-4.59054 -0.621408,-6.05414 -1.784626,-1.50167 -4.668964,-1.28843 -6.161722,0.45552 -1.385488,1.61863 -1.452701,3.65811 -0.181458,5.50617 l 0.573302,0.83344 -1.805501,4.37471 -1.8055,4.37472 -0.949179,0.18741 c -1.497539,0.29568 -2.469305,1.02601 -3.153161,2.36974 -1.205282,2.3683 0.121083,5.3771 2.724764,6.18102 0.791297,0.24432 2.325098,0.09 3.11597,-0.31344 z"
           id="path4065" />
        <path
           style="fill:#26469a;stroke-width:0.16933334"
           d="m 97.936734,194.54891 c -9.147162,-0.96476 -16.652141,-5.98607 -20.981815,-14.03815 -0.950371,-1.76744 -1.988662,-4.74766 -2.511927,-7.21 -0.564243,-2.65517 -0.567398,-7.2947 -0.0068,-9.93065 1.143808,-5.37776 3.322805,-9.50031 7.02301,-13.2872 2.391505,-2.44753 4.377021,-3.91552 7.144424,-5.28224 3.792521,-1.873 6.669217,-2.5686 11.091333,-2.68195 3.387741,-0.0868 5.866241,0.24013 8.785471,1.15901 2.17687,0.6852 5.33847,2.2732 7.2543,3.64365 1.97199,1.41064 5.25977,4.77688 6.52703,6.6828 1.96894,2.96123 3.34005,6.3012 4.05921,9.88812 0.5382,2.68432 0.53188,6.99481 -0.0143,9.73713 -1.04873,5.26585 -3.44208,9.80764 -7.13841,13.54639 -2.15986,2.18464 -4.21071,3.67641 -6.858,4.98843 -4.7498,2.35405 -9.58144,3.2901 -14.373603,2.78466 z m -8.962412,-15.02727 c 1.731226,-0.88321 2.593775,-2.24202 2.591032,-4.08179 -0.0017,-1.09955 -0.531661,-2.67411 -0.996942,-2.96167 -0.102706,-0.0635 -0.186737,-0.22754 -0.186737,-0.3646 0,-0.23981 3.143959,-8.01122 3.306892,-8.17416 0.143628,-0.14362 0.245675,0.0631 1.963643,3.97742 1.016463,2.31598 1.643284,3.94817 1.559034,4.05959 -1.127677,1.4913 -1.484762,2.48119 -1.3663,3.78761 0.341332,3.76428 4.774316,5.53921 7.518026,3.01015 1.75718,-1.61971 2.05688,-3.73182 0.82081,-5.78451 l -0.57652,-0.95742 1.61676,-3.93108 c 0.88921,-2.1621 1.67792,-4.04168 1.75268,-4.17685 0.10238,-0.18509 0.19813,-0.10149 0.38788,0.33867 0.13856,0.32143 0.80272,1.84173 1.47589,3.37843 0.67318,1.5367 1.36388,3.11611 1.5349,3.50979 l 0.31095,0.7158 -0.41905,0.49801 c -1.93972,2.30523 -1.29269,5.71498 1.34546,7.09035 1.75376,0.91431 4.20068,0.46003 5.44367,-1.01063 1.0999,-1.30136 1.46387,-3.32801 0.85369,-4.75343 -0.57499,-1.34319 -1.97322,-2.4917 -3.3473,-2.74948 l -0.61047,-0.11452 -1.88072,-4.30432 -1.88073,-4.30433 0.57513,-0.83609 c 1.1119,-1.61642 1.18511,-3.32589 0.21224,-4.95593 -1.96287,-3.2888 -6.89618,-2.83919 -8.1603,0.74372 -0.51351,1.45544 -0.0905,3.76176 0.82945,4.52279 0.15453,0.12782 0.28148,0.31832 0.28212,0.42333 0.002,0.26585 -3.28203,8.22781 -3.39477,8.23138 -0.12211,0.004 -3.549065,-7.81415 -3.549065,-8.09657 0,-0.12126 0.191557,-0.47161 0.425682,-0.77857 0.997563,-1.30787 1.189123,-3.3323 0.452032,-4.77711 -0.415292,-0.81404 -1.531949,-1.8574 -2.378082,-2.22199 -1.003005,-0.43218 -2.655978,-0.35291 -3.687641,0.17684 -2.56483,1.31703 -3.340458,4.30631 -1.736317,6.69178 0.269313,0.40048 0.489659,0.82952 0.489659,0.9534 0,0.26618 -3.18701,8.05244 -3.409697,8.33031 -0.08398,0.1048 -0.463051,0.24017 -0.842372,0.30082 -0.98728,0.15787 -1.855798,0.64797 -2.591603,1.46242 -0.844552,0.93482 -1.154944,1.72264 -1.164978,2.95689 -0.01732,2.13084 1.24532,3.78725 3.43665,4.5084 0.67516,0.22219 2.250478,0.0471 2.995314,-0.33285 z"
           id="path4063" />
        <path
           style="fill:#1e409a;stroke-width:0.16933334"
           d="m 97.239675,194.3167 c -6.105373,-0.84712 -11.25291,-3.35048 -15.389195,-7.48411 -3.766767,-3.76435 -6.046892,-8.07318 -7.243247,-13.68783 -0.560248,-2.62932 -0.558185,-7.12141 0.0045,-9.73667 0.793757,-3.68942 2.330403,-7.28854 4.354466,-10.19899 1.257453,-1.80813 4.31231,-4.85039 6.239046,-6.21332 8.142888,-5.76012 19.363285,-6.36257 27.951795,-1.5008 3.23924,1.83367 6.56638,4.81147 8.58235,7.68124 4.21104,5.99451 5.77848,13.42242 4.30309,20.39187 -1.17712,5.56047 -3.81364,10.19731 -7.97144,14.01932 -3.61745,3.32528 -8.01526,5.52315 -12.95733,6.47561 -2.3246,0.448 -5.691637,0.55648 -7.874007,0.25368 z m -8.73532,-14.40994 c 1.884704,-0.5597 3.227289,-2.43037 3.230332,-4.50094 0.0014,-0.95938 -0.08731,-1.29854 -0.600747,-2.29667 l -0.6024,-1.17107 1.533733,-3.68987 c 0.843554,-2.02943 1.533735,-3.75818 1.533735,-3.84166 0,-0.55786 0.455426,0.30706 1.92996,3.66528 l 1.675958,3.81696 -0.42896,0.45865 c -1.051875,1.12468 -1.392911,2.82106 -0.904735,4.50032 0.568869,1.95684 2.778359,3.47051 4.774419,3.27085 0.47629,-0.0476 1.2579,-0.25522 1.7369,-0.46129 2.56448,-1.10321 3.5259,-4.64307 1.87866,-6.91702 l -0.48152,-0.66472 1.53038,-3.69874 c 0.84171,-2.03431 1.58517,-3.8415 1.65213,-4.01597 0.0892,-0.23253 0.55948,0.68364 1.76127,3.43149 0.90175,2.06179 1.63954,3.81997 1.63954,3.90707 0,0.0871 -0.22596,0.49315 -0.50212,0.90235 -0.70182,1.03991 -0.87583,1.57571 -0.89126,2.74431 -0.0182,1.37669 0.51951,2.58592 1.56964,3.53008 1.88059,1.69081 4.46247,1.68942 6.2722,-0.003 1.11883,-1.04654 1.55769,-2.00481 1.56592,-3.4193 0.0125,-2.13819 -1.3041,-3.96332 -3.27831,-4.54472 l -1.05107,-0.30953 -1.60286,-3.63791 c -2.25843,-5.12584 -2.13572,-4.66546 -1.47443,-5.53179 1.528,-2.00179 0.94077,-5.14069 -1.23719,-6.61317 -3.12711,-2.11417 -7.32175,0.0917 -7.32175,3.85038 0,1.13771 0.3098,2.06669 1.02345,3.06891 l 0.3591,0.50431 -1.55969,3.75906 c -0.85784,2.06748 -1.60873,3.8117 -1.66867,3.87604 -0.11615,0.12471 -3.410962,-7.33243 -3.410962,-7.72004 0,-0.12622 0.11987,-0.32896 0.266377,-0.45055 0.480732,-0.39897 0.954911,-1.55608 1.045052,-2.55016 0.254586,-2.80763 -1.861879,-5.10937 -4.698096,-5.10937 -1.936944,0 -3.330453,0.86418 -4.280829,2.65474 -0.291286,0.54881 -0.370096,0.98518 -0.370541,2.05173 -5.93e-4,1.40753 0.231764,2.10747 0.966554,2.91162 0.440794,0.48241 0.446443,0.4629 -1.474058,5.09083 l -1.5921,3.83655 -0.901324,0.17998 c -1.799437,0.35931 -3.309381,1.88097 -3.69111,3.71974 -0.480585,2.31497 0.833444,4.58421 3.110218,5.37115 1.080921,0.37361 1.825794,0.38501 2.969204,0.0455 z"
           id="path4061" />
        <path
           style="fill:#1e3e98;stroke-width:0.16933334"
           d="m 98.848342,194.39609 c -0.251218,-0.0804 0.574937,-0.13231 2.031998,-0.12755 1.90088,0.006 2.22591,0.0365 1.43934,0.13407 -1.33607,0.16577 -2.942785,0.16276 -3.471338,-0.007 z m -0.878417,-0.11567 c 0.122237,-0.0489 0.268287,-0.0429 0.324556,0.0134 0.05627,0.0563 -0.04375,0.0963 -0.22225,0.0889 -0.197265,-0.008 -0.237388,-0.0482 -0.102306,-0.10231 z m -3.804659,-0.50974 c -0.335094,-0.0654 -0.70536,-0.81593 -0.502594,-1.01869 0.143157,-0.14316 0.790897,0.13967 0.690801,0.30163 -0.05341,0.0864 -0.02277,0.15714 0.0681,0.15714 0.09087,0 0.190615,-0.0709 0.221661,-0.1575 0.03104,-0.0866 0.199351,-0.0522 0.374017,0.0765 0.184014,0.13561 0.275266,0.34428 0.21698,0.49617 -0.09844,0.25654 -0.333461,0.28836 -1.068962,0.14472 z m 11.368474,-0.0572 c -0.1791,-0.28978 0.92528,-0.76475 2.08716,-0.89764 0.60231,-0.0689 0.7202,-0.0365 0.67734,0.18592 -0.0286,0.14813 -0.2805,0.33511 -0.5599,0.41551 -0.90858,0.26147 -2.12506,0.42491 -2.2046,0.29621 z m -13.279493,-0.5697 c -0.453649,-0.1639 -0.518857,-0.23508 -0.294326,-0.32124 0.310813,-0.11927 1.131087,0.18199 1.131087,0.41541 0,0.17945 -0.115416,0.16646 -0.836761,-0.0942 z m 16.246093,-0.16726 c 0,-0.0357 0.15251,-0.1048 0.3389,-0.15354 0.1864,-0.0487 0.2962,-0.0195 0.24401,0.0649 -0.0912,0.14747 -0.58291,0.22224 -0.58291,0.0886 z M 89.492969,192.1297 c -0.628488,-0.29917 -1.234278,-0.63552 -1.3462,-0.74744 -0.284695,-0.2847 -0.0313,-0.25381 0.437441,0.0533 0.380153,0.24908 0.992914,0.26551 1.225573,0.0329 0.176004,-0.176 0.970081,0.058 1.206892,0.35567 0.312029,0.39221 0.264114,0.88124 -0.08467,0.86411 -0.162983,-0.008 -0.810551,-0.25933 -1.439039,-0.55851 z m 20.480471,0.058 c -0.11358,-0.43433 0.26426,-0.70821 0.79372,-0.57532 0.24009,0.0603 0.66648,0.0294 0.94753,-0.0686 0.28104,-0.098 0.51099,-0.11812 0.51099,-0.0448 0,0.14502 -0.57777,0.4381 -1.55005,0.78629 -0.56631,0.2028 -0.62579,0.19453 -0.70219,-0.0976 z m 2.5471,-0.86504 c 0.11561,-0.14287 0.1619,-0.30805 0.10287,-0.36708 -0.21561,-0.21561 0.3378,-0.64562 0.7105,-0.55208 0.25178,0.0632 0.51765,-0.0424 0.82563,-0.32778 0.24984,-0.23154 0.51826,-0.42099 0.5965,-0.42099 0.0782,0 0.19007,-0.1905 0.2485,-0.42333 0.11276,-0.44924 0.36157,-0.52789 0.77714,-0.24564 0.21724,0.14755 0.19844,0.21457 -0.12993,0.46308 -0.21117,0.15981 -0.63027,0.50092 -0.93134,0.75803 -0.30107,0.25711 -0.7379,0.51499 -0.97073,0.57307 -0.23284,0.0581 -0.53764,0.19809 -0.67734,0.31111 -0.1397,0.11303 -0.3683,0.26982 -0.508,0.34843 -0.21049,0.11845 -0.21799,0.0984 -0.0438,-0.11682 z M 87.816375,190.8189 c 0.111446,-0.30126 0.363966,-0.46279 0.363966,-0.23281 0,0.0466 0,0.15272 0,0.23589 0,0.0832 -0.110407,0.19358 -0.245349,0.24536 -0.186172,0.0714 -0.214782,0.0115 -0.118617,-0.24844 z m -0.8637,0.008 c -0.162984,-0.0949 -0.296334,-0.23278 -0.296334,-0.30634 0,-0.2442 0.781157,-0.50288 1.031594,-0.34161 0.1886,0.12145 0.15881,0.17534 -0.142594,0.25794 -0.419668,0.115 -0.497998,0.32814 -0.169333,0.46076 0.116417,0.047 0.135467,0.0891 0.04233,0.0936 -0.09313,0.005 -0.302683,-0.0695 -0.465666,-0.16438 z m -1.818544,-1.25428 c -0.114956,-0.13851 -0.160175,-0.37911 -0.100487,-0.53465 0.09711,-0.25306 0.143639,-0.24512 0.442278,0.0754 0.183564,0.19704 0.333753,0.43763 0.333753,0.53466 0,0.26212 -0.435782,0.21347 -0.675544,-0.0754 z m -2.203123,-1.73456 c -0.512233,-0.43844 -1.15304,-1.05249 -1.424014,-1.36454 l -0.49268,-0.56739 0.648924,0.0542 c 0.627267,0.0524 1.077579,0.4775 0.50577,0.4775 -0.349844,0 -0.241154,0.40395 0.127957,0.47556 0.169295,0.0328 0.296151,-0.0929 0.341763,-0.33866 0.06762,-0.3644 0.08824,-0.35358 0.304198,0.15943 0.18419,0.43756 0.33034,0.55033 0.713184,0.55033 0.362973,0 0.470357,0.073 0.43618,0.29634 -0.02494,0.16298 0.04915,0.46778 0.164647,0.67733 0.369404,0.67025 -0.299806,0.45824 -1.325929,-0.42007 z m 33.897752,0.16752 c 0.0573,-0.49654 0.54294,-0.72283 0.86343,-0.40233 0.12873,0.12873 0.0914,0.28046 -0.12889,0.52388 -0.45204,0.4995 -0.79958,0.44199 -0.73454,-0.12155 z m 1.5441,-0.83037 c 0.0639,-0.10666 -0.0104,-0.24251 -0.16514,-0.30189 -0.20507,-0.0787 -0.23071,-0.15859 -0.0946,-0.29472 0.13613,-0.13613 0.2573,-0.11623 0.44693,0.0734 0.234,0.234 0.23182,0.28315 -0.0216,0.48865 -0.15498,0.12566 -0.22949,0.14122 -0.16559,0.0346 z m 0.28748,-0.90675 c 0,-0.0931 0.1905,-0.16933 0.42334,-0.16933 0.23283,0 0.42333,-0.0889 0.42333,-0.19756 0,-0.10865 0.049,-0.14859 0.1088,-0.0887 0.0598,0.0598 0.0124,0.22493 -0.1054,0.36688 -0.23908,0.28808 -0.85007,0.35187 -0.85007,0.0888 z m 1.35467,-0.89365 c 0,-0.18025 -0.0911,-0.24609 -0.254,-0.18358 -0.16209,0.0622 -0.254,-0.003 -0.254,-0.17996 0,-0.37907 0.48241,-0.53526 0.76478,-0.24763 0.19452,0.19815 0.19247,0.28616 -0.0131,0.56352 -0.20787,0.28042 -0.24366,0.28742 -0.24366,0.0477 z M 80.052968,184.8298 c -0.466548,-0.49662 -0.365542,-0.70855 0.196537,-0.41237 0.456696,0.24065 0.663212,0.50653 0.54367,0.69995 -0.139868,0.22631 -0.325004,0.15438 -0.740207,-0.28758 z m 40.808712,-0.57522 c 0,-0.0832 0.12507,-0.19921 0.27795,-0.25787 0.2324,-0.0892 0.24288,-0.0644 0.0639,0.15121 -0.24386,0.29384 -0.34188,0.32442 -0.34188,0.10666 z m -41.444339,-0.53199 c -0.20955,-0.0839 -0.381,-0.1976 -0.381,-0.25266 0,-0.0551 0.08472,-0.0478 0.188265,0.0162 0.103546,0.064 0.248256,0.0193 0.321577,-0.0994 0.161962,-0.26206 0.731214,-0.0795 0.636656,0.20415 -0.09142,0.27425 -0.313758,0.31248 -0.765498,0.13162 z m 42.180639,-0.38898 c 0.0607,-0.1706 0.11036,-0.41825 0.11036,-0.55033 0,-0.13208 0.0952,-0.2211 0.21167,-0.19782 0.12163,0.0243 0.21735,-0.13774 0.22504,-0.381 0.0324,-1.0252 0.086,-1.13125 0.76571,-1.51325 0.60938,-0.34249 0.68295,-0.44756 0.60085,-0.85807 -0.16196,-0.80978 0.1725,-1.63994 0.74048,-1.83794 0.27734,-0.0967 0.50425,-0.11847 0.50425,-0.0484 0,0.33021 -2.03813,4.11492 -2.61613,4.85803 -0.35892,0.46145 -0.60292,0.69942 -0.54223,0.52881 z m -43.145688,-0.67946 c -0.514135,-0.67407 -0.547357,-0.86203 -0.111095,-0.62855 0.27229,0.14572 0.808147,1.19486 0.610286,1.19486 -0.03698,0 -0.261618,-0.25484 -0.499191,-0.56631 z m -1.764207,-3.11669 c -0.746114,-1.48648 -1.76768,-4.52743 -1.658231,-4.93613 0.04645,-0.17344 0.0796,-0.13383 0.09218,0.11013 0.0108,0.20955 0.122133,0.381 0.247399,0.381 0.418675,0 0.836379,0.63184 0.721169,1.09087 -0.05897,0.23494 -0.06061,0.71858 -0.0037,1.07475 0.08634,0.53992 0.204685,0.69135 0.711873,0.91083 0.533648,0.23094 0.613572,0.34408 0.651107,0.92174 0.02353,0.36216 0.07305,0.90613 0.110049,1.20881 0.107973,0.88343 -0.16631,0.64372 -0.871882,-0.762 z m 8.251879,1.19291 c -0.341278,-0.0525 -0.471131,-0.19244 -0.551509,-0.59434 -0.130869,-0.65434 -0.08346,-0.70199 0.454602,-0.45683 0.257237,0.1172 0.395678,0.29092 0.342433,0.42967 -0.04916,0.12811 -0.005,0.23293 0.09807,0.23293 0.103097,0 0.18745,-0.066 0.18745,-0.14673 0,-0.0807 0.51435,-0.11296 1.143,-0.0717 0.86096,0.0565 1.382583,-0.009 2.113937,-0.26655 l 0.970938,-0.34157 -0.0354,0.42772 c -0.01947,0.23525 -0.151591,0.48691 -0.293604,0.55926 -0.496231,0.25278 -2.051104,0.34113 -2.380731,0.13528 -0.245602,-0.15338 -0.450401,-0.15189 -0.888352,0.006 -0.313041,0.1132 -0.601856,0.1944 -0.64181,0.18044 -0.03995,-0.0139 -0.273515,-0.0563 -0.519022,-0.0941 z m 14.540507,-0.002 c -0.257696,-0.0389 -0.424649,-0.14183 -0.371007,-0.22863 0.05364,-0.0868 0.02133,-0.15781 -0.0718,-0.15781 -0.09313,0 -0.216426,0.0762 -0.273986,0.16934 -0.05756,0.0931 -0.252557,0.16933 -0.433327,0.16933 -0.241502,-1e-5 -0.328673,-0.11738 -0.328673,-0.44256 0,-0.40893 0.0418,-0.43421 0.550333,-0.33269 1.454399,0.29032 2.484249,0.29892 3.301229,0.0276 0.93523,-0.31064 1.39777,-0.22357 1.39777,0.26311 0,0.3917 -0.42758,0.59279 -0.72883,0.34277 -0.245,-0.20333 -2.10608,-0.066 -2.24946,0.16601 -0.0493,0.0798 -0.14235,0.13371 -0.20671,0.11976 -0.0644,-0.014 -0.327841,-0.0573 -0.585536,-0.0962 z M 111.042,180.4281 c -0.16967,-0.20444 -0.15617,-0.27232 0.0716,-0.35971 0.24369,-0.0935 0.22946,-0.14401 -0.10793,-0.383 -0.21375,-0.15141 -0.54103,-0.29429 -0.7273,-0.31751 -0.18626,-0.0232 -0.54766,-0.0671 -0.80311,-0.0976 -0.25544,-0.0304 -0.51003,-0.10093 -0.56575,-0.15665 -0.0557,-0.0557 -0.13558,-0.81192 -0.17747,-1.68045 -0.0419,-0.86852 -0.0835,-1.73153 -0.0925,-1.9178 -0.009,-0.18626 -0.006,-0.92448 0.007,-1.64047 0.02,-1.12314 0.0639,-1.30015 0.31955,-1.28973 0.16298,0.007 0.42909,-0.0441 0.59136,-0.11281 0.24625,-0.10424 0.21825,0.039 -0.16933,0.8664 -0.64692,1.38097 -0.64528,2.81972 0.005,4.14593 0.28786,0.58731 0.42249,1.06992 0.35068,1.25706 -0.0935,0.24373 -0.0551,0.28017 0.19441,0.18442 0.21125,-0.0811 0.45145,0.0114 0.74906,0.28849 0.68614,0.63873 2.06978,1.01382 3.38175,0.91676 1.62163,-0.11996 2.83332,-0.86613 3.76887,-2.32087 0.37248,-0.57919 0.48414,-0.66937 0.48414,-0.39099 0,0.199 -0.0715,0.40603 -0.15892,0.46005 -0.0874,0.054 -0.12001,0.26806 -0.0725,0.47566 0.19681,0.85906 0.17924,0.8859 -0.57295,0.87519 l -0.71967,-0.0103 v 0.70562 c 0,0.68688 -0.0146,0.70513 -0.55033,0.68758 -0.30268,-0.01 -0.63629,-0.12802 -0.74134,-0.26245 -0.16474,-0.21081 -0.23098,-0.20446 -0.4816,0.0462 -0.2208,0.22079 -0.53374,0.28098 -1.303,0.2506 -0.55683,-0.022 -1.04959,-0.10012 -1.09502,-0.17363 -0.0454,-0.0735 -0.22536,-0.0572 -0.39985,0.0361 -0.45465,0.24332 -0.94246,0.20947 -1.18453,-0.0822 z m -14.348796,-1.60213 c -0.561482,-0.60809 -0.845815,-0.77559 -1.429676,-0.84225 -0.06241,-0.007 -0.07752,-0.47664 -0.03357,-1.04337 0.04702,-0.6063 0.0051,-1.12056 -0.101825,-1.24941 -0.118362,-0.14262 -0.127594,-0.36139 -0.02648,-0.62735 0.08539,-0.22461 0.116538,-0.89271 0.06921,-1.48468 -0.08541,-1.06819 -0.08304,-1.07538 0.314044,-0.95462 0.220054,0.0669 0.485447,0.12885 0.589759,0.13763 0.120964,0.0102 0.06881,0.28917 -0.143997,0.77025 -0.263402,0.59546 -0.319888,1.02631 -0.268262,2.04611 0.07368,1.4553 0.399212,2.2761 1.268119,3.19742 0.312153,0.33097 0.532967,0.63636 0.490698,0.67863 -0.04227,0.0423 -0.369879,-0.2405 -0.728022,-0.62836 z m 6.557806,0.51313 c 0,-0.0658 0.23558,-0.34345 0.52351,-0.61699 0.7628,-0.72469 1.2035,-1.70108 1.29775,-2.87526 0.0965,-1.20174 -0.30514,-2.83535 -0.83831,-3.41002 -0.33524,-0.36133 -0.33614,-0.38678 -0.0421,-1.18533 0.33372,-0.90637 0.58317,-1.28199 0.58317,-0.87816 0,0.1428 -0.0571,0.3172 -0.127,0.38754 -0.22169,0.22326 -0.15175,1.80325 0.076,1.7165 0.11164,-0.0425 0.44388,0.0428 0.7383,0.18973 0.49029,0.24458 0.52679,0.31864 0.43388,0.88035 -0.0558,0.33731 -0.10227,0.82735 -0.1033,1.08896 -0.001,0.27362 -0.0738,0.43121 -0.17119,0.37101 -0.0988,-0.0611 -0.16934,0.11113 -0.16934,0.41334 0,0.28489 0.0673,0.51799 0.14959,0.51799 0.21563,0 0.35671,0.6584 0.16629,0.77608 -0.0882,0.0545 -0.11331,0.24721 -0.0558,0.42824 0.10822,0.34098 -0.46872,0.98003 -0.89503,0.99138 -0.119,0.003 -0.21166,0.21901 -0.21166,0.49304 0,0.42709 -0.0838,0.50867 -0.67734,0.65932 -0.37253,0.0946 -0.67733,0.11809 -0.67733,0.0523 z m -20.283241,-0.53341 c -0.01833,-0.64455 -0.328919,-1.04185 -0.717948,-0.91837 -0.314155,0.0997 -0.447314,-0.10944 -0.675477,-1.06095 -0.09601,-0.40041 -0.06869,-0.58732 0.09964,-0.68152 0.194025,-0.10858 0.189019,-0.21216 -0.03062,-0.63361 -0.215534,-0.41357 -0.227641,-0.62098 -0.0676,-1.15794 0.118916,-0.39898 0.322181,-0.6874 0.521104,-0.73942 0.435611,-0.11391 0.416864,-0.38445 -0.02664,-0.38445 -0.498662,0 -0.311552,-0.41165 0.215767,-0.47469 0.425004,-0.0508 0.91411,-0.75089 0.731279,-1.04672 -0.222651,-0.36026 0.126874,-0.67704 0.646092,-0.58556 0.290043,0.0511 0.563172,0.12872 0.606953,0.1725 0.04378,0.0438 -0.268861,0.4398 -0.694761,0.88004 -1.462831,1.51207 -1.717643,3.32725 -0.765109,5.45034 0.189698,0.42281 0.328909,0.86521 0.309359,0.9831 -0.01955,0.11789 0.02522,0.20104 0.09949,0.18478 0.220193,-0.0482 0.727705,0.2175 0.727705,0.38099 0,0.0832 -0.217004,0.15122 -0.482231,0.15122 -0.422134,0 -0.484072,-0.0648 -0.497008,-0.51974 z m 7.244572,0.38843 c 0,-0.17885 0.558575,-0.71536 0.744778,-0.71536 0.06899,0 0.101093,0.17145 0.07133,0.381 -0.03477,0.24485 -0.190261,0.40034 -0.435111,0.43511 -0.20955,0.0298 -0.381,-0.0156 -0.381,-0.10075 z m 1.100648,-1.50726 c 0.43345,-1.02614 0.578651,-1.5738 0.585254,-2.20741 0.0084,-0.80623 -0.517229,-2.34893 -1.016656,-2.98384 -0.2768,-0.3519 -0.30218,-0.50416 -0.150518,-0.90306 0.164707,-0.4332 0.199083,-0.45002 0.354016,-0.17317 0.09438,0.16864 0.13417,0.40415 0.08843,0.52335 -0.12996,0.33868 0.167733,0.68473 0.593224,0.6896 0.23124,0.003 0.410129,0.12365 0.444663,0.30076 0.03754,0.19254 -0.0474,0.29634 -0.242508,0.29634 -0.233553,0 -0.255126,0.0451 -0.09708,0.2032 0.11176,0.11176 0.2032,0.34036 0.2032,0.508 0,0.16764 0.06588,0.3048 0.146392,0.3048 0.08051,0 0.137665,0.81915 0.127,1.82033 l -0.01939,1.82033 -0.573222,0.0548 c -0.498827,0.0477 -0.556296,0.0147 -0.442797,-0.254 z m 0.931352,-0.46811 c 0,-0.0411 -0.0762,-0.12176 -0.169333,-0.17932 -0.09313,-0.0576 -0.169333,-0.024 -0.169333,0.0747 0,0.0986 0.0762,0.17933 0.169333,0.17933 0.09313,0 0.169333,-0.0336 0.169333,-0.0747 z m 32.620249,0.0323 c 0.0721,-0.20955 0.1404,-0.6477 0.1518,-0.97366 0.031,-0.88627 0.0564,-0.95956 0.33262,-0.95956 0.1397,0 0.254,0.0487 0.254,0.10823 0,0.21815 -0.71094,2.20599 -0.78896,2.20599 -0.0443,0 -0.0215,-0.17145 0.0505,-0.381 z m -6.26069,-1.08655 c -0.0621,-0.0621 -0.10286,-0.50024 -0.0906,-0.97367 0.0211,-0.81318 0.0292,-0.828 0.14704,-0.26811 0.0686,0.32597 0.13478,0.45297 0.14704,0.28222 0.0123,-0.17135 0.11713,-0.27567 0.23396,-0.23283 0.11642,0.0427 0.17976,0.18239 0.14077,0.31044 -0.039,0.12806 -0.0661,0.40429 -0.0602,0.61384 0.0101,0.36239 -0.27571,0.51036 -0.51796,0.26811 z m 6.33992,-1.20751 c -0.22902,-0.0763 -0.24186,-0.44581 -0.0292,-0.8409 0.087,-0.16172 0.25603,-0.53714 0.37553,-0.83426 0.11951,-0.29712 0.3531,-0.57574 0.51909,-0.61915 0.34518,-0.0903 0.35299,-0.1536 0.40011,-3.24329 0.0584,-3.82717 0.052,-4.04099 -0.15269,-5.16467 -0.1833,-1.00607 -0.23928,-1.10515 -0.65141,-1.15286 -0.58252,-0.0674 -0.66661,-0.3224 -0.48148,-1.45984 0.0835,-0.51283 0.10808,-1.20157 0.0547,-1.53053 -0.0534,-0.32895 -0.0551,-0.5981 -0.004,-0.5981 0.17705,0 0.6684,1.73335 0.52163,1.84018 -0.081,0.0589 -0.1472,0.29765 -0.1472,0.53048 0,0.29544 0.0827,0.40986 0.27386,0.37874 0.30381,-0.0495 0.48973,0.70684 0.84349,3.43126 0.2884,2.22109 0.0462,6.36939 -0.47451,8.128 l -0.10029,0.33867 -0.1336,-0.33867 c -0.0787,-0.19953 -0.0958,-0.0231 -0.0416,0.42938 0.0822,0.68578 0.0558,0.76805 -0.24653,0.76805 -0.18621,0 -0.42293,-0.0281 -0.52604,-0.0625 z m -6.11414,-0.46292 c 0,-0.27298 0.45069,-0.53177 0.6241,-0.35836 0.1206,0.1206 -0.26206,0.61768 -0.4755,0.61768 -0.0817,0 -0.1486,-0.11669 -0.1486,-0.25932 z m -44.341503,-1.94202 c -0.33389,-1.71791 -0.435293,-5.17259 -0.205429,-6.99878 0.249751,-1.98419 1.028341,-5.1934 1.50795,-6.21551 0.352633,-0.7515 0.354109,-0.75241 0.265325,-0.16304 -0.17042,1.1313 -0.188302,1.85255 -0.04371,1.76319 0.07995,-0.0494 0.145365,0.0308 0.145365,0.17834 0,0.1475 -0.185866,0.33885 -0.413037,0.42522 -0.660639,0.25118 -0.832146,0.7909 -0.866063,2.72544 -0.01726,0.9846 -0.115,1.94642 -0.217195,2.13738 -0.245947,0.45955 -0.152107,3.88976 0.113684,4.15555 0.277699,0.2777 0.245071,0.72575 -0.07201,0.9889 -0.232419,0.19289 -0.235889,0.24792 -0.02534,0.40187 0.181238,0.13253 0.215729,0.37423 0.134171,0.94025 l -0.109777,0.76186 z m 1.161497,-11.35532 c 0,-0.0876 -0.0762,-0.15934 -0.169333,-0.15934 -0.09313,0 -0.169333,0.11879 -0.169333,0.26399 0,0.1452 0.0762,0.2169 0.169333,0.15934 0.09313,-0.0576 0.169333,-0.17636 0.169333,-0.26399 z m 41.612556,11.04196 c -0.44177,-0.4554 -0.80322,-0.87122 -0.80322,-0.92404 0,-0.0528 0.30189,-0.0919 0.67088,-0.0868 0.5139,0.007 0.73273,0.10367 0.93524,0.41272 0.23491,0.35852 0.23563,0.40346 0.006,0.40346 -0.30395,0 -0.33351,0.19533 -0.0695,0.45932 0.10361,0.10361 0.16026,0.27275 0.12589,0.37585 -0.0344,0.10311 -0.42394,-0.18513 -0.86572,-0.64053 z m -20.804618,-0.38006 c -0.01104,-0.31712 -0.01121,-0.6565 -3.38e-4,-0.75419 0.0118,-0.10662 -0.227667,-0.14875 -0.599014,-0.10539 -0.528961,0.0618 -0.602571,0.0302 -0.507603,-0.21724 0.06103,-0.1592 0.111018,-0.32132 0.111018,-0.36027 0,-0.0389 0.1651,-0.0708 0.366889,-0.0708 0.439073,0 0.332425,-0.15193 -0.17528,-0.24971 -0.199219,-0.0384 -0.43813,-0.11667 -0.530912,-0.17402 -0.221074,-0.13663 -0.217125,-0.71168 0.0058,-0.84948 0.103222,-0.0638 0.128239,-0.35462 0.06123,-0.71181 -0.180286,-0.96101 0.177016,-0.53907 0.784985,0.92699 0.299251,0.72162 0.684242,1.58874 0.855537,1.92694 0.304718,0.60164 0.304278,0.6214 -0.02042,0.91525 -0.323245,0.29253 -0.332382,0.28536 -0.351923,-0.27625 z m 13.595168,-0.10011 c -0.11336,-0.21181 -0.39624,-0.39214 -0.66337,-0.42288 -0.42759,-0.0492 -0.46118,-0.10559 -0.41016,-0.68859 0.0306,-0.34925 -0.0162,-0.635 -0.10398,-0.635 -0.0878,0 -0.15087,-0.28144 -0.14024,-0.62543 0.0168,-0.54449 -0.0574,-0.6705 -0.57335,-0.97366 -0.32597,-0.19153 -0.59267,-0.45827 -0.59267,-0.59275 0,-0.13448 -0.24929,-0.3901 -0.55398,-0.56804 -0.79202,-0.46257 -0.98723,-0.22264 -1.02712,1.26241 -0.018,0.67126 -0.0761,1.26375 -0.12896,1.31664 -0.14302,0.14302 -1.08394,0.11646 -1.08394,-0.0306 0,-0.0697 0.29533,-0.79362 0.65629,-1.60867 0.36096,-0.81504 0.8729,-2.04609 1.13765,-2.73566 l 0.48137,-1.25376 0.34401,0.75293 c 1.7925,3.92324 2.98804,6.77652 2.92218,6.97408 -0.0371,0.11135 -0.15274,0.0364 -0.26373,-0.17102 z m -1.8911,-4.54047 c 0,-0.1397 -0.0762,-0.254 -0.16934,-0.254 -0.0931,0 -0.16933,0.1143 -0.16933,0.254 0,0.1397 0.0762,0.254 0.16933,0.254 0.0931,0 0.16934,-0.1143 0.16934,-0.254 z m -17.103822,3.64067 c -10e-4,-0.0466 0.352347,-0.90591 0.785228,-1.90965 0.800574,-1.85634 1.194194,-2.39988 0.593958,-0.82019 -0.249593,0.65688 -0.307397,1.11557 -0.237593,1.88538 l 0.09225,1.01731 -0.616004,-0.0441 c -0.338804,-0.0242 -0.616829,-0.0822 -0.617835,-0.12876 z m 23.753192,-0.33867 c -0.15948,-0.18626 -0.41393,-0.33866 -0.56544,-0.33866 -0.19103,0 -0.62081,-0.76561 -1.4021,-2.49767 -1.23029,-2.72747 -1.31857,-3.03606 -0.78717,-2.75167 0.19805,0.10599 0.33867,0.35456 0.33867,0.59863 0,0.22955 0.0762,0.41737 0.16933,0.41737 0.0931,0 0.16934,0.18117 0.16934,0.4026 0,0.47567 0.26445,0.72831 0.84666,0.80885 0.39406,0.0545 0.42291,0.12297 0.41712,0.98989 -0.003,0.51223 -0.0415,1.03962 -0.0847,1.17197 -0.0544,0.16688 0.16806,0.31261 0.72589,0.47551 0.67583,0.19735 0.80433,0.30093 0.80433,0.64836 0,0.50164 -0.24198,0.53029 -0.63196,0.0748 z m -29.309927,-0.11598 c 0.06599,-0.34265 1.663931,-0.82475 1.662148,-0.50147 -0.0014,0.25045 -0.941909,0.78679 -1.379735,0.78679 -0.225186,0 -0.31909,-0.0949 -0.282413,-0.28532 z m 14.602617,-1.33801 c -0.210727,-0.55179 -0.241884,-0.81048 -0.107608,-0.89347 0.122688,-0.0758 0.133638,-0.20435 0.0312,-0.36634 -0.136039,-0.21515 -0.158135,-0.2157 -0.160372,-0.004 -0.0046,0.43963 -0.297525,-0.0332 -0.938791,-1.51554 -0.342461,-0.79163 -0.88871,-2.03636 -1.213888,-2.76606 l -0.59123,-1.32673 0.361929,-0.38526 c 0.913894,-0.97279 1.316785,-3.46981 0.770721,-4.77673 -0.31549,-0.75508 -0.32001,-0.72144 0.08276,-0.61611 0.18522,0.0484 0.295093,0.15548 0.244163,0.23789 -0.05093,0.0824 0.08015,0.13089 0.291297,0.10775 0.422548,-0.0463 0.605052,0.36552 0.379691,0.85681 -0.07227,0.15754 -0.143975,0.51504 -0.159351,0.79444 -0.04065,0.73873 -0.215593,1.76131 -0.334132,1.95311 -0.05641,0.0913 0.01656,0.21166 0.162171,0.26754 0.331817,0.12733 0.345411,0.80359 0.02156,1.07237 -0.177312,0.14715 -0.33505,0.15265 -0.58239,0.0203 -0.456436,-0.24428 -0.605531,0.0232 -0.546648,0.98073 0.05736,0.93275 0.322663,1.37864 0.820281,1.37864 0.391012,0 0.393784,0.008 0.460214,1.35467 0.01148,0.23283 0.08112,0.57573 0.154745,0.762 0.07362,0.18626 0.202227,0.51011 0.285787,0.71966 0.147055,0.36878 0.448583,0.44568 1.725493,0.44008 0.16299,-6.8e-4 0.29634,0.0514 0.29634,0.11572 0,0.17422 -1.00819,2.3652 -1.08835,2.3652 -0.0379,0 -0.20245,-0.34949 -0.36559,-0.77666 z m -13.005949,8.5e-4 c -0.05653,-0.14736 -0.102783,-0.49026 -0.102783,-0.76204 0,-0.38126 0.07737,-0.49415 0.338667,-0.49415 0.186266,0 0.338666,-0.11051 0.338666,-0.24559 0,-0.13507 0.133118,-0.32008 0.295816,-0.41113 0.215685,-0.1207 0.318891,-0.45441 0.381,-1.23193 0.07396,-0.92593 0.140944,-1.09416 0.508518,-1.27721 0.232833,-0.11596 0.4473,-0.14117 0.476593,-0.056 0.02929,0.0851 -0.322368,1.05444 -0.78147,2.15401 -0.459101,1.09957 -0.880727,2.13257 -0.936945,2.29556 -0.127259,0.36893 -0.382043,0.38294 -0.518062,0.0285 z m 6.839884,-2.09161 c 0,-0.087 -0.20955,-0.1822 -0.465667,-0.21167 -0.572982,-0.0659 -0.58422,-0.49555 -0.04563,-1.74438 l 0.364055,-0.84414 0.498873,1.18247 c 0.768074,1.82054 0.763847,1.77581 0.167782,1.77581 -0.285677,0 -0.519411,-0.0711 -0.519411,-0.15809 z m 7.899815,-0.94258 c 0.0626,-0.37253 0.1142,-1.15471 0.11459,-1.73818 l 6.8e-4,-1.06084 0.65796,-0.10522 c 0.63627,-0.10174 0.65627,-0.12538 0.60678,-0.71715 -0.0437,-0.52199 -0.11781,-0.61964 -0.50446,-0.66433 -0.84391,-0.0975 -0.88107,-0.23827 -0.76868,-2.91095 0.0372,-0.88476 8.5e-4,-1.74201 -0.0808,-1.905 -0.18139,-0.36203 0.10977,-0.97366 0.4635,-0.97366 0.20781,0 0.21388,0.0574 0.0364,0.34383 -0.17391,0.2806 -0.17023,0.37052 0.02,0.48893 0.19302,0.12013 0.1976,0.29318 0.0266,1.00593 -0.31983,1.33318 0.10727,3.0052 1.0239,4.00842 0.30763,0.33669 0.29915,0.38034 -0.41149,2.11667 -0.39908,0.97509 -0.85459,2.00148 -1.01225,2.28088 l -0.28666,0.508 0.11389,-0.67733 z m 9.11205,-2.667 c -0.50954,-1.09444 -0.5096,-1.11076 -0.007,-1.73567 l 0.40881,-0.508 -0.0931,1.04251 c -0.0513,0.57504 -0.0112,1.27739 0.0895,1.56633 0.2872,0.82385 0.0567,0.61263 -0.39857,-0.36517 z m -21.14166,-0.6352 c -0.05137,-0.23272 -0.114726,-0.61363 -0.1408,-0.84647 -0.03901,-0.34838 -0.127601,-0.41505 -0.50035,-0.37658 -0.570884,0.0589 -0.76603,-0.22552 -0.318899,-0.46481 0.29501,-0.15789 0.313115,-0.24025 0.141465,-0.6435 -0.108263,-0.25434 -0.345638,-0.58542 -0.527499,-0.73572 -0.289724,-0.23946 -0.306374,-0.34294 -0.1345,-0.83598 0.132465,-0.37999 0.140452,-0.6184 0.0246,-0.73425 -0.232513,-0.23251 -0.215884,-0.78752 0.04011,-1.33874 0.23886,-0.51433 0.429497,-0.58037 0.575674,-0.19944 0.0859,0.22386 0.130377,0.21812 0.327967,-0.0423 0.307047,-0.40473 0.295757,-0.22332 -0.03529,0.56701 -0.208251,0.49717 -0.253781,0.99233 -0.188343,2.04833 0.07824,1.26263 0.143403,1.47213 0.697977,2.24405 0.691968,0.96317 0.70174,1.0014 0.371477,1.45306 -0.232508,0.31798 -0.243192,0.31494 -0.333595,-0.0946 z M 112.1393,160.188 c -0.0585,-0.0947 -0.15824,-0.14003 -0.22166,-0.10084 -0.0634,0.0392 -0.11815,-0.58821 -0.12163,-1.39424 -0.006,-1.36101 -0.0463,-1.52913 -0.56707,-2.35809 -0.55266,-0.87973 -0.59961,-1.3934 -0.12736,-1.3934 0.30711,0 0.45879,0.38388 0.27145,0.68701 -0.19416,0.31415 0.1228,0.66765 0.59865,0.66765 0.67289,0 0.80088,0.35446 0.61427,1.70109 -0.11908,0.85933 -0.11431,1.30488 0.0162,1.51388 0.19857,0.31798 0.0786,0.84903 -0.19185,0.84903 -0.0906,0 -0.21252,-0.0774 -0.27102,-0.17209 z m 12.36304,-0.97722 c -0.5159,-0.10813 -0.93994,-0.55936 -0.89563,-0.95308 0.0218,-0.19412 -0.0221,-0.67679 -0.0976,-1.07261 -0.10275,-0.53876 -0.21623,-0.71966 -0.45143,-0.71966 -0.1728,0 -0.43281,-0.16936 -0.57779,-0.37635 -0.35817,-0.51136 -0.33135,-0.68484 0.0674,-0.43583 0.18203,0.11368 0.38339,0.15427 0.44746,0.0902 0.16231,-0.1623 -0.25769,-0.63268 -0.56491,-0.63268 -0.17469,0 -0.22386,-0.11151 -0.15882,-0.36022 0.1157,-0.44245 -0.35859,-1.21336 -0.67241,-1.09293 -0.12593,0.0483 -0.22895,0.014 -0.22895,-0.0762 0,-0.0902 -0.1167,-0.16402 -0.25932,-0.16402 -0.3456,0 -0.46394,-0.35437 -0.2823,-0.84539 0.14203,-0.38393 0.17531,-0.36289 0.83164,0.52555 0.90543,1.22563 2.30216,3.69758 2.84659,5.03793 0.2407,0.59259 0.41448,1.09291 0.38618,1.11183 -0.0283,0.0189 -0.20386,0.002 -0.39013,-0.0366 z m -0.0847,-0.88269 c 0,-0.0931 -0.0762,-0.16933 -0.16934,-0.16933 -0.0931,0 -0.16933,0.0762 -0.16933,0.16933 0,0.0931 0.0762,0.16934 0.16933,0.16934 0.0931,0 0.16934,-0.0762 0.16934,-0.16934 z m -47.921339,-0.76222 c 0,-0.14555 0.842956,-1.77778 0.918129,-1.77778 0.03617,0 0.04962,0.314 0.02989,0.69778 -0.02914,0.56696 -0.121373,0.74258 -0.491942,0.93674 -0.250843,0.13143 -0.456078,0.1959 -0.456078,0.14326 z m 26.246669,-1.41944 c 0,-0.0907 0.11974,-0.28456 0.26609,-0.43091 0.14636,-0.14635 0.21987,-0.26609 0.16338,-0.26609 -0.0565,0 -0.0102,-0.17145 0.10295,-0.381 0.11312,-0.20955 0.19005,-0.62211 0.17097,-0.91679 l -0.0347,-0.53579 1.03493,0.0826 c 0.56921,0.0455 1.16171,0.0274 1.31666,-0.0401 0.41374,-0.18023 1.38196,-0.20934 1.48376,-0.0446 0.11648,0.18845 0.80423,0.1824 1.00777,-0.009 0.0885,-0.0831 0.41176,-0.11212 0.71841,-0.0644 0.43006,0.0669 0.54621,0.16062 0.508,0.40973 -0.0311,0.20301 0.10269,0.39985 0.36042,0.53005 0.22548,0.11392 0.44562,0.3151 0.48921,0.44708 0.052,0.1573 -0.10098,0.11163 -0.44395,-0.13259 -0.66375,-0.47263 -1.94765,-0.86517 -2.83749,-0.86754 -1.3449,-0.004 -2.42969,0.46174 -3.40475,1.46045 -0.49591,0.50794 -0.90165,0.84936 -0.90165,0.75872 z m -5.757335,-0.97688 c -0.503349,-0.51618 -0.528869,-0.57589 -0.169333,-0.39619 0.527568,0.26368 1.016,0.68272 1.016,0.87164 0,0.27342 -0.257362,0.12889 -0.846667,-0.47545 z m -7.339039,0.15417 c -0.0491,-0.0795 -0.0258,-0.24718 0.05179,-0.37272 0.171737,-0.27788 0.741016,-0.0983 0.640966,0.20218 -0.08474,0.2545 -0.567428,0.37332 -0.692756,0.17054 z m -11.795628,-0.29069 c 0,-0.0397 0.165529,-0.3528 0.367842,-0.69569 0.341475,-0.57876 0.383959,-0.60141 0.592667,-0.31598 0.318133,0.43507 0.295149,0.48514 -0.367843,0.8013 -0.325966,0.15544 -0.592666,0.25011 -0.592666,0.21037 z m 13.239086,-0.89594 c 0.05301,-0.4607 0.06731,-0.46585 1.342284,-0.4834 0.708785,-0.01 1.378874,-0.0735 1.489083,-0.14158 0.110211,-0.0681 0.305056,-0.037 0.432989,0.0692 0.135607,0.11254 0.583265,0.16232 1.073494,0.11937 1.053947,-0.0923 1.332333,0.048 1.036172,0.52219 -0.212232,0.33984 -0.220653,0.34004 -0.96098,0.0227 -0.973814,-0.41742 -2.340862,-0.41004 -3.428128,0.0185 -1.078584,0.42514 -1.048884,0.42897 -0.984914,-0.127 z m -12.223086,-0.65492 c 0,-0.14425 1.830867,-2.5651 2.0357,-2.6917 0.0911,-0.0563 0.165633,0.0164 0.165633,0.16163 0,0.1452 0.0762,0.26399 0.169334,0.26399 0.09313,0 0.169333,0.1524 0.169333,0.33867 0,0.18627 -0.10795,0.33867 -0.239889,0.33867 -0.131939,0 -0.271947,0.0952 -0.311129,0.21166 -0.05554,0.16502 -0.13329,0.16045 -0.352778,-0.0207 -0.242304,-0.20001 -0.281537,-0.19412 -0.281537,0.0423 0,0.15111 -0.114301,0.27474 -0.254001,0.27474 -0.1397,0 -0.254,0.0762 -0.254,0.16933 0,0.0931 0.09073,0.15028 0.20161,0.127 0.110886,-0.0233 0.232511,0.10004 0.270279,0.27405 0.03863,0.17799 -0.0041,0.2714 -0.09776,0.21354 -0.09153,-0.0566 -0.260589,0.0106 -0.375679,0.14927 -0.203526,0.24524 -0.845119,0.35725 -0.845119,0.14755 z m 40.331432,-2.4207 c -0.28137,-0.28138 -0.3505,-0.44413 -0.20871,-0.49139 0.27778,-0.0926 0.9084,0.25064 1.13905,0.61996 0.29493,0.47227 -0.42963,0.37213 -0.93034,-0.12857 z m -1.13076,-0.63862 c 0.27055,-0.22064 0.29135,-0.72705 0.0339,-0.82584 -0.12979,-0.0498 -0.45721,-0.10717 -0.72761,-0.12748 -0.40124,-0.0301 -0.50168,-0.12389 -0.54619,-0.50985 -0.03,-0.26011 -0.16335,-0.51467 -0.29634,-0.5657 -0.29752,-0.11417 -0.32199,-0.56718 -0.0301,-0.55761 0.27807,0.009 1.651,1.2546 1.651,1.49773 0,0.10376 0.10497,0.18866 0.23327,0.18866 0.32624,0 0.70299,0.48864 0.51309,0.66548 -0.0845,0.0787 -0.34419,0.19478 -0.57702,0.25791 -0.23284,0.0631 -0.34714,0.0526 -0.254,-0.0233 z m -35.221339,-1.35913 c 0.2794,-0.28743 0.671987,-0.57119 0.872414,-0.63059 0.326518,-0.0968 0.362649,-0.0457 0.347441,0.49082 -0.01379,0.48636 -0.08222,0.59832 -0.364415,0.59622 -0.191092,-0.001 -0.459184,-0.0733 -0.595761,-0.15965 -0.158944,-0.10053 -0.341785,-0.0882 -0.508,0.0344 -0.142823,0.10529 -0.03108,-0.0437 0.248321,-0.33117 z m 1.439334,-1.16816 c 0,-0.30687 1.978143,-1.62534 2.335339,-1.55655 0.562843,0.1084 0.322097,0.55863 -0.303339,0.5673 -0.544425,0.008 -0.599559,0.0558 -0.677334,0.59266 -0.07872,0.54338 -0.129294,0.58569 -0.719666,0.60194 -0.420955,0.0116 -0.635,-0.0576 -0.635,-0.20535 z m 31.046435,-0.1581 c -0.0551,-0.14372 -0.0534,-0.30816 0.004,-0.36542 0.0573,-0.0573 0.0192,-0.20638 -0.0845,-0.33137 -0.2701,-0.32545 -0.014,-0.28032 0.44118,0.0777 0.32514,0.25575 0.35377,0.35142 0.17738,0.59266 -0.26082,0.35669 -0.40839,0.36393 -0.53792,0.0264 z m -1.48459,-0.8817 c -0.0704,-0.0699 -0.33072,-0.127 -0.57856,-0.127 -0.38458,0 -0.45839,-0.0806 -0.50366,-0.55011 -0.0539,-0.55866 -0.55241,-1.00596 -0.88921,-0.79781 -0.22199,0.1372 -0.66641,-0.22751 -0.66641,-0.54689 0,-0.35385 0.51416,-0.15543 2.16577,0.83577 1.27599,0.76579 1.37618,0.8634 1.10066,1.07237 -0.35363,0.26822 -0.45452,0.28647 -0.62859,0.11367 z m -25.379838,-1.35773 c -0.242606,-0.0537 -0.264435,-0.11684 -0.106266,-0.30742 0.25526,-0.30757 0.603398,-0.3075 0.72145,1.4e-4 0.104616,0.27262 -0.164447,0.40702 -0.615184,0.30728 z m 0.806363,-0.21987 c -0.142613,-0.23075 -0.09276,-0.27467 0.472977,-0.41666 0.308505,-0.0774 0.465319,-0.0502 0.465319,0.0809 0,0.10872 -0.06821,0.15552 -0.151589,0.10399 -0.08337,-0.0515 -0.195283,0.0202 -0.248686,0.15934 -0.113283,0.29521 -0.378285,0.33089 -0.538021,0.0724 z m 20.919635,-0.34151 c 0,-0.41267 0.39569,-0.35434 0.47808,0.0705 0.0324,0.16709 -0.054,0.2823 -0.21167,0.2823 -0.15708,0 -0.26641,-0.14478 -0.26641,-0.35278 z m -19.719981,-0.65132 c -0.04644,-0.0751 0.644139,-0.38411 1.534614,-0.68662 1.812132,-0.61559 2.282598,-0.53812 1.547349,0.25481 -0.36333,0.39184 -0.472721,0.42751 -0.790143,0.25763 -0.271941,-0.14554 -0.514973,-0.14882 -0.927997,-0.0125 -0.84809,0.2799 -1.270483,0.33772 -1.363823,0.18669 z m 17.525281,-0.13317 c -0.43514,-0.0846 -0.88094,-0.54369 -0.74363,-0.76587 0.13152,-0.2128 0.68856,-0.14648 1.32707,0.158 0.92774,0.44241 0.55634,0.82937 -0.58344,0.60787 z m -9.997305,-1.36465 c 0,-0.0342 0.108858,-0.17113 0.241904,-0.30418 0.183861,-0.18386 0.750049,-0.2419 2.359641,-0.2419 1.9836,0 2.98643,0.15496 2.98647,0.46147 2e-5,0.16065 -2.37727,0.0105 -2.65336,-0.16753 -0.10891,-0.0702 -0.29941,-0.0318 -0.42334,0.0855 -0.19774,0.18713 -2.511315,0.34065 -2.511315,0.16664 z m 6.096005,-0.0381 c 0,-0.0931 0.11879,-0.16934 0.26399,-0.16934 0.1452,0 0.2169,0.0762 0.15934,0.16934 -0.0576,0.0931 -0.17636,0.16933 -0.264,0.16933 -0.0876,0 -0.15933,-0.0762 -0.15933,-0.16933 z m -8.329088,-0.11568 c 0.122236,-0.0489 0.268286,-0.0429 0.324556,0.0134 0.05627,0.0563 -0.04375,0.0963 -0.22225,0.0889 -0.197265,-0.008 -0.237389,-0.0482 -0.102306,-0.10231 z"
           id="path4059" />
      </g>
    </g>
  </g>
</svg>
