<?xml version="1.0" encoding="UTF-8" standalone="no"?>
<!-- Created with Inkscape (http://www.inkscape.org/) -->

<svg
   xmlns:dc="http://purl.org/dc/elements/1.1/"
   xmlns:cc="http://creativecommons.org/ns#"
   xmlns:rdf="http://www.w3.org/1999/02/22-rdf-syntax-ns#"
   xmlns:svg="http://www.w3.org/2000/svg"
   xmlns="http://www.w3.org/2000/svg"
   xmlns:sodipodi="http://sodipodi.sourceforge.net/DTD/sodipodi-0.dtd"
   xmlns:inkscape="http://www.inkscape.org/namespaces/inkscape"
   width="44.938004mm"
   height="39.490604mm"
   viewBox="0 0 44.938004 39.490604"
   version="1.1"
   id="svg126"
   inkscape:version="0.92.3 (2405546, 2018-03-11)"
   sodipodi:docname="MP.svg">
  <defs
     id="defs120" />
  <sodipodi:namedview
     id="base"
     pagecolor="#ffffff"
     bordercolor="#666666"
     borderopacity="1.0"
     inkscape:pageopacity="0.0"
     inkscape:pageshadow="2"
     inkscape:zoom="1.979899"
     inkscape:cx="221.56586"
     inkscape:cy="27.973728"
     inkscape:document-units="mm"
     inkscape:current-layer="layer1"
     showgrid="false"
     inkscape:window-width="1920"
     inkscape:window-height="1017"
     inkscape:window-x="-8"
     inkscape:window-y="-8"
     inkscape:window-maximized="1" />
  <metadata
     id="metadata123">
    <rdf:RDF>
      <cc:Work
         rdf:about="">
        <dc:format>image/svg+xml</dc:format>
        <dc:type
           rdf:resource="http://purl.org/dc/dcmitype/StillImage" />
        <dc:title></dc:title>
      </cc:Work>
    </rdf:RDF>
  </metadata>
  <g
     inkscape:label="Layer 1"
     inkscape:groupmode="layer"
     id="layer1"
     transform="translate(-48.706918,-24.66703)">
    <g
       transform="translate(-34.43584,-120.85279)"
       id="layer1-6"
       inkscape:label="Layer 1">
      <g
         id="g4092">
        <path
           inkscape:connector-curvature="0"
           id="path4106"
           d="m 99.004023,184.64203 c -4.843482,-1.05078 -8.231057,-2.91929 -11.297733,-6.23159 -3.024301,-3.26652 -4.563532,-7.24353 -4.563532,-11.79107 0,-3.13535 0.479245,-5.10089 1.981794,-8.128 3.508036,-7.06747 11.291959,-11.8562 20.852638,-12.82872 6.9576,-0.70772 13.30387,1.23741 17.38466,5.32842 2.10356,2.10882 3.18577,3.92213 4.09732,6.8653 0.82271,2.65631 0.82962,7.12084 0.0155,9.98004 -1.13948,4.00164 -3.29831,7.48454 -6.58461,10.62309 -3.22595,3.08091 -6.99053,5.03273 -11.7276,6.08039 -2.63242,0.5822 -7.71028,0.63325 -10.158402,0.10214 z m 8.608357,-1.24457 c 5.0527,-0.7617 9.22274,-2.80842 12.70759,-6.23709 2.58462,-2.54296 4.31503,-5.21112 5.40412,-8.33275 0.97554,-2.79615 1.22861,-7.01917 0.58506,-9.76305 -2.25785,-9.62666 -12.8866,-14.30176 -25.2145,-11.09068 -2.486885,0.64777 -6.24143,2.40485 -8.342697,3.90428 -7.340124,5.23781 -9.989624,14.35091 -6.352374,21.84935 3.485295,7.18517 11.987028,11.06072 21.212801,9.66994 z m -6.35105,-3.61343 c -1.00818,-0.21011 -1.20318,-0.50741 -1.517794,-2.31404 -0.326959,-1.87753 -0.156487,-4.15913 0.430724,-5.76487 0.81195,-2.22027 0.44114,-4.60255 -0.425901,-2.73625 -1.104527,2.37747 -1.353953,3.53926 -1.422244,6.6246 -0.03813,1.72266 -0.13395,3.19673 -0.212935,3.27571 -0.266775,0.26678 -3.013445,-0.9514 -4.753689,-2.10831 -4.191814,-2.78672 -6.440728,-7.00774 -6.418243,-12.0465 0.01926,-4.31696 1.493642,-7.76561 4.669404,-10.922 3.455079,-3.434 7.302455,-5.16225 13.078868,-5.87505 8.56258,-1.05661 16.1157,2.03437 18.79144,7.69005 4.233,8.94726 -2.44358,20.81933 -13.32963,23.70229 -1.64055,0.43446 -7.5647,0.75058 -8.89,0.47437 z"
           style="fill:#b6e2c6;stroke-width:0.25400001" />
        <path
           inkscape:connector-curvature="0"
           id="path4104"
           d="m 101.64233,184.76556 c -5.320413,-0.44213 -9.613072,-2.37705 -13.209537,-5.95419 -3.455204,-3.43664 -5.047155,-7.27256 -5.059827,-12.192 -0.0084,-3.26311 0.531655,-5.36978 2.202785,-8.59266 1.194953,-2.30454 4.018055,-5.45468 6.432335,-7.17748 5.141608,-3.66897 12.944044,-5.66806 19.321514,-4.95044 8.78498,0.98853 14.68971,5.82791 16.20393,13.28037 1.85899,9.14928 -3.71184,19.08669 -13.14245,23.4439 -2.14926,0.99302 -5.35224,1.85472 -7.59522,2.04335 -0.87864,0.0739 -1.94043,0.16442 -2.35953,0.20118 -0.4191,0.0368 -1.6764,-0.009 -2.794,-0.10203 z m 7.50613,-1.38655 c 8.6612,-1.81363 15.57342,-8.46417 17.39341,-16.73495 0.56991,-2.58989 0.40474,-6.70496 -0.35552,-8.85762 -1.87873,-5.31952 -5.86754,-8.87696 -11.60476,-10.34976 -5.61851,-1.44233 -12.95263,-0.56179 -18.527263,2.22437 -7.081913,3.53949 -11.535102,10.05711 -11.55259,16.90818 -0.0146,5.71993 3.043784,11.10143 8.111343,14.27262 2.267347,1.41886 5.959799,2.63624 9.15625,3.01876 1.41493,0.16932 5.56364,-0.10144 7.37913,-0.4816 z m -8.05279,-3.85464 c -0.86369,-0.16877 -1.233943,-1.43629 -1.209912,-4.142 0.01623,-1.82757 0.163012,-2.81356 0.604982,-4.064 0.68489,-1.93773 0.87952,-3.20469 0.52589,-3.42325 -1.354663,-0.83723 -3.236394,4.58721 -2.977604,8.5835 0.09567,1.47738 0.04516,2.01725 -0.197457,2.11035 -0.486442,0.18666 -3.481056,-1.30769 -5.180322,-2.58505 -2.680694,-2.01511 -4.515246,-4.9556 -5.24727,-8.41051 -0.465744,-2.19816 -0.464028,-3.5679 0.0073,-5.79275 1.857974,-8.77119 10.813213,-14.38468 21.968103,-13.77046 6.763,0.37239 11.72114,3.10313 13.86607,7.63687 4.3843,9.26703 -2.83279,21.30032 -14.17287,23.63093 -1.79889,0.36971 -6.5624,0.50472 -7.98686,0.22637 z"
           style="fill:#97d6ad;stroke-width:0.25400001" />
        <path
           inkscape:connector-curvature="0"
           id="path4102"
           d="m 100.37233,184.54215 c -5.248932,-0.87038 -9.160353,-2.87358 -12.360985,-6.33056 -2.880223,-3.11091 -4.230723,-6.36072 -4.458123,-10.72791 -0.240319,-4.61532 1.062587,-8.53165 4.106526,-12.34357 6.957643,-8.71305 21.892942,-11.88131 31.753122,-6.73588 2.27012,1.18465 5.2825,4.14675 6.43172,6.3244 1.83888,3.48447 2.36826,8.56521 1.3207,12.67561 -2.05259,8.05393 -8.81698,14.54601 -17.32032,16.62307 -2.35342,0.57485 -7.44266,0.85146 -9.47264,0.51484 z m 9.906,-1.25848 c 7.97845,-2.11252 14.28433,-8.27403 16.27488,-15.9023 0.32092,-1.22985 0.46286,-2.67854 0.46037,-4.699 -0.003,-2.58716 -0.0906,-3.16903 -0.76464,-5.09122 -1.42064,-4.05109 -4.01378,-6.99051 -7.80942,-8.85226 -3.42747,-1.68117 -4.71361,-1.92982 -9.93919,-1.92157 -3.84888,0.006 -4.89705,0.0933 -6.6271,0.55139 -7.524117,1.99235 -12.831912,5.9293 -15.680468,11.63066 -1.267402,2.53669 -1.768752,4.65544 -1.773037,7.493 -0.01286,8.51694 5.833906,15.17536 15.063602,17.15474 2.441153,0.52353 8.174103,0.33051 10.795003,-0.36344 z m -8.3362,-3.82138 c -1.38253,-0.19221 -1.61209,-0.44263 -1.85035,-2.01854 -0.413727,-2.73647 0.41143,-6.90768 1.63331,-8.2564 0.51494,-0.56841 0.89803,-1.75652 0.64723,-2.00732 -0.0824,-0.0824 -0.33746,-0.0491 -0.56688,0.074 -0.22941,0.12304 -0.7305,0.2897 -1.11352,0.37036 -1.453767,0.30615 -2.779748,4.29525 -2.765455,8.31964 0.0074,2.08024 -0.05548,2.48639 -0.384869,2.48639 -0.216535,0 -1.325553,-0.48365 -2.464485,-1.07478 -5.865582,-3.04435 -8.838569,-9.27635 -7.508901,-15.74022 0.437407,-2.12635 2.06157,-5.23492 3.650601,-6.98706 3.855471,-4.25124 9.559079,-6.44442 16.773519,-6.44984 10.17887,-0.008 16.383,5.00876 16.383,13.24663 0,7.31736 -5.54258,14.63477 -12.954,17.10212 -2.98352,0.99325 -6.53848,1.34392 -9.4792,0.93507 z"
           style="fill:#efdf2c;stroke-width:0.25400001" />
        <path
           inkscape:connector-curvature="0"
           id="path4100"
           d="m 100.37233,184.54215 c -5.248932,-0.87038 -9.160353,-2.87358 -12.360985,-6.33056 -2.880223,-3.11091 -4.230723,-6.36072 -4.458123,-10.72791 -0.240319,-4.61532 1.062587,-8.53165 4.106526,-12.34357 6.957643,-8.71305 21.892942,-11.88131 31.753122,-6.73588 2.27012,1.18465 5.2825,4.14675 6.43172,6.3244 1.83888,3.48447 2.36826,8.56521 1.3207,12.67561 -2.05259,8.05393 -8.81698,14.54601 -17.32032,16.62307 -2.35342,0.57485 -7.44266,0.85146 -9.47264,0.51484 z m 9.906,-1.25848 c 7.97845,-2.11252 14.28433,-8.27403 16.27488,-15.9023 0.32092,-1.22985 0.46286,-2.67854 0.46037,-4.699 -0.003,-2.58716 -0.0906,-3.16903 -0.76464,-5.09122 -1.42064,-4.05109 -4.01378,-6.99051 -7.80942,-8.85226 -3.42747,-1.68117 -4.71361,-1.92982 -9.93919,-1.92157 -3.84888,0.006 -4.89705,0.0933 -6.6271,0.55139 -7.524117,1.99235 -12.831912,5.9293 -15.680468,11.63066 -1.267402,2.53669 -1.768752,4.65544 -1.773037,7.493 -0.01286,8.51694 5.833906,15.17536 15.063602,17.15474 2.441153,0.52353 8.174103,0.33051 10.795003,-0.36344 z m -8.3362,-3.82138 c -1.38253,-0.19221 -1.61209,-0.44263 -1.85035,-2.01854 -0.413727,-2.73647 0.41143,-6.90768 1.63331,-8.2564 0.51494,-0.56841 0.89803,-1.75652 0.64723,-2.00732 -0.0824,-0.0824 -0.33746,-0.0491 -0.56688,0.074 -0.22941,0.12304 -0.7305,0.2897 -1.11352,0.37036 -1.453767,0.30615 -2.779748,4.29525 -2.765455,8.31964 0.0074,2.08024 -0.05548,2.48639 -0.384869,2.48639 -0.216535,0 -1.325553,-0.48365 -2.464485,-1.07478 -5.865582,-3.04435 -8.838569,-9.27635 -7.508901,-15.74022 0.437407,-2.12635 2.06157,-5.23492 3.650601,-6.98706 3.855471,-4.25124 9.559079,-6.44442 16.773519,-6.44984 10.17887,-0.008 16.383,5.00876 16.383,13.24663 0,7.31736 -5.54258,14.63477 -12.954,17.10212 -2.98352,0.99325 -6.53848,1.34392 -9.4792,0.93507 z m 9.11878,-8.52772 c -0.93332,-2.17257 -1.10083,-2.9182 -0.65558,-2.9182 0.1397,0 0.254,0.11397 0.254,0.25327 0,0.13929 0.39961,0.69559 0.88804,1.23622 0.48842,0.54062 1.16868,1.61755 1.5117,2.39317 0.51959,1.17488 0.71049,1.38751 1.14396,1.27415 0.63519,-0.1661 0.65269,-0.54394 0.0808,-1.7433 -0.42417,-0.88948 -0.4222,-0.9344 0.0562,-1.28422 0.27266,-0.19937 0.67048,-0.28813 0.88404,-0.19723 0.21356,0.0909 0.64546,0.22104 0.95979,0.28921 0.82887,0.17977 0.75935,-0.77206 -0.10223,-1.39968 -0.78878,-0.57458 -0.61617,-1.07517 0.37122,-1.07654 0.68064,-10e-4 0.67983,-0.003 -0.19474,-0.53634 -0.847,-0.51635 -0.86055,-0.54849 -0.381,-0.90376 0.47007,-0.34823 0.47295,-0.38638 0.0527,-0.69816 -0.24448,-0.18139 -0.4445,-0.50814 -0.4445,-0.72611 0,-0.23383 -0.31242,-0.46494 -0.762,-0.56368 -0.80006,-0.17572 -0.96933,-0.58008 -0.4572,-1.0922 0.23349,-0.23349 0.23423,-0.3048 0.003,-0.3048 -0.16589,0 -0.58451,-0.44814 -0.93027,-0.99586 -0.34576,-0.54772 -0.83634,-1.06177 -1.09017,-1.14234 -0.25383,-0.0806 -1.14394,-0.95609 -1.97803,-1.94562 -1.50575,-1.78639 -2.47704,-2.52018 -3.33585,-2.52018 -0.24616,0 -0.68711,-0.30041 -0.97988,-0.66758 -0.609,-0.76376 -1.50066,-0.67675 -1.72157,0.16799 -0.0718,0.27478 -0.30057,0.49959 -0.50825,0.49959 -0.40649,0 -0.77183,-0.67156 -0.55563,-1.02137 0.0726,-0.11744 0.0158,-0.28532 -0.12618,-0.37307 -0.14198,-0.0877 -0.25814,0.0187 -0.25814,0.23645 0,0.58085 -0.73188,0.48258 -1.30713,-0.17551 l -0.49956,-0.5715 0.26971,0.55735 c 0.14834,0.30655 0.38339,0.62762 0.52234,0.71349 0.33764,0.20868 0.32363,0.88816 -0.0183,0.88816 -0.14902,0 -0.65275,-0.29121 -1.11939,-0.64714 -0.46664,-0.35592 -1.28769,-0.71362 -1.824552,-0.79488 -0.536861,-0.0813 -1.368306,-0.38367 -1.847656,-0.67203 -0.922027,-0.55467 -0.901789,-0.59319 -0.373559,0.71111 0.124044,0.30629 -0.09219,0.36451 -1.17929,0.3175 -1.679917,-0.0726 -1.923224,0.39915 -0.447183,0.86711 0.696523,0.22083 1.121889,0.51746 1.179862,0.82278 0.08012,0.42199 -0.02289,0.45827 -0.886815,0.31228 -0.752733,-0.1272 -0.875272,-0.10267 -0.53297,0.10667 0.878297,0.53714 0.523668,1.00834 -0.762,1.01249 -1.419805,0.005 -1.92129,0.25463 -1.694726,0.84505 0.142994,0.37264 0.461033,0.40872 2.485103,0.28197 2.289105,-0.14335 3.195844,0.0537 2.846674,0.61869 -0.09599,0.15532 -0.615638,0.2824 -1.154768,0.2824 -0.539129,0 -1.161033,0.0694 -1.382009,0.15417 -0.82248,0.31562 -0.358981,0.60783 0.964125,0.60783 0.904265,0 1.472766,0.12877 1.682101,0.381 0.173911,0.20955 0.530806,0.381 0.793101,0.381 0.593278,0 0.600892,0.19941 0.0324,0.84857 -0.427234,0.48785 -0.424767,0.50023 0.0635,0.31868 0.906695,-0.33714 1.016174,-0.28899 1.004326,0.44163 -0.01062,0.65453 0.05281,0.70699 0.698496,0.57785 0.75241,-0.15048 0.90568,0.0562 0.40961,0.55224 -0.50388,0.50388 0.007,0.67936 0.96718,0.33218 1.08737,-0.3932 1.56178,-0.10273 1.13492,0.69488 -0.48695,0.90987 -0.35495,1.38847 0.33517,1.21526 0.53276,-0.13371 0.68553,-0.003 1.17078,0.99903 0.49408,1.02063 0.59414,1.10347 0.87276,0.72244 0.34378,-0.47015 0.89976,-0.28649 0.89976,0.29723 0,0.44927 0.4255,0.48532 0.57253,0.0485 0.0833,-0.24753 0.19993,-0.24067 0.52916,0.0311 0.3647,0.30105 0.42231,0.28998 0.42231,-0.0812 0,-0.76797 1.10246,-0.35953 1.50634,0.55807 0.19983,0.45402 0.52058,0.8255 0.71278,0.8255 0.19219,0 0.578,0.54292 0.85735,1.2065 0.27936,0.66357 0.63771,1.49225 0.79634,1.8415 l 0.28841,0.635 0.099,-0.59375 c 0.0544,-0.32657 -0.31034,-1.54654 -0.81061,-2.71105 z"
           style="fill:#6ac68c;stroke-width:0.25400001" />
        <path
           inkscape:connector-curvature="0"
           id="path4098"
           d="m 99.904903,184.26027 c -2.11983,-0.35579 -4.78979,-1.26565 -6.898576,-2.35086 -2.85058,-1.46694 -6.248436,-4.86527 -7.542002,-7.54304 -1.326671,-2.74631 -1.795355,-4.76869 -1.795355,-7.747 0,-2.95172 0.470198,-5.02651 1.726869,-7.62 2.350807,-4.85154 6.590936,-8.55841 12.436488,-10.87243 3.649383,-1.44465 5.947183,-1.82823 10.922003,-1.82324 3.72955,0.004 4.59295,0.0833 6.33562,0.5842 4.89209,1.406 8.80981,4.41666 10.6373,8.17447 1.01601,2.08918 1.7173,4.50216 1.65802,5.70486 l -0.0381,0.77214 -0.10538,-0.762 c -1.02891,-7.44002 -6.59569,-12.81047 -14.61988,-14.10425 -2.98796,-0.48177 -8.07928,-0.19795 -11.23362,0.62623 -3.157304,0.82495 -7.561445,2.98106 -9.772396,4.78423 -3.43875,2.80451 -6.093967,6.83787 -6.977317,10.59879 -0.87851,3.74031 -0.291152,8.19379 1.551037,11.76032 1.342003,2.59816 4.595006,5.79889 7.337206,7.21932 3.025284,1.56706 5.993511,2.35431 9.76647,2.59031 l 3.175,0.19861 -2.667,0.008 c -1.46685,0.004 -3.22024,-0.085 -3.896427,-0.1985 z m 7.134927,-0.15612 c 0.17462,-0.0705 0.46037,-0.0705 0.635,0 0.17462,0.0705 0.0318,0.12812 -0.3175,0.12812 -0.34925,0 -0.49213,-0.0577 -0.3175,-0.12812 z m 1.79387,-0.25929 c 0.18336,-0.0734 0.40243,-0.0644 0.48684,0.02 0.0844,0.0844 -0.0656,0.14443 -0.33338,0.13341 -0.2959,-0.0122 -0.35608,-0.0724 -0.15346,-0.15346 z m -7.39506,-4.5647 c -0.95629,-0.16673 -1.24492,-0.98595 -1.28378,-3.64379 -0.0379,-2.59148 0.81625,-5.64013 1.75197,-6.25324 0.31326,-0.20525 0.6228,-0.65169 0.68787,-0.99208 0.14547,-0.76096 -0.44781,-1.67615 -0.95932,-1.47987 -0.23377,0.0897 -0.37405,-0.01 -0.37405,-0.26464 0,-0.22449 0.15745,-0.40817 0.3499,-0.40817 0.19244,0 0.49219,-0.17145 0.6661,-0.381 0.371,-0.44703 0.0747,-0.4934 -0.86643,-0.13558 -0.35502,0.13497 -0.87269,0.6779 -1.15037,1.2065 -2.019376,3.84406 -2.545842,5.70639 -2.551449,9.02558 -0.0045,2.64777 -0.0046,2.64782 -2.633611,1.27397 -2.444976,-1.27765 -5.096375,-3.93795 -6.224921,-6.24581 -1.17369,-2.40018 -1.695593,-5.51197 -1.333158,-7.94881 0.560153,-3.7662 1.781503,-6.19988 4.45637,-8.87982 2.704947,-2.71007 5.95585,-4.41444 10.176569,-5.33533 3.05276,-0.66606 9.00043,-0.61173 11.64385,0.10637 6.78745,1.84384 10.35113,6.08349 10.39012,12.36093 0.0488,7.86631 -5.66831,15.08217 -13.78593,17.39978 -1.87741,0.53601 -7.25126,0.89288 -8.95973,0.59501 z m 9.62227,-8.34559 c -0.93332,-2.17257 -1.10083,-2.9182 -0.65558,-2.9182 0.1397,0 0.254,0.11397 0.254,0.25327 0,0.13929 0.39961,0.69559 0.88804,1.23622 0.48842,0.54062 1.16868,1.61755 1.5117,2.39317 0.51959,1.17488 0.71049,1.38751 1.14396,1.27415 0.63519,-0.1661 0.65269,-0.54394 0.0808,-1.7433 -0.42417,-0.88948 -0.4222,-0.9344 0.0562,-1.28422 0.27266,-0.19937 0.67048,-0.28813 0.88404,-0.19723 0.21356,0.0909 0.64546,0.22104 0.95979,0.28921 0.82887,0.17977 0.75935,-0.77206 -0.10223,-1.39968 -0.78878,-0.57458 -0.61617,-1.07517 0.37122,-1.07654 0.68064,-10e-4 0.67983,-0.003 -0.19474,-0.53634 -0.847,-0.51635 -0.86055,-0.54849 -0.381,-0.90376 0.47007,-0.34823 0.47295,-0.38638 0.0527,-0.69816 -0.24448,-0.18139 -0.4445,-0.50814 -0.4445,-0.72611 0,-0.23383 -0.31242,-0.46494 -0.762,-0.56368 -0.80006,-0.17572 -0.96933,-0.58008 -0.4572,-1.0922 0.23349,-0.23349 0.23423,-0.3048 0.003,-0.3048 -0.16589,0 -0.58451,-0.44814 -0.93027,-0.99586 -0.34576,-0.54772 -0.83634,-1.06177 -1.09017,-1.14234 -0.25383,-0.0806 -1.14394,-0.95609 -1.97803,-1.94562 -1.50575,-1.78639 -2.47704,-2.52018 -3.33585,-2.52018 -0.24616,0 -0.68711,-0.30041 -0.97988,-0.66758 -0.609,-0.76376 -1.50066,-0.67675 -1.72157,0.16799 -0.0718,0.27478 -0.30057,0.49959 -0.50825,0.49959 -0.40649,0 -0.77183,-0.67156 -0.55563,-1.02137 0.0726,-0.11744 0.0158,-0.28532 -0.12618,-0.37307 -0.14198,-0.0877 -0.25814,0.0187 -0.25814,0.23645 0,0.58085 -0.73188,0.48258 -1.30713,-0.17551 l -0.49956,-0.5715 0.26971,0.55735 c 0.14834,0.30655 0.38339,0.62762 0.52234,0.71349 0.33764,0.20868 0.32363,0.88816 -0.0183,0.88816 -0.14902,0 -0.65275,-0.29121 -1.11939,-0.64714 -0.46664,-0.35592 -1.28769,-0.71362 -1.824552,-0.79488 -0.536861,-0.0813 -1.368306,-0.38367 -1.847656,-0.67203 -0.922027,-0.55467 -0.901789,-0.59319 -0.373559,0.71111 0.124044,0.30629 -0.09219,0.36451 -1.17929,0.3175 -1.679917,-0.0726 -1.923224,0.39915 -0.447183,0.86711 0.696523,0.22083 1.121889,0.51746 1.179862,0.82278 0.08012,0.42199 -0.02289,0.45827 -0.886815,0.31228 -0.752733,-0.1272 -0.875272,-0.10267 -0.53297,0.10667 0.878297,0.53714 0.523668,1.00834 -0.762,1.01249 -1.419805,0.005 -1.92129,0.25463 -1.694726,0.84505 0.142994,0.37264 0.461033,0.40872 2.485103,0.28197 2.289105,-0.14335 3.195844,0.0537 2.846674,0.61869 -0.09599,0.15532 -0.615638,0.2824 -1.154768,0.2824 -0.539129,0 -1.161033,0.0694 -1.382009,0.15417 -0.82248,0.31562 -0.358981,0.60783 0.964125,0.60783 0.904265,0 1.472766,0.12877 1.682101,0.381 0.173911,0.20955 0.530806,0.381 0.793101,0.381 0.593278,0 0.600892,0.19941 0.0324,0.84857 -0.427234,0.48785 -0.424767,0.50023 0.0635,0.31868 0.906695,-0.33714 1.016174,-0.28899 1.004326,0.44163 -0.01062,0.65453 0.05281,0.70699 0.698496,0.57785 0.75241,-0.15048 0.90568,0.0562 0.40961,0.55224 -0.50388,0.50388 0.007,0.67936 0.96718,0.33218 1.08737,-0.3932 1.56178,-0.10273 1.13492,0.69488 -0.48695,0.90987 -0.35495,1.38847 0.33517,1.21526 0.53276,-0.13371 0.68553,-0.003 1.17078,0.99903 0.49408,1.02063 0.59414,1.10347 0.87276,0.72244 0.34378,-0.47015 0.89976,-0.28649 0.89976,0.29723 0,0.44927 0.4255,0.48532 0.57253,0.0485 0.0833,-0.24753 0.19993,-0.24067 0.52916,0.0311 0.3647,0.30105 0.42231,0.28998 0.42231,-0.0812 0,-0.76797 1.10246,-0.35953 1.50634,0.55807 0.19983,0.45402 0.52058,0.8255 0.71278,0.8255 0.19219,0 0.578,0.54292 0.85735,1.2065 0.27936,0.66357 0.63771,1.49225 0.79634,1.8415 l 0.28841,0.635 0.099,-0.59375 c 0.0544,-0.32657 -0.31034,-1.54654 -0.81061,-2.71105 z m 16.15793,-5.8392 c 0.005,-0.4191 0.0621,-0.5598 0.12651,-0.31267 0.0644,0.24714 0.0602,0.59004 -0.009,0.762 -0.0696,0.17197 -0.12227,-0.0302 -0.11709,-0.44933 z m 0.24459,-2.413 c 0,-0.34925 0.0576,-0.49213 0.12812,-0.3175 0.0705,0.17462 0.0705,0.46037 0,0.635 -0.0705,0.17462 -0.12812,0.0318 -0.12812,-0.3175 z"
           style="fill:#a0ca37;stroke-width:0.25400001" />
        <path
           inkscape:connector-curvature="0"
           id="path4096"
           d="m 99.904903,184.26027 c -2.11983,-0.35579 -4.78979,-1.26565 -6.898576,-2.35086 -2.85058,-1.46694 -6.248436,-4.86527 -7.542002,-7.54304 -1.326671,-2.74631 -1.795355,-4.76869 -1.795355,-7.747 0,-2.95172 0.470198,-5.02651 1.726869,-7.62 2.350807,-4.85154 6.590936,-8.55841 12.436488,-10.87243 3.649383,-1.44465 5.947183,-1.82823 10.922003,-1.82324 3.72955,0.004 4.59295,0.0833 6.33562,0.5842 4.89209,1.406 8.80981,4.41666 10.6373,8.17447 1.01601,2.08918 1.7173,4.50216 1.65802,5.70486 l -0.0381,0.77214 -0.10538,-0.762 c -1.02891,-7.44002 -6.59569,-12.81047 -14.61988,-14.10425 -2.98796,-0.48177 -8.07928,-0.19795 -11.23362,0.62623 -3.157304,0.82495 -7.561445,2.98106 -9.772396,4.78423 -3.43875,2.80451 -6.093967,6.83787 -6.977317,10.59879 -0.87851,3.74031 -0.291152,8.19379 1.551037,11.76032 1.342003,2.59816 4.595006,5.79889 7.337206,7.21932 3.025284,1.56706 5.993511,2.35431 9.76647,2.59031 l 3.175,0.19861 -2.667,0.008 c -1.46685,0.004 -3.22024,-0.085 -3.896427,-0.1985 z m 7.134927,-0.15612 c 0.17462,-0.0705 0.46037,-0.0705 0.635,0 0.17462,0.0705 0.0318,0.12812 -0.3175,0.12812 -0.34925,0 -0.49213,-0.0577 -0.3175,-0.12812 z m 1.79387,-0.25929 c 0.18336,-0.0734 0.40243,-0.0644 0.48684,0.02 0.0844,0.0844 -0.0656,0.14443 -0.33338,0.13341 -0.2959,-0.0122 -0.35608,-0.0724 -0.15346,-0.15346 z m -7.39506,-4.5647 c -0.97444,-0.16989 -1.25611,-1.00748 -1.26806,-3.77079 -0.0114,-2.64037 0.72286,-5.25357 1.71289,-6.096 0.32835,-0.2794 0.63702,-0.72713 0.68593,-0.99495 0.10956,-0.59996 0.72393,-0.85135 0.72393,-0.29622 0,0.22119 0.17428,0.40217 0.38728,0.40217 0.21301,0 0.49593,0.28575 0.62872,0.635 0.26602,0.69969 0.50927,0.78613 0.95576,0.33964 0.22448,-0.22448 0.35858,-0.12908 0.5588,0.39753 0.14489,0.3811 0.26344,0.79976 0.26344,0.93036 0,0.44978 0.52472,0.23651 0.72055,-0.29286 0.17641,-0.4769 0.22991,-0.48969 0.53091,-0.127 0.51106,0.61579 0.78054,0.48465 0.78054,-0.37984 0,-1.24509 0.54117,-0.75822 1.17028,1.05287 0.31247,0.89952 0.57698,1.37816 0.58788,1.0638 0.0279,-0.8037 0.45657,-0.71222 0.64314,0.13726 0.0856,0.38981 0.38867,1.09189 0.67345,1.56016 0.48377,0.79551 0.54564,0.82354 0.94216,0.42702 0.39653,-0.39653 0.38708,-0.52686 -0.14392,-1.98484 -0.31257,-0.85824 -0.51937,-1.60939 -0.45955,-1.66921 0.26381,-0.26381 0.74975,0.36983 1.40695,1.8346 0.64594,1.43968 0.77718,1.57884 1.48906,1.57884 1.0312,0 1.17015,-0.47426 0.5498,-1.87666 -0.28009,-0.63318 -0.50925,-1.19387 -0.50925,-1.24596 0,-0.30696 0.70418,-0.002 1.2892,0.55869 l 0.682,0.6534 0.54032,-0.75881 c 0.45272,-0.63579 0.49596,-0.87548 0.26672,-1.47844 -0.15048,-0.39579 -0.45481,-0.91985 -0.67629,-1.16459 -0.3715,-0.4105 -0.36146,-0.44496 0.12969,-0.44496 1.0811,0 0.86942,-0.95274 -0.29916,-1.34654 -0.19202,-0.0647 -0.17068,-0.22908 0.0671,-0.51716 0.27959,-0.3387 0.286,-0.49773 0.0324,-0.8033 -0.2425,-0.29219 -0.24687,-0.46454 -0.0188,-0.73939 0.3571,-0.43029 0.18754,-0.55528 -1.07445,-0.79203 -0.91091,-0.17089 -0.94003,-0.20521 -0.54469,-0.64205 0.48445,-0.53532 0.29706,-1.00153 -0.40256,-1.00153 -0.28518,0 -0.6519,-0.31987 -0.88623,-0.77301 -0.21986,-0.42516 -0.66468,-0.89373 -0.9885,-1.04127 -0.32381,-0.14754 -1.26129,-1.0662 -2.08328,-2.04147 -1.50824,-1.78949 -2.45697,-2.49425 -3.3577,-2.49425 -0.27027,0 -0.68748,-0.29926 -0.92714,-0.66502 -0.37818,-0.57718 -0.56525,-0.64765 -1.41627,-0.5335 -0.66466,0.0891 -1.07559,0.017 -1.27558,-0.22398 -0.38697,-0.46627 -0.97319,-0.45346 -1.1569,0.0253 -0.11965,0.31182 -0.28275,0.26582 -0.90051,-0.254 -0.6594,-0.55484 -1.985423,-0.88584 -1.985423,-0.4956 0,0.0766 0.314325,0.4295 0.698503,0.78433 0.55641,0.5139 0.59516,0.61109 0.1905,0.47777 -0.2794,-0.0921 -0.981176,-0.25644 -1.559497,-0.3653 -0.578322,-0.10886 -1.455096,-0.44737 -1.948389,-0.75224 -0.96348,-0.59547 -1.347238,-0.41377 -1.057068,0.50047 0.130064,0.40979 0.06369,0.51482 -0.301105,0.47648 -1.610265,-0.16926 -1.992108,-0.007 -2.445759,1.04029 -0.522153,1.20525 -0.455315,1.39069 0.575529,1.59686 1.101511,0.2203 0.946286,0.67416 -0.230571,0.67416 -0.580211,0 -1.169679,0.17182 -1.408379,0.41052 -0.359858,0.35986 -0.365845,0.47741 -0.0485,0.9525 0.316472,0.47379 0.56556,0.53282 1.979879,0.46915 1.35194,-0.0608 1.534364,-0.0227 1.109862,0.2323 -1.257037,0.75501 -0.838561,1.61979 0.684948,1.41544 1.260589,-0.16908 2.37902,0.60435 1.972461,1.36401 -0.236095,0.44115 -0.172629,0.49008 0.635654,0.49008 0.926911,0 1.104946,0.19939 0.615268,0.68907 -0.338879,0.33888 -0.08658,0.83493 0.424659,0.83493 0.201305,0 0.36601,0.11798 0.36601,0.26218 0,0.14421 0.217087,0.34423 0.482418,0.4445 0.47193,0.17836 0.47213,0.20164 0.009,1.07132 -1.957812,3.676 -2.514038,5.65257 -2.519614,8.9535 -0.0045,2.64777 -0.0046,2.64782 -2.633611,1.27397 -2.444976,-1.27765 -5.096375,-3.93795 -6.224921,-6.24581 -1.17369,-2.40018 -1.695593,-5.51197 -1.333158,-7.94881 0.560153,-3.7662 1.781503,-6.19988 4.45637,-8.87982 2.704947,-2.71007 5.95585,-4.41444 10.176574,-5.33533 3.05276,-0.66606 9.00043,-0.61173 11.64385,0.10637 6.78745,1.84384 10.35113,6.08349 10.39012,12.36093 0.0488,7.86631 -5.66831,15.08217 -13.78593,17.39978 -1.87741,0.53601 -7.25126,0.89288 -8.95973,0.59501 z m -0.17731,-12.63962 c 0,-0.2212 0.18097,-0.40217 0.40216,-0.40217 0.44855,0 0.37043,0.5468 -0.10054,0.70379 -0.16589,0.0553 -0.30162,-0.0804 -0.30162,-0.30162 z m 25.95751,-1.54517 c 0.005,-0.4191 0.0621,-0.5598 0.12651,-0.31267 0.0644,0.24714 0.0602,0.59004 -0.009,0.762 -0.0696,0.17197 -0.12227,-0.0302 -0.11709,-0.44933 z m 0.24459,-2.413 c 0,-0.34925 0.0576,-0.49213 0.12812,-0.3175 0.0705,0.17462 0.0705,0.46037 0,0.635 -0.0705,0.17462 -0.12812,0.0318 -0.12812,-0.3175 z"
           style="fill:#4eba65;stroke-width:0.25400001" />
        <path
           inkscape:connector-curvature="0"
           id="path4094"
           d="m 101.198,179.01731 c -0.60928,-0.15924 -0.8215,-1.09567 -0.82376,-3.63494 -0.002,-2.67554 0.60015,-4.62301 1.78688,-5.77555 0.91227,-0.88598 1.47648,-0.8854 2.11442,0.002 0.21327,0.29674 0.53577,0.43378 0.83605,0.35525 0.38254,-0.10003 0.52202,0.038 0.64141,0.63498 0.1849,0.9245 0.74759,1.1998 1.19676,0.58552 0.22992,-0.31444 0.38485,-0.36262 0.51078,-0.15885 0.37652,0.60921 0.91259,0.30196 0.92998,-0.53302 0.0145,-0.696 0.0521,-0.74581 0.23982,-0.3175 0.12244,0.2794 0.40703,1.17683 0.63241,1.9943 0.35166,1.27552 0.48181,1.46747 0.91772,1.35348 0.36259,-0.0948 0.58632,0.0392 0.78181,0.46822 0.35615,0.78167 0.85579,0.95796 1.3407,0.47306 0.48654,-0.48654 0.488,-0.89187 0.007,-2.04224 -0.73158,-1.75092 -0.3556,-1.46957 0.51436,0.3849 0.83582,1.78167 0.91015,1.86176 1.57838,1.7006 1.28849,-0.31076 1.41829,-0.83531 0.69491,-2.80832 -0.14223,-0.38796 -0.0172,-0.33347 0.52897,0.23055 l 0.71521,0.73855 0.71458,-0.85596 c 0.82708,-0.99071 0.86152,-1.25123 0.30711,-2.32334 -0.37397,-0.72318 -0.37397,-0.80673 0,-1.01601 0.55079,-0.30824 0.51339,-0.8618 -0.0866,-1.28207 -0.40837,-0.28603 -0.47688,-0.57729 -0.39488,-1.6787 0.0661,-0.88817 -0.002,-1.36347 -0.20441,-1.42511 -0.16699,-0.0509 -0.62803,-0.16389 -1.02453,-0.25116 -0.59399,-0.13075 -0.66725,-0.22335 -0.41608,-0.52598 0.39248,-0.47292 0.1099,-1.2346 -0.38726,-1.04382 -0.20733,0.0796 -0.52069,-0.0356 -0.69635,-0.25597 -0.30529,-0.38294 -1.46021,-1.54295 -2.18561,-2.19525 -0.18822,-0.16925 -1.05578,-1.07846 -1.92791,-2.02047 -1.07475,-1.16084 -1.83858,-1.7633 -2.37049,-1.86969 -0.43164,-0.0863 -1.04133,-0.43002 -1.35487,-0.76377 -0.42824,-0.45596 -0.83965,-0.60691 -1.65379,-0.60691 -0.59605,0 -1.16149,-0.12582 -1.25653,-0.27959 -0.0994,-0.16077 -0.48961,-0.21622 -0.91826,-0.13049 -0.44773,0.0895 -0.96803,0.007 -1.3027,-0.20769 -0.55764,-0.35704 -1.15781,-0.48236 -2.047348,-0.42748 -0.343972,0.0212 -0.437657,0.1687 -0.341279,0.53725 0.175009,0.66924 -0.460082,0.66924 -1.470596,0 -1.100042,-0.72853 -1.905,-0.67487 -1.905,0.127 0,0.58298 -0.09336,0.635 -1.139592,0.635 -1.069623,0 -1.163193,0.0565 -1.524,0.92002 -0.532308,1.27399 -0.481355,1.85138 0.187092,2.12006 l 0.5715,0.22972 -0.5715,0.0161 c -0.772277,0.0218 -1.618418,0.89866 -1.419246,1.47084 0.272006,0.78142 0.823087,1.04023 1.905748,0.89501 1.014112,-0.13602 1.026412,-0.12829 0.716749,0.45032 -0.441919,0.82573 0.279082,1.35512 1.572519,1.1546 1.155396,-0.17912 1.810033,0.34789 1.578422,1.2707 -0.134224,0.53479 -0.06684,0.61663 0.507772,0.61663 0.543749,0 0.662536,0.11811 0.662536,0.65878 0,0.44516 0.164723,0.70185 0.508,0.79162 0.2794,0.0731 0.508,0.29097 0.508,0.48422 0,0.58873 0.03476,0.72222 0.258197,0.99144 0.125439,0.15114 -0.149775,0.99759 -0.660681,2.032 -1.08673,2.20024 -1.700814,5.0389 -1.578648,7.29744 0.111701,2.0651 0.07732,2.0759 -2.426725,0.76228 -3.690958,-1.93627 -6.306668,-5.35299 -7.146369,-9.33478 -0.695325,-3.29718 -0.285249,-6.28526 1.306408,-9.51937 1.09981,-2.23472 3.932415,-5.20944 6.275295,-6.59014 4.551986,-2.68257 11.707296,-3.74475 17.363416,-2.57754 5.97913,1.23388 9.82148,4.63677 10.88128,9.63676 0.46126,2.17615 0.45544,3.41842 -0.0273,5.8225 -0.73363,3.65366 -3.0791,7.61793 -6.00093,10.14265 -3.69557,3.19332 -7.96868,4.67045 -13.34375,4.61268 -1.50766,-0.0162 -2.94115,-0.0817 -3.18553,-0.1456 z"
           style="fill:#11a94c;stroke-width:0.25400001" />
      </g>
    </g>
  </g>
</svg>
