<?xml version="1.0" encoding="UTF-8" standalone="no"?>
<!-- Created with Inkscape (http://www.inkscape.org/) -->

<svg
   xmlns:dc="http://purl.org/dc/elements/1.1/"
   xmlns:cc="http://creativecommons.org/ns#"
   xmlns:rdf="http://www.w3.org/1999/02/22-rdf-syntax-ns#"
   xmlns:svg="http://www.w3.org/2000/svg"
   xmlns="http://www.w3.org/2000/svg"
   xmlns:sodipodi="http://sodipodi.sourceforge.net/DTD/sodipodi-0.dtd"
   xmlns:inkscape="http://www.inkscape.org/namespaces/inkscape"
   width="44.591522mm"
   height="44.650822mm"
   viewBox="0 0 44.591522 44.650822"
   version="1.1"
   id="svg222"
   inkscape:version="0.92.3 (2405546, 2018-03-11)"
   sodipodi:docname="V.svg">
  <defs
     id="defs216" />
  <sodipodi:namedview
     id="base"
     pagecolor="#ffffff"
     bordercolor="#666666"
     borderopacity="1.0"
     inkscape:pageopacity="0.0"
     inkscape:pageshadow="2"
     inkscape:zoom="1.979899"
     inkscape:cx="102.93627"
     inkscape:cy="54.084344"
     inkscape:document-units="mm"
     inkscape:current-layer="layer1-6"
     showgrid="false"
     inkscape:pagecheckerboard="true"
     inkscape:window-width="1920"
     inkscape:window-height="1017"
     inkscape:window-x="-8"
     inkscape:window-y="-8"
     inkscape:window-maximized="1" />
  <metadata
     id="metadata219">
    <rdf:RDF>
      <cc:Work
         rdf:about="">
        <dc:format>image/svg+xml</dc:format>
        <dc:type
           rdf:resource="http://purl.org/dc/dcmitype/StillImage" />
        <dc:title></dc:title>
      </cc:Work>
    </rdf:RDF>
  </metadata>
  <g
     inkscape:label="Layer 1"
     inkscape:groupmode="layer"
     id="layer1"
     transform="translate(-70.186082,-61.841381)">
    <g
       id="layer1-6"
       transform="translate(15.382385,-55.585429)">
      <g
         id="g21">
        <path
           style="fill:#f3d2cf;stroke-width:0.25400001"
           d="m 76.472142,161.60591 c -0.545837,-0.60314 -1.21323,-0.65448 -1.651,-0.127 -0.675527,0.81396 -1.681369,0.36644 -2.416374,-1.07508 -0.01657,-0.0325 -0.3849,0.0748 -0.818513,0.2385 -0.629904,0.23776 -0.872436,0.22783 -1.206487,-0.0494 -0.229954,-0.19085 -0.837556,-0.35532 -1.350227,-0.3655 -0.830933,-0.0165 -0.946561,-0.10112 -1.065068,-0.77941 -0.122924,-0.70358 -0.203817,-0.7548 -1.073618,-0.67986 -0.836183,0.072 -0.959531,0.006 -1.1104,-0.59519 -0.184744,-0.73607 -0.0054,-3.00747 0.29853,-3.78057 0.168177,-0.4278 0.105747,-0.46191 -0.550579,-0.3008 -0.407146,0.1 -1.243694,0.50675 -1.858996,0.90399 -1.182609,0.76352 -1.802268,0.76242 -1.802268,-0.003 0,-0.28693 -0.217452,-0.49404 -0.5715,-0.54433 -0.494015,-0.0702 -0.5715,-0.23305 -0.5715,-1.20144 0,-0.66962 -0.127723,-1.16348 -0.3175,-1.22767 -0.174625,-0.0591 -0.3175,-0.25708 -0.3175,-0.44004 0,-0.3853 -0.553165,-0.64101 -1.386673,-0.64101 -0.846809,0 -1.239627,-0.60334 -1.050207,-1.61304 0.116412,-0.62053 0.04984,-0.94861 -0.241538,-1.19044 -0.236835,-0.19655 -0.347507,-0.5519 -0.269139,-0.86414 0.104148,-0.41496 -0.07186,-0.64006 -0.809171,-1.03485 -1.145135,-0.61315 -1.312626,-1.35435 -0.548533,-2.42742 l 0.555956,-0.78077 -0.560944,-0.3929 c -0.464893,-0.32562 -0.532539,-0.54431 -0.395055,-1.27717 0.123804,-0.65993 0.0517,-1.01045 -0.284226,-1.38164 -0.307841,-0.34016 -0.373205,-0.60183 -0.206792,-0.82787 1.262856,-1.71533 1.238413,-1.63142 0.620896,-2.13146 -1.233759,-0.99904 0.02842,-2.0803 2.428377,-2.0803 0.761777,0 1.385049,-0.11397 1.385049,-0.25327 0,-0.38824 -1.757417,-2.24596 -2.282293,-2.41255 -0.822764,-0.26114 -0.861972,-0.96284 -0.08827,-1.57977 0.560989,-0.44732 0.643894,-0.63068 0.396848,-0.87773 -0.68635,-0.68635 -0.19651,-1.98868 0.747993,-1.98868 0.247873,0 0.627998,-0.3429 0.844723,-0.762 0.216725,-0.4191 0.577425,-0.762 0.801556,-0.762 0.332179,0 0.38391,-0.20939 0.27984,-1.13269 -0.167922,-1.4898 0.292803,-2.16931 1.470854,-2.16931 0.597361,0 0.972475,-0.16017 1.189696,-0.508 0.18809,-0.30118 0.592335,-0.508 0.99292,-0.508 0.568093,0 0.710575,-0.1476 0.894906,-0.92703 0.297928,-1.25976 0.829715,-1.5592 2.010674,-1.13216 0.893712,0.32317 0.954684,0.30851 1.485379,-0.35704 0.465514,-0.58381 0.678011,-0.66668 1.337909,-0.52174 0.6798,0.14931 0.858258,0.0687 1.337178,-0.60386 0.63461,-0.89123 1.026722,-0.9536 2.085257,-0.33167 0.724161,0.42547 0.77117,0.4246 1.098084,-0.0204 0.595597,-0.81067 1.450021,-0.43597 2.218421,0.97287 0.380971,0.6985 0.765167,1.64148 0.853768,2.0955 0.0886,0.45403 0.264354,0.8255 0.390559,0.8255 0.336403,0 1.176152,-1.46919 1.64642,-2.8805 0.397693,-1.19351 0.433863,-1.22497 1.235456,-1.07459 0.578198,0.10847 0.921792,0.0392 1.146048,-0.231 0.477767,-0.57567 1.209144,-0.46713 1.678432,0.24909 0.281874,0.4302 0.64834,0.635 1.136234,0.635 0.39609,0 0.820359,0.17904 0.942817,0.39786 0.200068,0.3575 0.319908,0.35148 1.181425,-0.0593 0.954387,-0.45512 0.960979,-0.45448 1.44097,0.13828 0.265207,0.32752 0.482196,0.75713 0.482196,0.9547 0,0.19757 0.329875,0.42519 0.73306,0.50582 0.429346,0.0859 0.844801,0.39187 1.002771,0.73857 0.188158,0.41297 0.522991,0.61633 1.107331,0.67254 0.706148,0.0679 0.857964,0.1993 0.967255,0.837 0.125242,0.73077 0.331891,0.86751 1.968083,1.30227 0.191562,0.0509 0.3175,0.51667 0.3175,1.17424 0,0.81479 0.128219,1.16995 0.508,1.40712 0.2794,0.17449 0.508,0.53865 0.508,0.80924 0,0.28598 0.292489,0.63261 0.6985,0.8278 0.583898,0.28071 0.700946,0.50177 0.713412,1.34736 0.0082,0.55635 0.135631,1.24015 0.283177,1.51955 0.372763,0.70588 0.194976,1.09172 -1.138443,2.47065 -0.638561,0.66035 -1.106523,1.25514 -1.039916,1.32175 0.06661,0.0666 0.859815,0.21211 1.762686,0.32335 1.582859,0.19501 1.644584,0.22951 1.725424,0.96425 0.04611,0.4191 0.319007,1.0147 0.606433,1.32356 0.434472,0.46686 0.478607,0.68101 0.261729,1.27 -0.143477,0.38964 -0.235625,1.22279 -0.204775,1.85144 0.03085,0.62865 -0.09131,1.44243 -0.27147,1.80839 -0.185712,0.37725 -0.266001,1.04476 -0.185404,1.54142 0.120845,0.74468 0.0431,0.94092 -0.518597,1.30896 -0.46382,0.3039 -0.660756,0.65564 -0.660756,1.18015 0,0.48882 -0.176784,0.84182 -0.511228,1.02081 -0.417848,0.22362 -0.461384,0.36674 -0.238341,0.7835 0.485457,0.90708 0.199202,1.84482 -0.647431,2.1209 -0.4191,0.13667 -0.799152,0.27117 -0.84456,0.2989 -0.08776,0.0536 -0.246642,0.78613 -0.279006,1.28635 -0.01069,0.16521 -0.220482,0.3642 -0.466205,0.44219 -0.245724,0.078 -0.560049,0.39628 -0.6985,0.70732 -0.138452,0.31103 -0.512876,0.6264 -0.832055,0.70081 -0.319179,0.0744 -0.725988,0.42105 -0.904022,0.7703 -0.268638,0.52699 -0.485694,0.6252 -1.276109,0.57736 -0.523829,-0.0317 -1.517192,-0.3413 -2.207478,-0.68801 l -1.255065,-0.63039 v 0.74473 c 0,0.4096 0.2562,1.27205 0.569331,1.91657 0.511904,1.05365 0.528899,1.20166 0.168491,1.4673 -0.220464,0.16249 -0.537835,0.55261 -0.705269,0.86694 -0.208653,0.39171 -0.536623,0.5715 -1.0425,0.5715 -0.40594,0 -0.808713,0.1143 -0.895053,0.254 -0.08634,0.1397 -0.495584,0.254 -0.909436,0.254 -0.556131,0 -0.827941,0.16568 -1.041779,0.635 -0.319722,0.70171 -1.154544,0.84117 -1.973557,0.32969 -0.384472,-0.24011 -0.621373,-0.2344 -1.109287,0.0267 -0.341223,0.18262 -0.863165,0.25499 -1.159868,0.16082 -0.3607,-0.11449 -0.760836,0.003 -1.207521,0.35427 -0.824494,0.64855 -0.916479,0.64963 -1.488551,0.0175 z m 6.274051,-18.796 c 1.528643,-4.12115 3.108203,-8.38466 3.510138,-9.47447 0.549473,-1.48984 0.650514,-2.01226 0.407245,-2.10561 -0.17795,-0.0683 -1.395727,-0.091 -2.706174,-0.0505 l -2.382634,0.0736 -1.313267,4.318 c -2.919229,9.59837 -2.893154,9.525 -3.385281,9.525 -0.365054,0 -0.635524,-0.55123 -1.277455,-2.6035 -0.447892,-1.43193 -1.438937,-4.57518 -2.202322,-6.985 l -1.387973,-4.3815 h -2.615331 c -1.438432,0 -2.677022,0.0617 -2.752422,0.13709 -0.125084,0.12508 5.892456,16.40551 6.782206,18.34923 l 0.381459,0.83332 3.081232,-0.0713 3.081232,-0.0713 z"
           id="path35"
           inkscape:connector-curvature="0" />
        <path
           style="fill:#f1c2bd;stroke-width:0.25400001"
           d="m 76.472142,161.35191 c -0.545837,-0.60314 -1.21323,-0.65448 -1.651,-0.127 -0.476696,0.57438 -1.45881,0.47085 -1.807088,-0.1905 -0.438089,-0.83189 -0.786406,-0.97588 -1.395435,-0.57682 -0.465698,0.30513 -0.616195,0.30104 -1.088238,-0.0296 -0.358898,-0.25138 -0.807227,-0.32672 -1.300112,-0.21846 -0.774318,0.17007 -0.890234,0.0455 -1.369695,-1.47208 -0.118645,-0.37554 -0.236547,-0.40587 -0.6719,-0.17288 -0.839667,0.44938 -1.257532,-0.0992 -1.257532,-1.65087 0,-0.7304 0.127515,-1.69378 0.283367,-2.14086 0.155852,-0.44708 0.220661,-0.87558 0.144019,-0.95222 -0.219658,-0.21966 -1.837085,0.38982 -2.839172,1.06985 -1.121867,0.76132 -1.102759,0.76154 -1.398214,-0.0156 -0.154506,-0.40638 -0.438625,-0.635 -0.789157,-0.635 -0.48741,0 -0.533501,-0.10609 -0.418518,-0.96335 0.168303,-1.2548 -0.511543,-2.12228 -1.932338,-2.46565 -1.024381,-0.24757 -1.050987,-0.28095 -1.050987,-1.31843 0,-0.58544 -0.142875,-1.20838 -0.3175,-1.3843 -0.174625,-0.17593 -0.3175,-0.63773 -0.3175,-1.02623 0,-0.53591 -0.148724,-0.74369 -0.616307,-0.86104 -0.338968,-0.0851 -0.806055,-0.36436 -1.037971,-0.62062 -0.395239,-0.43674 -0.37959,-0.53773 0.249692,-1.61152 l 0.671358,-1.14559 -0.546551,-0.2925 c -0.459073,-0.24569 -0.519749,-0.43538 -0.379094,-1.18514 0.125498,-0.66896 0.05467,-1.01725 -0.282657,-1.39 -0.307841,-0.34016 -0.373205,-0.60183 -0.206792,-0.82787 0.133827,-0.18178 0.467852,-0.64962 0.742277,-1.03966 l 0.498955,-0.70915 -0.562455,-0.37346 c -1.281272,-0.85073 -0.187787,-1.78423 2.407317,-2.05512 l 1.729228,-0.1805 -1.767583,-1.73289 -1.767583,-1.73288 0.686355,-0.49998 c 0.570114,-0.4153 0.640929,-0.58485 0.418134,-1.00115 -0.424948,-0.79402 -0.188624,-1.57864 0.525677,-1.7453 0.34925,-0.0815 0.780877,-0.45089 0.959171,-0.82091 0.178294,-0.37002 0.563645,-0.74877 0.856337,-0.84166 0.470878,-0.14946 0.513961,-0.30173 0.374091,-1.32219 -0.190705,-1.39134 0.10995,-1.84091 1.231135,-1.84091 0.488038,0 0.998922,-0.19933 1.265303,-0.49368 0.245725,-0.27152 0.745149,-0.52869 1.109833,-0.5715 0.524053,-0.0615 0.699176,-0.25582 0.835329,-0.92685 0.258138,-1.27226 0.556058,-1.46263 1.778389,-1.13637 0.95813,0.25574 1.082915,0.22958 1.568484,-0.32888 0.382974,-0.44046 0.791801,-0.60672 1.491877,-0.60672 0.748344,0 1.057532,-0.14223 1.380408,-0.635 0.488925,-0.74619 0.903933,-0.79114 1.895658,-0.20532 0.683202,0.40358 0.756242,0.40358 1.20219,0 0.261137,-0.23632 0.661002,-0.42968 0.888588,-0.42968 0.501032,0 1.557498,1.75613 1.948239,3.2385 0.156501,0.59372 0.386659,1.0795 0.511462,1.0795 0.362097,0 1.304915,-1.46308 1.773385,-2.75196 0.394804,-1.08622 0.495607,-1.17999 1.208747,-1.12446 0.444478,0.0346 0.912541,-0.10151 1.091799,-0.3175 0.471757,-0.56844 1.204963,-0.45576 1.671932,0.25692 0.261955,0.3998 0.653601,0.635 1.057354,0.635 0.352707,0 0.77647,0.18488 0.941697,0.41084 0.276197,0.37772 0.367322,0.37624 1.130427,-0.0184 1.023458,-0.52925 1.491435,-0.37126 1.837058,0.62019 0.169055,0.48495 0.441668,0.76535 0.744098,0.76535 0.262514,0 0.664527,0.28575 0.893366,0.635 0.228836,0.34925 0.622173,0.635 0.87408,0.635 0.785538,0 1.261562,0.28994 1.261562,0.7684 0,0.85115 0.304495,1.2636 0.932874,1.2636 1.217645,0 1.62645,0.4247 1.452986,1.50948 -0.132738,0.8301 -0.07402,1.02648 0.379552,1.26922 0.301559,0.16139 0.536588,0.537 0.536588,0.85755 0,0.4005 0.226944,0.65604 0.762,0.858 0.687156,0.25937 0.762,0.39707 0.762,1.40189 0,0.61284 0.125654,1.23991 0.279232,1.39349 0.454945,0.45495 0.02839,1.25109 -1.31972,2.46315 -1.473131,1.32447 -1.3659,1.50006 1.103988,1.80779 1.376878,0.17154 1.4605,0.22166 1.4605,0.87533 0,0.38135 0.2286,0.90025 0.508,1.1531 0.531835,0.4813 0.67375,1.26458 0.273893,1.5117 -0.128757,0.0796 -0.19799,0.79459 -0.153847,1.58891 0.05331,0.95928 -0.04472,1.63496 -0.291948,2.01227 -0.286032,0.43654 -0.30715,0.68961 -0.09121,1.09309 0.318859,0.59579 0.01913,1.38537 -0.618828,1.63018 -0.225034,0.0863 -0.388056,0.45936 -0.388056,0.8879 0,0.48106 -0.196304,0.86933 -0.562442,1.11243 -0.508742,0.3378 -0.535595,0.46093 -0.281242,1.28969 0.332118,1.08214 0.07094,1.55387 -0.997816,1.8022 -0.528521,0.12281 -0.6985,0.31423 -0.6985,0.78661 0,0.38564 -0.242753,0.78337 -0.635,1.04038 -0.34925,0.22883 -0.635,0.5802 -0.635,0.78081 0,0.20062 -0.385534,0.52584 -0.856742,0.72272 -0.485414,0.20282 -0.919495,0.59793 -1.001527,0.91162 -0.126548,0.48392 -0.265671,0.53404 -1.104608,0.3979 -0.527906,-0.0857 -1.516517,-0.44458 -2.196917,-0.79759 -0.680397,-0.353 -1.283688,-0.64182 -1.340647,-0.64182 -0.316032,0 -0.02564,1.75136 0.447454,2.69865 0.496349,0.99385 0.512777,1.14779 0.165608,1.55182 -0.211974,0.24669 -0.456342,0.64855 -0.543042,0.89303 -0.108557,0.30611 -0.42844,0.4445 -1.027433,0.4445 -0.555828,0 -0.924997,0.14385 -1.022721,0.39851 -0.10668,0.27801 -0.320387,0.34537 -0.706711,0.22275 -0.432367,-0.13723 -0.701114,0.005 -1.225738,0.64755 l -0.671952,0.8233 -0.842102,-0.43546 c -0.69581,-0.35982 -0.943503,-0.3812 -1.425821,-0.12307 -0.321046,0.17182 -0.818472,0.25101 -1.10539,0.17598 -0.305641,-0.0799 -0.776178,0.0638 -1.136254,0.34701 -0.773702,0.60859 -0.980417,0.60532 -1.550456,-0.0246 z m 3.830243,-11.56628 c 0.922488,-2.20781 6.710756,-18.00456 6.710756,-18.3143 0,-0.27019 -0.605462,-0.34542 -2.779885,-0.34542 h -2.779885 l -0.920138,2.9845 c -2.801528,9.08687 -3.328274,10.6045 -3.680646,10.6045 -0.346521,0 -1.018815,-1.94198 -3.803078,-10.9855 l -0.801549,-2.6035 h -2.904409 c -2.077378,0 -2.904409,0.0861 -2.904409,0.3025 0,0.43798 6.859885,18.5602 7.168686,18.938 0.181253,0.22175 1.173229,0.3175 3.289375,0.3175 h 3.029859 z"
           id="path33"
           inkscape:connector-curvature="0" />
        <path
           style="fill:#eca29b;stroke-width:0.25400001"
           d="m 72.981834,160.78325 c -0.598689,-0.77633 -0.671547,-0.80278 -1.293894,-0.46971 -0.557876,0.29857 -0.723905,0.29948 -1.07763,0.006 -0.229982,-0.19087 -0.832573,-0.35097 -1.33909,-0.35579 -0.820414,-0.008 -0.936105,-0.0919 -1.059853,-0.77075 -0.125459,-0.68821 -0.222279,-0.75518 -0.999775,-0.69154 -0.49256,0.0403 -0.948956,-0.0684 -1.066768,-0.254 -0.32109,-0.50597 -0.250021,-2.02798 0.158003,-3.38374 0.204427,-0.67926 0.340875,-1.26583 0.303218,-1.30349 -0.182508,-0.1825 -1.99186,0.50574 -2.836591,1.07899 -0.985465,0.66875 -1.648312,0.66463 -1.648312,-0.0103 0,-0.22164 -0.221964,-0.38897 -0.515972,-0.38897 -0.658892,0 -0.899186,-0.62238 -0.542522,-1.40517 0.228405,-0.50129 0.197245,-0.66913 -0.173836,-0.9363 -0.248668,-0.17904 -0.526734,-0.52556 -0.617925,-0.77003 -0.113387,-0.30398 -0.43953,-0.4445 -1.031672,-0.4445 -1.090598,0 -1.484204,-0.45785 -1.278372,-1.48701 0.102616,-0.51308 0.03497,-0.94856 -0.189577,-1.22041 -0.192018,-0.23248 -0.349124,-0.65982 -0.349124,-0.94965 0,-0.35961 -0.302501,-0.66988 -0.9525,-0.97695 -1.088607,-0.51428 -1.209131,-1.06722 -0.4445,-2.03929 0.638334,-0.81151 0.642282,-1.24863 0.01482,-1.64049 -0.392187,-0.24493 -0.463213,-0.49268 -0.346834,-1.20985 0.104727,-0.64535 0.02529,-1.03561 -0.279286,-1.37217 -0.400822,-0.4429 -0.388006,-0.51504 0.219833,-1.23742 0.774726,-0.92071 0.792624,-1.11685 0.154599,-1.69426 -1.013882,-0.91755 -0.221949,-1.44441 2.481743,-1.65105 l 1.863872,-0.14245 -0.887697,-1.143 c -0.488234,-0.62865 -1.240923,-1.3716 -1.672642,-1.651 -0.929158,-0.60133 -0.984374,-0.94959 -0.229974,-1.45049 0.511312,-0.3395 0.529401,-0.43471 0.223089,-1.17421 -0.379978,-0.91735 -0.06234,-1.5663 0.766645,-1.5663 0.257379,0 0.599662,-0.25718 0.760627,-0.5715 0.160966,-0.31433 0.529842,-0.76 0.819725,-0.99039 0.421227,-0.33478 0.514498,-0.66159 0.464498,-1.6275 -0.0703,-1.35818 0.162706,-1.62675 1.416549,-1.63272 0.553946,-0.003 0.904002,-0.16727 1.088437,-0.51189 0.176566,-0.32992 0.531831,-0.508 1.013427,-0.508 0.644937,0 0.763062,-0.11465 0.906633,-0.87995 0.224147,-1.1948 0.701409,-1.5662 1.528413,-1.18939 0.951519,0.43354 1.377963,0.35929 1.924084,-0.33499 0.384582,-0.48891 0.649434,-0.59497 1.207209,-0.48342 0.577229,0.11545 0.861755,-0.0146 1.480621,-0.67679 l 0.766081,-0.81971 0.799854,0.47249 c 0.653663,0.38612 0.879983,0.41509 1.238266,0.1585 0.926751,-0.66371 1.153015,-0.6523 1.743229,0.0879 0.660068,0.8278 0.951534,1.49537 1.375039,3.14937 l 0.290618,1.13501 0.735551,-0.88101 c 0.40455,-0.48456 0.980234,-1.53824 1.279293,-2.34151 0.543825,-1.4607 0.871596,-1.72498 1.437518,-1.15906 0.232581,0.23258 0.452118,0.16005 0.961106,-0.3175 l 0.659668,-0.61894 0.601511,0.6985 c 0.330832,0.38417 0.855169,0.6985 1.165194,0.6985 0.310027,0 0.769793,0.18653 1.021702,0.4145 0.38889,0.35194 0.573314,0.36674 1.221938,0.0981 0.955711,-0.39586 1.398517,-0.23219 1.833258,0.67764 0.187851,0.39314 0.58199,0.74926 0.875866,0.7914 0.293878,0.0421 0.65833,0.34877 0.809894,0.68142 0.1943,0.42644 0.522933,0.62858 1.114298,0.68539 0.695754,0.0668 0.852124,0.19648 0.917306,0.76049 0.09684,0.83796 0.458515,1.15476 1.445422,1.26611 0.710291,0.0802 0.763854,0.1602 0.789323,1.17973 0.02024,0.8102 0.168394,1.19255 0.5715,1.4749 0.299298,0.20963 0.544177,0.6061 0.544177,0.88104 0,0.2995 0.254551,0.59666 0.635,0.74131 0.617949,0.23494 0.751634,0.49722 0.641848,1.25925 -0.02934,0.20363 0.08638,0.79362 0.257162,1.31108 0.278092,0.84263 0.25353,1.02085 -0.235298,1.70735 -0.30019,0.42158 -0.943805,1.01249 -1.430256,1.31313 -0.486451,0.30064 -0.884456,0.63675 -0.884456,0.7469 0,0.243 1.823532,0.74218 3.048,0.83436 0.793074,0.0597 0.891842,0.14782 0.915335,0.81654 0.01448,0.41229 0.158669,0.79372 0.320411,0.84764 0.565053,0.18835 0.858446,1.06976 0.499894,1.50179 -0.217467,0.26203 -0.303504,0.9461 -0.249953,1.98738 0.05192,1.0096 -0.02527,1.65389 -0.211938,1.76926 -0.185976,0.11494 -0.235811,0.52347 -0.135951,1.11452 0.133691,0.79132 0.05924,1.01863 -0.49008,1.49625 -0.356245,0.30976 -0.647718,0.83575 -0.647718,1.16889 0,0.33696 -0.240937,0.76567 -0.543034,0.96626 -0.503299,0.33418 -0.518592,0.42815 -0.209022,1.28426 0.371239,1.02664 0.06822,1.71914 -0.752244,1.71914 -0.603836,0 -1.0357,0.5077 -1.0357,1.21758 0,0.39547 -0.178536,0.65467 -0.510779,0.74155 -0.280926,0.0735 -0.579069,0.40566 -0.662536,0.73822 -0.107465,0.42817 -0.330888,0.60465 -0.765507,0.60465 -0.413787,0 -0.68911,0.19821 -0.845051,0.60836 -0.127213,0.3346 -0.381559,0.65944 -0.565213,0.72187 -0.507203,0.1724 -1.983725,-0.28453 -3.211355,-0.99381 -0.60469,-0.34936 -1.165962,-0.56868 -1.247267,-0.48738 -0.203688,0.20369 0.420332,2.90177 0.712955,3.08262 0.294584,0.18206 0.315018,1.38634 0.02352,1.38634 -0.117277,0 -0.348744,0.29742 -0.514373,0.66094 -0.238567,0.52359 -0.425729,0.62966 -0.900706,0.51045 -0.378537,-0.095 -0.716666,-0.009 -0.91721,0.23226 -0.174703,0.2105 -0.611919,0.35227 -0.971588,0.31504 -0.496704,-0.0514 -0.736021,0.10026 -0.995281,0.63081 -0.385455,0.78879 -0.785236,0.8617 -1.812358,0.33056 -0.625084,-0.32325 -0.778147,-0.32127 -1.260051,0.0163 -0.318107,0.22281 -0.766041,0.31518 -1.066307,0.21988 -0.301905,-0.0958 -0.773601,0.003 -1.131398,0.23773 -0.761517,0.49896 -1.366158,0.51486 -1.54811,0.0407 -0.23757,-0.6191 -0.878082,-0.67735 -1.622158,-0.14752 -0.948715,0.67555 -1.097106,0.65025 -1.840539,-0.31378 z m 7.495448,-11.05184 c 2.016244,-5.09004 6.785417,-18.4072 6.662979,-18.60531 -0.237793,-0.38475 -5.338595,-0.3277 -5.659478,0.0633 -0.14331,0.17462 -1.164374,3.23215 -2.269033,6.7945 -1.324031,4.26978 -2.125143,6.477 -2.350839,6.477 -0.225447,0 -1.03152,-2.21193 -2.360358,-6.477 -1.109894,-3.56235 -2.134456,-6.61988 -2.276802,-6.7945 -0.307746,-0.37753 -5.670233,-0.45406 -5.898829,-0.0842 -0.116784,0.18896 6.663092,18.61901 7.123343,19.36371 0.07307,0.11823 1.599601,0.21497 3.392288,0.21497 h 3.25943 z"
           id="path31"
           inkscape:connector-curvature="0" />
        <path
           style="fill:#e7847b;stroke-width:0.25400001"
           d="m 76.472142,161.09791 c -0.545837,-0.60314 -1.21323,-0.65448 -1.651,-0.127 -0.490101,0.59053 -1.083063,0.45848 -1.787204,-0.398 -0.594683,-0.72336 -0.697357,-0.75937 -1.33567,-0.46853 -0.555179,0.25295 -0.812907,0.25006 -1.307607,-0.0147 -0.338877,-0.18136 -0.848048,-0.2691 -1.131491,-0.19498 -0.603715,0.15787 -0.958695,-0.19759 -1.081313,-1.08279 -0.06015,-0.43421 -0.228479,-0.61492 -0.532338,-0.5715 -0.244408,0.0349 -0.644402,0.0921 -0.888877,0.127 -0.37449,0.0535 -0.456178,-0.17757 -0.518644,-1.4671 -0.06167,-1.27319 0.04919,-1.77513 0.659216,-2.9845 0.755222,-1.49724 0.727688,-1.83515 -0.07707,-0.9459 -0.252854,0.2794 -0.595213,0.508 -0.760798,0.508 -0.165585,0 -1.013686,0.3561 -1.88467,0.79134 l -1.583606,0.79133 -0.376366,-0.53733 c -0.207001,-0.29553 -0.555943,-0.53733 -0.775426,-0.53733 -0.323733,0 -0.368199,-0.193 -0.235568,-1.02243 0.124309,-0.77738 0.07353,-1.05694 -0.211868,-1.16646 -0.206448,-0.0792 -0.444564,-0.36208 -0.529146,-0.62858 -0.08885,-0.27995 -0.387856,-0.486 -0.708169,-0.488 -0.30491,-0.002 -0.822123,-0.0752 -1.14936,-0.16276 -0.544207,-0.14571 -0.580785,-0.25394 -0.428653,-1.26843 0.131495,-0.87687 0.08322,-1.14101 -0.230523,-1.26141 -0.235447,-0.0904 -0.396847,-0.45641 -0.396847,-0.90007 0,-0.61169 -0.158637,-0.81407 -0.871631,-1.11197 -1.228689,-0.51338 -1.299333,-0.77191 -0.529007,-1.93595 l 0.679464,-1.02674 -0.541567,-0.57647 c -0.401752,-0.42765 -0.497611,-0.75161 -0.371308,-1.25484 0.120532,-0.48024 0.03476,-0.82808 -0.293669,-1.19099 -0.318043,-0.35144 -0.387413,-0.61657 -0.220604,-0.84314 1.286207,-1.74705 1.257144,-1.63315 0.596224,-2.33668 -0.587782,-0.62567 -0.591818,-0.65705 -0.128106,-0.99613 0.722374,-0.52822 2.498789,-0.70971 4.145549,-0.42354 1.743355,0.30295 1.976768,0.21739 0.775835,-0.28439 -0.48275,-0.2017 -1.122159,-0.75133 -1.420909,-1.22138 -0.29875,-0.47005 -0.941681,-1.14039 -1.428734,-1.48964 -1.030634,-0.73903 -1.105839,-1.07106 -0.355454,-1.5693 0.45869,-0.30455 0.498555,-0.44632 0.254,-0.90328 -0.510247,-0.9534 -0.359227,-1.51409 0.451488,-1.67623 0.444204,-0.0888 0.808415,-0.35892 0.908265,-0.67352 0.09168,-0.28886 0.450266,-0.71101 0.796855,-0.9381 0.555544,-0.36401 0.620935,-0.56576 0.552236,-1.70382 l -0.07793,-1.29093 1.116008,-0.15284 c 0.613805,-0.0841 1.255056,-0.34299 1.425002,-0.57541 0.169946,-0.23241 0.530707,-0.42257 0.801691,-0.42257 0.649506,0 1.102299,-0.4776 1.102299,-1.1627 0,-0.92002 0.628496,-1.25052 1.724629,-0.90689 0.872241,0.27344 0.983994,0.24802 1.501687,-0.34149 0.395543,-0.45042 0.817795,-0.63692 1.442065,-0.63692 0.639067,0 1.020632,-0.17529 1.382239,-0.635 0.592125,-0.75276 0.779037,-0.77342 1.783339,-0.19703 0.722457,0.41464 0.788919,0.41464 1.247084,0 0.706805,-0.63965 0.998224,-0.54907 1.714147,0.53276 0.662222,1.00068 1.467993,4.13622 1.22539,4.76843 -0.07531,0.19626 -0.0104,0.35684 0.144244,0.35684 0.154648,0 0.281175,-0.32718 0.281175,-0.72707 0,-0.4262 0.316797,-1.12572 0.765544,-1.69039 0.421048,-0.52982 0.962225,-1.51708 1.202619,-2.19392 0.435328,-1.2257 0.742746,-1.46611 1.239522,-0.96934 0.179047,0.17905 0.467469,0.0991 0.916364,-0.254 0.830945,-0.65362 0.905687,-0.64769 1.509331,0.11972 0.274721,0.34925 0.739371,0.635 1.032556,0.635 0.293184,0 0.731695,0.17976 0.974468,0.39947 0.401429,0.36328 0.511366,0.36328 1.213886,0 1.087034,-0.56213 1.251009,-0.51407 1.67034,0.48953 0.255102,0.61054 0.536334,0.889 0.897854,0.889 0.311963,0 0.641764,0.25318 0.809577,0.62149 0.192072,0.42156 0.527408,0.64626 1.042391,0.6985 0.616364,0.0625 0.812975,0.24429 1.044885,0.96601 0.23102,0.71895 0.431421,0.90545 1.047663,0.97497 1.087308,0.12268 1.380307,0.45508 1.22807,1.39321 -0.09951,0.61319 -0.0015,0.93079 0.399522,1.29364 0.292275,0.2645 0.531408,0.68556 0.531408,0.93569 0,0.25012 0.314325,0.60511 0.6985,0.78887 0.562719,0.26915 0.727957,0.55574 0.850039,1.47436 0.08335,0.62714 0.234716,1.33055 0.336377,1.56313 0.27111,0.62025 -1.310825,2.25311 -3.021241,3.1185 -1.461163,0.73928 -1.766699,1.12565 -0.513316,0.64911 0.473746,-0.18011 0.966955,-0.18696 1.495727,-0.0208 0.433903,0.13638 1.331839,0.32424 1.995414,0.41746 0.996607,0.14001 1.2065,0.26106 1.2065,0.69579 0,0.28946 0.25307,0.79567 0.562381,1.12492 0.457708,0.4872 0.508326,0.68518 0.271956,1.06367 -0.160958,0.25773 -0.253784,1.12441 -0.208229,1.94416 0.0541,0.97363 -0.04114,1.66734 -0.278704,2.02991 -0.26238,0.40044 -0.294371,0.72579 -0.117188,1.19181 0.20245,0.53249 0.139087,0.73931 -0.374252,1.22156 -0.33988,0.3193 -0.617964,0.84235 -0.617964,1.16234 0,0.33239 -0.230307,0.70504 -0.537243,0.86931 -0.525467,0.28122 -0.559021,0.69 -0.18508,2.25474 0.05199,0.21753 -0.298114,0.55239 -0.865177,0.8275 -0.703938,0.34152 -0.9525,0.61967 -0.9525,1.0659 0,0.36375 -0.25244,0.76919 -0.635,1.01985 -0.34925,0.22884 -0.635,0.58774 -0.635,0.79756 0,0.21734 -0.315437,0.44459 -0.733059,0.52811 -0.437109,0.0874 -0.845086,0.39249 -1.010554,0.75565 -0.152621,0.33497 -0.437025,0.60904 -0.632006,0.60904 -0.728362,0 -2.607388,-0.80594 -3.466381,-1.48677 -1.396408,-1.10678 -1.678767,-1.23307 -1.186911,-0.53084 0.233703,0.33365 0.424911,1.00232 0.424911,1.48593 0,0.48361 0.246896,1.38931 0.548656,2.01266 0.476029,0.98334 0.499163,1.17048 0.174759,1.4137 -0.205643,0.15418 -0.453959,0.4934 -0.551815,0.75383 -0.127383,0.33901 -0.355572,0.43954 -0.803374,0.35394 -0.391094,-0.0748 -0.773001,0.0435 -1.019226,0.31555 -0.241472,0.26682 -0.629216,0.39011 -1.002515,0.31874 -0.481558,-0.0921 -0.693859,0.0482 -1.016137,0.67145 -0.475127,0.91879 -0.475198,0.91881 -1.424137,0.35826 -0.622999,-0.36802 -0.817258,-0.38134 -1.356002,-0.093 -0.345857,0.18509 -0.883064,0.27005 -1.193795,0.1888 -0.357474,-0.0935 -0.79597,0.034 -1.193945,0.34701 -0.782614,0.6156 -0.881182,0.6147 -1.449468,-0.0132 z m 3.67142,-10.52705 c 0.51943,-0.62587 7.366246,-19.30389 7.154031,-19.5161 -0.110152,-0.11015 -1.505092,-0.16778 -3.099864,-0.12806 l -2.899588,0.0722 -1.062228,3.302 c -0.584222,1.8161 -1.532112,4.81647 -2.106422,6.6675 -0.574306,1.85102 -1.147558,3.3655 -1.273891,3.3655 -0.126332,0 -0.758278,-1.68593 -1.404323,-3.7465 -0.646045,-2.06058 -1.595042,-5.06095 -2.108882,-6.6675 l -0.934253,-2.921 -3.026873,-0.0719 c -1.66478,-0.0396 -3.110286,0.0176 -3.212236,0.127 -0.156825,0.1683 6.682597,18.70359 7.225904,19.58268 0.292064,0.47256 6.350845,0.4135 6.748625,-0.0658 z"
           id="path29"
           inkscape:connector-curvature="0" />
        <path
           style="fill:#e26258;stroke-width:0.25400001"
           d="m 73.170142,160.58991 c -0.417769,-0.80788 -0.854822,-0.9341 -1.688828,-0.48776 -0.399646,0.21389 -0.615837,0.18067 -0.982243,-0.15092 -0.335943,-0.30403 -0.691796,-0.37642 -1.24887,-0.25407 -0.694807,0.15261 -0.77948,0.10712 -0.782949,-0.42057 -0.0062,-0.94061 -0.342258,-1.24655 -1.285403,-1.17014 l -0.869707,0.0705 0.04182,-1.55513 c 0.04008,-1.49025 0.718234,-3.38522 1.351547,-3.77663 0.141696,-0.0876 0.25763,-0.26678 0.25763,-0.39823 0,-0.41242 -0.663698,-0.26063 -1.134347,0.25943 -0.248094,0.27414 -0.865884,0.62899 -1.372867,0.78855 -0.506982,0.15956 -1.346801,0.56315 -1.866263,0.89686 -0.931795,0.59859 -0.948114,0.59994 -1.215436,0.10044 -0.149028,-0.27846 -0.431643,-0.50629 -0.628034,-0.50629 -0.548277,0 -0.671778,-0.39412 -0.371219,-1.18465 0.235494,-0.61939 0.200475,-0.76774 -0.252183,-1.06829 -0.289108,-0.19196 -0.525651,-0.4943 -0.525651,-0.67187 0,-0.39956 -0.569813,-0.63119 -1.552746,-0.63119 -0.873798,0 -1.107769,-0.41195 -0.757388,-1.33352 0.190137,-0.5001 0.161997,-0.73266 -0.116633,-0.96391 -0.201978,-0.16762 -0.367233,-0.63135 -0.367233,-1.03051 0,-0.59097 -0.188665,-0.82199 -1.016,-1.24406 -1.141476,-0.58234 -1.222216,-0.86493 -0.508,-1.778 0.633359,-0.8097 0.635599,-1.32979 0.0082,-1.8976 -0.38751,-0.35069 -0.441999,-0.56039 -0.242486,-0.93319 0.190467,-0.35589 0.145158,-0.67076 -0.174356,-1.21165 -0.414618,-0.70189 -0.410048,-0.75833 0.115485,-1.42644 0.658116,-0.83666 0.68827,-1.32022 0.121385,-1.94662 -0.712268,-0.78705 -0.07343,-1.0935 2.27955,-1.0935 1.145786,0 2.397573,0.0981 2.781748,0.21804 0.971688,0.30331 0.914123,-0.22049 -0.08077,-0.73497 -0.4286,-0.22164 -1.50299,-1.14109 -2.387534,-2.04322 -1.498703,-1.5285 -1.573652,-1.65876 -1.100214,-1.91213 0.508216,-0.27199 0.542039,-1.00287 0.09453,-2.04278 -0.138775,-0.32248 0.02856,-0.48799 0.726077,-0.71819 0.498526,-0.16453 0.906411,-0.4522 0.906411,-0.63926 0,-0.18707 0.314325,-0.56918 0.6985,-0.84914 0.610948,-0.44522 0.6985,-0.67869 0.6985,-1.86268 v -1.35367 l 1.078349,-0.078 c 0.754545,-0.0546 1.157649,-0.22622 1.342437,-0.5715 0.150248,-0.28074 0.53011,-0.49345 0.881214,-0.49345 0.651822,0 1.143,-0.63605 1.143,-1.48013 0,-0.61336 0.638349,-0.88992 1.271702,-0.55096 0.74752,0.40006 1.490671,0.29684 1.835244,-0.25491 0.224063,-0.35878 0.592335,-0.508 1.253743,-0.508 0.743276,0 1.062304,-0.16076 1.546283,-0.77917 l 0.609792,-0.77917 0.894819,0.52796 c 0.893412,0.52712 0.895828,0.52716 1.534876,0.0245 0.609447,-0.47939 0.659377,-0.48212 1.044097,-0.057 0.7335,0.81051 1.411208,2.70339 1.588919,4.43795 0.143571,1.40134 0.237231,1.65701 0.520787,1.42168 0.190157,-0.15781 0.345737,-0.65527 0.345737,-1.10546 0,-0.4705 0.197564,-0.99733 0.464643,-1.23903 0.422854,-0.38268 1.294597,-2.10269 1.682757,-3.32021 0.118331,-0.37116 0.225763,-0.41647 0.451727,-0.1905 0.416974,0.41697 1.199052,0.36882 1.373019,-0.0845 0.215433,-0.5614 0.746435,-0.46533 1.479439,0.26767 0.356771,0.35678 0.769218,0.57418 0.916551,0.48312 0.14733,-0.0911 0.489742,0.0352 0.760913,0.28064 0.44403,0.40184 0.598396,0.41142 1.552991,0.0964 0.641996,-0.21187 1.093854,-0.25281 1.145924,-0.10381 0.308176,0.8819 0.793785,1.5246 1.212936,1.60532 0.267927,0.0516 0.696196,0.35959 0.951708,0.68442 0.255514,0.32483 0.76883,0.62653 1.140701,0.67044 0.5018,0.0592 0.726798,0.27072 0.872637,0.82018 0.234681,0.88418 0.605005,1.15555 1.584018,1.16076 0.708297,0.004 0.725998,0.0349 0.57087,1.00505 -0.13241,0.82805 -0.07076,1.06373 0.356583,1.36305 0.284173,0.19904 0.567527,0.62594 0.629679,0.94867 0.117421,0.60972 0.531525,0.99454 1.077404,1.00123 0.205755,0.003 0.3175,0.4009 0.3175,1.1319 0,0.6204 0.1143,1.19865 0.254,1.28499 0.908149,0.56127 -0.821995,2.52972 -3.1115,3.54008 -1.521853,0.67159 -2.036427,1.3699 -0.762,1.03408 0.956203,-0.25196 1.953153,-0.24567 3.725639,0.0235 1.298202,0.19717 1.508813,0.30571 1.544777,0.79609 0.02291,0.31229 0.232316,0.77849 0.465364,1.036 0.448968,0.49611 0.5491,1.10711 0.23322,1.42313 -0.16956,0.16963 -0.256515,1.34744 -0.337708,4.57434 -0.01844,0.73262 -0.187589,1.12508 -0.637441,1.47894 -0.342252,0.26921 -0.612351,0.74969 -0.612351,1.0893 0,0.35791 -0.219893,0.72531 -0.535066,0.89399 -0.540276,0.28914 -0.549638,0.54802 -0.07944,2.19649 0.131978,0.4627 0.03375,0.59013 -0.565386,0.73353 -1.003074,0.24006 -1.360112,0.57309 -1.360112,1.26865 0,0.32806 -0.22018,0.7128 -0.490799,0.85763 -0.269938,0.14447 -0.559069,0.47778 -0.642516,0.74069 -0.08344,0.26292 -0.476379,0.54296 -0.873191,0.62232 -0.439613,0.0879 -0.774692,0.34781 -0.857702,0.66525 -0.08876,0.33942 -0.343664,0.52009 -0.731512,0.51847 -0.856595,-0.004 -3.030784,-1.08683 -3.751054,-1.8689 -0.338679,-0.36774 -0.767304,-0.66862 -0.9525,-0.66862 -0.424775,0 -0.422474,0.13445 0.01427,0.83444 0.193056,0.30941 0.422755,1.04676 0.510444,1.63857 0.08769,0.5918 0.343997,1.46303 0.569572,1.93607 0.392267,0.82259 0.385524,0.89335 -0.154739,1.6241 -0.39178,0.52991 -0.715351,0.72468 -1.055932,0.63562 -0.27008,-0.0706 -0.691538,0.053 -0.936571,0.27477 -0.259883,0.23519 -0.671721,0.34403 -0.988408,0.26121 -0.421534,-0.11023 -0.633822,0.0339 -0.949655,0.64463 -0.471351,0.91149 -0.596217,0.9383 -1.623678,0.34862 -0.702719,-0.40331 -0.799853,-0.40558 -1.227084,-0.0287 -0.296756,0.26178 -0.74377,0.36605 -1.240404,0.28935 -0.515856,-0.0797 -0.888596,0.0152 -1.110602,0.28271 -0.446623,0.53815 -0.860464,0.50733 -1.41495,-0.10537 -0.252854,-0.2794 -0.598054,-0.508 -0.767113,-0.508 -0.169058,0 -0.597997,0.2286 -0.953196,0.508 -0.868167,0.6829 -1.117943,0.64279 -1.581691,-0.254 z m 7.168992,-9.9695 c 0.517383,-0.66723 7.235642,-19.24236 7.093531,-19.6127 -0.122367,-0.31888 -0.676808,-0.3898 -3.047451,-0.3898 -2.013511,0 -2.975379,0.0969 -3.151845,0.3175 -0.139685,0.17462 -1.126985,3.16723 -2.193996,6.65023 -1.885488,6.15471 -2.07656,6.69587 -2.28549,6.4731 -0.05459,-0.0582 -0.922867,-2.73473 -1.929501,-5.94783 -1.006634,-3.2131 -1.984835,-6.21348 -2.173781,-6.6675 l -0.343538,-0.8255 h -3.068932 c -2.434065,0 -3.097912,0.0755 -3.209019,0.36506 -0.110722,0.28854 2.513191,7.51795 6.989116,19.25644 l 0.26634,0.6985 h 3.404186 c 2.422712,0 3.475166,-0.0915 3.65038,-0.3175 z"
           id="path27"
           inkscape:connector-curvature="0" />
        <path
           style="fill:#de4439;stroke-width:0.25400001"
           d="m 73.245455,160.3343 c -0.45732,-0.80368 -0.926998,-0.93417 -1.759248,-0.48877 -0.375279,0.20085 -0.609969,0.18662 -0.900611,-0.0546 -0.216191,-0.17942 -0.750604,-0.33023 -1.187586,-0.33513 -0.679938,-0.008 -0.814479,-0.11879 -0.932974,-0.7709 -0.126931,-0.69854 -0.217051,-0.75735 -1.082178,-0.7061 l -0.943716,0.0559 v -1.0975 c 0,-1.3593 0.395049,-2.57753 1.178078,-3.63286 0.329957,-0.44471 0.599922,-0.93048 0.599922,-1.0795 0,-0.49819 -0.920559,-0.27828 -1.524,0.36405 -0.328104,0.34925 -0.736471,0.635 -0.907483,0.635 -0.171013,0 -0.933363,0.32742 -1.694112,0.72759 -1.324017,0.69648 -1.395831,0.70734 -1.678945,0.254 -0.162671,-0.26047 -0.471426,-0.47359 -0.686122,-0.47359 -0.309836,0 -0.355353,-0.18659 -0.22066,-0.90457 0.137175,-0.7312 0.06636,-1.00083 -0.36949,-1.40689 -0.296554,-0.27628 -0.539188,-0.60517 -0.539188,-0.73087 0,-0.1257 -0.524354,-0.30718 -1.165232,-0.40328 l -1.165232,-0.17474 0.164353,-0.87608 c 0.106527,-0.56783 0.04732,-1.01764 -0.168267,-1.27841 -0.182942,-0.22128 -0.332622,-0.69839 -0.332622,-1.06024 0,-0.50819 -0.216775,-0.76384 -0.9525,-1.12334 -1.083651,-0.5295 -1.164005,-0.84819 -0.4445,-1.76289 0.635885,-0.8084 0.645382,-1.36459 0.02986,-1.74899 -0.370396,-0.23131 -0.450313,-0.50604 -0.354659,-1.21919 0.08704,-0.64889 0.0039,-1.01984 -0.281749,-1.2569 -0.365836,-0.30361 -0.343706,-0.40942 0.227659,-1.08845 0.744285,-0.88453 0.792956,-1.38529 0.198486,-2.04217 -0.374745,-0.41409 -0.383465,-0.51222 -0.0635,-0.71461 0.505814,-0.31994 3.857935,-0.30431 4.716166,0.022 1.480521,0.56289 1.74949,-0.44823 0.281036,-1.05648 -0.439008,-0.18185 -1.49575,-1.04205 -2.348316,-1.91157 -1.49868,-1.52847 -1.533982,-1.59475 -1.063817,-1.99732 0.309243,-0.26478 0.431057,-0.59454 0.334567,-0.90569 -0.08346,-0.26912 -0.218004,-0.7018 -0.298998,-0.96151 -0.11587,-0.37154 0.01805,-0.50526 0.628227,-0.62729 0.539349,-0.10787 0.822172,-0.3411 0.928799,-0.76594 0.08432,-0.33596 0.430268,-0.73702 0.768773,-0.89126 0.543113,-0.24745 0.615463,-0.44528 0.615463,-1.68286 v -1.40245 h 0.891486 c 0.577165,0 1.044846,-0.17911 1.326449,-0.508 0.23923,-0.2794 0.681316,-0.508 0.982413,-0.508 0.679796,0 1.006787,-0.39103 1.24056,-1.48352 0.153317,-0.7165 0.266567,-0.82423 0.72783,-0.69239 1.694691,0.4844 1.886843,0.46614 2.337789,-0.22209 0.364972,-0.55702 0.568446,-0.64622 1.171748,-0.51371 0.603056,0.13245 0.861995,0.0191 1.488265,-0.65129 0.730507,-0.78201 0.780988,-0.7967 1.382885,-0.40232 0.78176,0.51223 1.502113,0.5229 1.912575,0.0283 0.499213,-0.60152 0.680286,-0.47165 1.403527,1.0066 0.448275,0.91624 0.735039,2.01635 0.844182,3.2385 0.123519,1.38315 0.259545,1.8509 0.538257,1.8509 0.238521,0 0.453438,-0.40692 0.596204,-1.12884 0.122781,-0.62086 0.506422,-1.50011 0.852535,-1.95388 0.346113,-0.45378 0.832958,-1.36158 1.081878,-2.01734 0.260921,-0.68737 0.528134,-1.07003 0.630989,-0.90361 0.279484,0.45221 0.84188,0.34069 1.426273,-0.28283 l 0.535636,-0.5715 0.511444,0.6985 c 0.300495,0.4104 0.751792,0.6985 1.094158,0.6985 0.320492,0 0.725005,0.17145 0.898916,0.381 0.400121,0.48212 0.847588,0.48113 1.78557,-0.004 0.738977,-0.38214 0.747031,-0.37848 1.117424,0.508 0.205197,0.4911 0.533415,0.89291 0.729374,0.89291 0.195958,0 0.715101,0.3429 1.153648,0.762 0.438548,0.4191 1.003363,0.762 1.255146,0.762 0.297291,0 0.542988,0.28941 0.700811,0.8255 0.196685,0.66808 0.424663,0.87037 1.195527,1.0608 0.89311,0.22062 0.9525,0.29572 0.9525,1.20434 0,0.69397 0.144206,1.05911 0.508,1.28631 0.2794,0.17448 0.508,0.58145 0.508,0.90436 0,0.42786 0.213017,0.66137 0.785307,0.86088 0.669402,0.23335 0.765361,0.37198 0.650164,0.93928 -0.07433,0.36604 1.63e-4,1.05047 0.165539,1.52096 0.294435,0.83764 0.275217,0.87849 -0.924057,1.96427 -0.67361,0.60985 -1.67435,1.24353 -2.223866,1.40817 -1.168024,0.34995 -1.711259,0.87056 -1.318364,1.26345 0.181053,0.18106 0.582846,0.1669 1.291806,-0.0455 0.784115,-0.23492 1.30192,-0.23958 2.175718,-0.0196 0.630689,0.1588 1.438991,0.28874 1.796229,0.28874 0.512044,0 0.649524,0.12607 0.649524,0.59563 0,0.3276 0.229565,0.80339 0.510146,1.05731 0.465549,0.42132 0.476903,0.51241 0.129866,1.04206 -0.209157,0.31921 -0.305372,0.7756 -0.213813,1.01419 0.265187,0.69107 0.19351,1.95747 -0.146776,2.5933 -0.174358,0.3258 -0.243022,0.90502 -0.154864,1.30639 0.123762,0.56348 0.01643,0.86305 -0.491091,1.37056 -0.357208,0.35721 -0.649468,0.85786 -0.649468,1.11256 0,0.25471 -0.238127,0.66699 -0.529173,0.91619 -0.336276,0.28793 -0.468676,0.60942 -0.363213,0.88195 0.524033,1.35415 0.449189,1.70226 -0.421002,1.95817 -0.659686,0.19401 -0.863402,0.40349 -0.926518,0.95274 -0.0463,0.40288 -0.345095,0.87715 -0.6985,1.10871 -0.339677,0.22257 -0.617594,0.56297 -0.617594,0.75645 0,0.19348 -0.182743,0.35179 -0.406092,0.35179 -0.22335,0 -0.728224,0.34484 -1.121939,0.76631 l -0.715845,0.76632 -1.367638,-0.5117 c -0.752201,-0.28143 -1.75565,-0.91203 -2.229889,-1.40131 -1.349771,-1.39262 -2.409332,-1.07541 -1.270597,0.38038 0.273187,0.34925 0.499951,1.03505 0.503916,1.524 0.004,0.48895 0.17796,1.21639 0.386649,1.61653 0.425658,0.81617 0.49231,1.43147 0.155059,1.43147 -0.123406,0 -0.285348,0.23316 -0.359872,0.51814 -0.105118,0.40197 -0.27259,0.48373 -0.746971,0.36467 -0.397309,-0.0997 -0.726971,-0.0143 -0.94123,0.24386 -0.181363,0.21853 -0.661487,0.39733 -1.066939,0.39733 -0.552618,0 -0.797632,0.15898 -0.978612,0.635 -0.278843,0.73341 -0.516064,0.77522 -1.502951,0.26488 -0.61992,-0.32057 -0.779731,-0.32171 -1.193886,-0.008 -0.29257,0.22126 -0.780247,0.30809 -1.256452,0.2237 -0.531492,-0.0942 -0.883666,-0.0109 -1.110602,0.26249 -0.417804,0.50343 -0.878641,0.51038 -1.286108,0.0194 -0.173911,-0.20955 -0.631111,-0.381 -1.016,-0.381 -0.384889,0 -0.842089,0.17145 -1.016,0.381 -0.472541,0.56938 -0.840611,0.46283 -1.321687,-0.38261 z m 7.260156,-9.71389 c 0.434241,-0.68521 7.26953,-19.11843 7.26953,-19.60427 0,-0.4946 -0.838337,-0.64487 -3.6195,-0.64876 -2.034527,-0.003 -2.555829,0.0767 -2.921,0.4457 -0.244475,0.24704 -1.290261,3.21884 -2.32397,6.604 -1.033709,3.38516 -1.955329,6.15483 -2.048044,6.15483 -0.09271,0 -1.018603,-2.76756 -2.057529,-6.15013 -1.038926,-3.38257 -2.088981,-6.35437 -2.333456,-6.604 -0.372564,-0.38042 -0.888818,-0.45387 -3.189953,-0.45387 -3.245075,0 -3.840398,0.24801 -3.412489,1.42166 0.789075,2.16424 6.66265,17.6424 7.002773,18.45384 l 0.399247,0.9525 h 3.436105 c 3.286722,0 3.45185,-0.0248 3.798286,-0.5715 z"
           id="path25"
           inkscape:connector-curvature="0" />
        <path
           style="fill:#de3429;stroke-width:0.25400001"
           d="m 73.424056,160.33564 c -0.247061,-0.77842 -1.077735,-1.12697 -1.848684,-0.7757 -0.447213,0.20376 -0.722124,0.21168 -0.90767,0.0261 -0.146388,-0.14639 -0.64335,-0.26616 -1.10436,-0.26616 -0.713236,0 -0.8382,-0.09 -0.8382,-0.6039 0,-0.82163 -0.60079,-1.26963 -1.425151,-1.06273 l -0.669748,0.1681 0.11134,-1.53927 c 0.08813,-1.21835 0.283312,-1.78325 0.9362,-2.70951 0.453673,-0.64363 0.76421,-1.32829 0.690081,-1.52146 -0.210268,-0.54795 -1.019325,-0.41387 -1.667797,0.2764 -0.324295,0.34519 -1.001444,0.75998 -1.504776,0.92175 -0.503332,0.16178 -1.219114,0.46937 -1.590627,0.68354 -0.61303,0.35341 -0.714508,0.35038 -1.097643,-0.0327 -0.232191,-0.2322 -0.521115,-0.42217 -0.642053,-0.42217 -0.120938,0 -0.158854,-0.37611 -0.08426,-0.8358 0.18089,-1.1147 -0.945916,-2.38893 -2.219939,-2.51039 -0.840807,-0.0802 -0.868631,-0.11767 -0.868631,-1.17114 0,-0.61176 -0.142796,-1.17677 -0.326103,-1.29031 -0.183882,-0.11389 -0.253528,-0.3911 -0.159695,-0.63563 0.205498,-0.53552 -0.469721,-1.3286 -1.310895,-1.53973 -0.741981,-0.18622 -0.771171,-0.56758 -0.108307,-1.415 0.630421,-0.80595 0.63583,-1.32958 0.01949,-1.88736 -0.359174,-0.32505 -0.453467,-0.65801 -0.356158,-1.25765 0.09116,-0.56178 0.0067,-0.91982 -0.27138,-1.15062 -0.363804,-0.30193 -0.341142,-0.40944 0.229158,-1.08721 0.720538,-0.85631 0.805324,-1.52385 0.251886,-1.98316 -0.626741,-0.52015 -0.445641,-0.70544 0.865764,-0.8858 0.832097,-0.11445 1.777169,-0.0356 2.841512,0.23708 1.383518,0.35444 1.642901,0.3604 1.95829,0.045 0.473792,-0.47379 0.206863,-0.86812 -0.939263,-1.38754 -0.511824,-0.23196 -1.529324,-1.06343 -2.261109,-1.84769 -1.183997,-1.26892 -1.285855,-1.46302 -0.924932,-1.76256 0.387082,-0.32125 0.387474,-0.88384 0.0012,-1.79666 -0.128626,-0.304 -7.62e-4,-0.45685 0.483975,-0.57851 0.362333,-0.0909 0.786817,-0.44634 0.943298,-0.78978 0.15648,-0.34343 0.566085,-0.80892 0.910234,-1.03442 0.554673,-0.36343 0.612452,-0.54812 0.508836,-1.62648 l -0.116889,-1.21649 1.030604,-0.13823 c 0.566832,-0.076 1.161516,-0.31727 1.321518,-0.53608 0.16001,-0.21882 0.527331,-0.39785 0.816277,-0.39785 0.709026,0 1.323641,-0.6608 1.323641,-1.42311 0,-0.75584 0.526629,-1.00673 1.27381,-0.60685 0.724957,0.38798 1.69921,0.12634 1.901377,-0.51063 0.124341,-0.39176 0.384504,-0.50741 1.141494,-0.50741 0.751825,0 1.100855,-0.15307 1.496815,-0.65645 0.487465,-0.61972 0.548528,-0.63393 1.090952,-0.254 0.731062,0.51205 1.443417,0.51208 2.009183,6e-5 0.410074,-0.37111 0.478177,-0.35119 0.876224,0.25631 0.719952,1.09879 1.109261,2.48394 1.120996,3.98848 0.0074,0.94956 0.139046,1.53554 0.392149,1.7456 0.548479,0.4552 1.142999,-0.1088 1.142999,-1.08431 0,-0.45071 0.360731,-1.31157 0.872963,-2.08328 0.480131,-0.72335 0.9495,-1.62013 1.043046,-1.99284 0.135811,-0.54111 0.282013,-0.64958 0.72553,-0.53826 0.350266,0.0879 0.809415,-0.0604 1.242955,-0.40139 0.378129,-0.29743 0.687506,-0.42636 0.687506,-0.2865 0,0.45703 0.785315,1.05258 1.387968,1.05258 0.324325,0 0.655473,0.17145 0.735886,0.381 0.195159,0.50858 1.041543,0.48222 1.866207,-0.0581 0.368605,-0.24152 0.709267,-0.32725 0.757029,-0.1905 0.327056,0.93637 0.806458,1.53009 1.291768,1.59979 0.310827,0.0446 0.565142,0.17935 0.565142,0.29935 0,0.42766 0.808063,1.01648 1.394961,1.01648 0.453321,0 0.63596,0.17886 0.760184,0.74445 0.201698,0.91832 0.546102,1.2178 1.527855,1.32857 0.698221,0.0788 0.75487,0.15709 0.676834,0.93555 -0.05842,0.58279 0.07319,1.02146 0.419143,1.397 0.277371,0.30108 0.545694,0.77516 0.596273,1.0535 0.05058,0.27833 0.404888,0.65604 0.787357,0.83936 0.574756,0.27547 0.695393,0.49833 0.695393,1.28463 0,0.52324 0.135979,1.08732 0.302179,1.25352 0.461104,0.4611 -1.670411,2.37001 -3.362239,3.01109 -0.98461,0.3731 -1.407576,0.67596 -1.463248,1.04775 -0.104943,0.70083 0.66645,0.92256 1.699062,0.48838 0.690788,-0.29046 1.074222,-0.28197 2.579814,0.0571 1.28726,0.28989 1.768432,0.50901 1.768432,0.80531 0,0.22389 0.222966,0.60885 0.495483,0.85547 0.448328,0.40573 0.459867,0.50277 0.121239,1.01958 -0.211917,0.32343 -0.298297,0.76909 -0.199151,1.02746 0.272997,0.71142 0.206423,1.97195 -0.138148,2.61578 -0.172283,0.32192 -0.244152,0.89987 -0.15971,1.28433 0.11291,0.51409 0.01659,0.82297 -0.364091,1.16747 -0.284691,0.25764 -0.517622,0.73246 -0.517622,1.05514 0,0.33842 -0.22863,0.70905 -0.540276,0.87584 -0.470385,0.25175 -0.521812,0.44504 -0.397553,1.49421 0.13781,1.16359 0.114879,1.21733 -0.666224,1.56129 -0.588043,0.25895 -0.831256,0.55072 -0.890643,1.06847 -0.05272,0.45958 -0.300493,0.81192 -0.6985,0.99327 -0.339243,0.15456 -0.616804,0.477 -0.616804,0.71651 0,0.278 -0.268168,0.48911 -0.741571,0.58379 -0.440204,0.088 -0.808441,0.359 -0.906117,0.66675 -0.0905,0.28514 -0.299717,0.51732 -0.464929,0.51596 -0.652295,-0.005 -2.881251,-1.24677 -3.586404,-1.99739 -1.287152,-1.37015 -2.492273,-0.78586 -1.436695,0.69656 0.292443,0.4107 0.531716,1.04708 0.531716,1.41418 0,0.36709 0.173101,1.08174 0.384671,1.58809 0.319255,0.76409 0.330055,1.04522 0.0635,1.65322 -0.250424,0.5712 -0.443014,0.70227 -0.874299,0.59497 -0.318511,-0.0792 -0.714835,0.0241 -0.934357,0.24362 -0.209677,0.20968 -0.671121,0.38123 -1.025436,0.38123 -0.410629,0 -0.752015,0.20721 -0.941547,0.5715 -0.163538,0.31432 -0.330452,0.61057 -0.370921,0.65832 -0.04047,0.0478 -0.486781,-0.0626 -0.991809,-0.24522 -0.741874,-0.26827 -1.016889,-0.27043 -1.431903,-0.0113 -0.282521,0.17644 -0.733757,0.25095 -1.002751,0.16557 -0.273002,-0.0866 -0.822526,0.0417 -1.243818,0.29061 -0.70929,0.41899 -0.783333,0.41996 -1.229535,0.0162 -0.587938,-0.53207 -1.663773,-0.55718 -2.085794,-0.0487 -0.441299,0.53173 -0.951973,0.47487 -1.143086,-0.12727 z m 7.039055,-9.23399 c 0.521145,-0.52114 7.643178,-19.91633 7.474661,-20.35548 -0.120484,-0.31397 -0.753379,-0.38226 -3.542888,-0.38226 -3.279038,0 -3.404771,0.0197 -3.644649,0.5715 -0.136646,0.31432 -1.040589,3.17182 -2.008761,6.35 -0.968174,3.17817 -1.817694,5.77692 -1.887824,5.775 -0.07013,-0.002 -0.978807,-2.74489 -2.019283,-6.09548 -1.040476,-3.35058 -2.006311,-6.20651 -2.1463,-6.34649 -0.144578,-0.14458 -1.717255,-0.25453 -3.640697,-0.25453 -2.695005,0 -3.414497,0.0738 -3.524942,0.36163 -0.136475,0.35565 7.082418,19.7832 7.581302,20.40287 0.377057,0.46834 6.88795,0.44467 7.359381,-0.0268 z"
           id="path23"
           inkscape:connector-curvature="0" />
      </g>
    </g>
  </g>
</svg>
